<svg width="60" height="60" viewBox="0 0 60 60" fill="none" xmlns="http://www.w3.org/2000/svg">
<circle cx="30" cy="30" r="30" fill="#FF9900"/>
<path d="M30.0001 34.0801C31.5907 34.0801 32.8801 32.7906 32.8801 31.2001C32.8801 29.6095 31.5907 28.3201 30.0001 28.3201C28.4095 28.3201 27.1201 29.6095 27.1201 31.2001C27.1201 32.7906 28.4095 34.0801 30.0001 34.0801Z" fill="black"/>
<path d="M29.9999 51.36C23.9869 51.36 19.4399 42.2661 19.4399 31.2C19.4399 20.134 23.9869 11.04 29.9999 11.04C36.013 11.04 40.5599 20.134 40.5599 31.2C40.5599 42.2661 36.013 51.36 29.9999 51.36ZM29.9999 49.44C34.5908 49.44 38.6399 41.3417 38.6399 31.2C38.6399 21.0583 34.5908 12.96 29.9999 12.96C25.4091 12.96 21.3599 21.0583 21.3599 31.2C21.3599 41.3417 25.4091 49.44 29.9999 49.44Z" fill="white"/>
<path d="M47.4282 42.0806C44.4254 47.2006 34.3019 46.6024 24.7365 41.1656C15.1642 35.7249 9.56501 27.3764 12.5764 22.2416C15.5791 17.1216 25.7026 17.7198 35.268 23.1565C44.8404 28.5973 50.4395 36.9458 47.4282 42.0806ZM34.3193 24.8257C25.5512 19.8422 16.5223 19.3086 14.2326 23.2129C11.9515 27.1024 16.9242 34.5168 25.6853 39.4964C34.4533 44.48 43.4823 45.0135 45.772 41.1093C48.053 37.2198 43.0803 29.8054 34.3193 24.8257Z" fill="white"/>
<path d="M14.2326 41.1093C16.5223 45.0135 25.5512 44.48 34.3193 39.4964C43.0803 34.5168 48.053 27.1024 45.772 23.2129C43.4823 19.3086 34.4533 19.8422 25.6853 24.8257C16.9242 29.8054 11.9515 37.2198 14.2326 41.1093ZM12.5764 42.0806C9.56501 36.9458 15.1642 28.5973 24.7365 23.1565C34.3019 17.7198 44.4254 17.1216 47.4282 22.2416C50.4395 27.3764 44.8404 35.7249 35.268 41.1656C25.7026 46.6024 15.5791 47.2006 12.5764 42.0806Z" fill="white"/>
</svg>
