<svg width="232" height="232" viewBox="0 0 232 232" fill="none" xmlns="http://www.w3.org/2000/svg">
<rect x="115.921" width="163.938" height="163.938" transform="rotate(45 115.921 0)" fill="#FFCC33"/>
<path d="M96.9282 113.648V138.322H121.602L116.457 133.176H102.074V118.794L96.9282 113.648Z" fill="#B28F24"/>
<path d="M163.49 151.933L156.105 144.446V151.187H84.0638V140.509H89.2096V136.393H84.0638V119.283H89.2096V115.166H84.0638V98.6994H89.2096V94.5828H84.0638V80.2002L125.076 120.981V113.725L83.3177 72.1727C82.9578 71.8099 82.498 71.5624 81.997 71.4619C81.4959 71.3614 80.9762 71.4123 80.5043 71.6083C80.0323 71.8043 79.6293 72.1364 79.3468 72.5622C79.0643 72.9881 78.915 73.4885 78.918 73.9995V153.76C78.918 154.442 79.1891 155.096 79.6716 155.579C80.1541 156.062 80.8085 156.333 81.4909 156.333H161.663C162.174 156.336 162.674 156.186 163.1 155.904C163.526 155.621 163.858 155.218 164.054 154.746C164.25 154.274 164.301 153.755 164.2 153.254C164.1 152.753 163.852 152.293 163.49 151.933Z" fill="#B28F24"/>
<path d="M135.522 146.041H145.813C147.178 146.041 148.487 145.499 149.452 144.534C150.417 143.569 150.959 142.26 150.959 140.895V91.2378L145.042 80.3544C144.584 79.5615 143.923 78.905 143.127 78.4528C142.331 78.0005 141.429 77.7688 140.513 77.7815C139.577 77.7889 138.661 78.0516 137.863 78.5413C137.065 79.0309 136.416 79.729 135.985 80.5602L130.376 91.2893V140.895C130.376 142.26 130.918 143.569 131.883 144.534C132.848 145.499 134.157 146.041 135.522 146.041ZM135.522 92.5243L140.513 82.8244L145.813 92.55V130.603H135.522V92.5243ZM135.522 134.797H145.813V141.075H135.522V134.797Z" fill="#B28F24"/>
</svg>
