<svg width="60" height="60" viewBox="0 0 60 60" fill="none" xmlns="http://www.w3.org/2000/svg">
<circle cx="30" cy="30" r="30" fill="#FF9900"/>
<path d="M19.4398 36.7433C13.4781 31.6772 10.4985 24.6931 12.2648 18.9627C12.4968 18.21 12.9127 17.5414 13.3034 16.8572C13.4489 16.6023 14.0308 15.9433 14.1547 15.7637C16.2386 12.7452 24.1851 14.9559 32.7987 20.2498L36.8407 12.9741C37.0982 12.5106 37.6827 12.3436 38.1462 12.6011C38.6096 12.8586 38.7766 13.443 38.5191 13.9065L34.4229 21.2798C34.5098 21.3366 34.5967 21.3937 34.6837 21.4511C42.8356 26.831 48.4525 32.9475 48.236 36.5851C48.2533 36.7382 48.2339 36.8965 48.1742 37.0462C48.1004 37.3907 47.9659 37.7086 47.7671 37.9965C47.5796 38.2681 47.3446 38.4974 47.0659 38.6859C43.3662 43.155 36.246 44.3508 29.0398 42.0717V44.1601C29.0398 45.7507 27.7503 47.0401 26.1598 47.0401H22.3198C20.7292 47.0401 19.4398 45.7507 19.4398 44.1601V36.7433ZM21.3598 44.1601C21.3598 44.6903 21.7896 45.1201 22.3198 45.1201H26.1598C26.69 45.1201 27.1198 44.6903 27.1198 44.1601V41.382C25.8863 40.8852 24.659 40.2858 23.4547 39.5827C22.7284 39.1587 22.0295 38.7078 21.3598 38.2335V44.1601ZM28.9507 31.1296C36.4162 35.9242 43.6166 38.3112 45.7366 37.2731C45.9644 36.9832 46.1744 36.678 46.3654 36.3577C46.5399 34.0005 41.2998 28.1213 33.6258 23.0569C33.5794 23.0262 33.533 22.9957 33.4865 22.9652L28.9507 31.1296ZM15.7357 16.8572C14.5119 18.6297 19.5249 24.6945 27.3463 30.0641L31.8625 21.9349C24.1265 17.1924 16.9373 15.1166 15.7357 16.8572ZM14.0996 19.5283C12.2695 25.4657 16.5627 33.3357 24.4228 37.9246C31.3252 41.9544 38.8974 42.2739 43.4686 39.3226C39.4554 38.985 33.4202 36.389 27.2382 32.3091C20.5838 27.9176 15.6187 23.0352 14.1367 19.411C14.1241 19.45 14.1117 19.4891 14.0996 19.5283Z" fill="white"/>
<path fill-rule="evenodd" clip-rule="evenodd" d="M34.8005 17.7262C36.6372 18.7866 38.9857 18.1573 40.0461 16.3207C41.1065 14.4841 40.4772 12.1355 38.6405 11.0752C36.8039 10.0148 34.4554 10.6441 33.395 12.4807C32.3346 14.3173 32.9639 16.6658 34.8005 17.7262Z" fill="black"/>
</svg>
