<svg width="231" height="231" viewBox="0 0 231 231" fill="none" xmlns="http://www.w3.org/2000/svg">
<rect x="115.421" width="163.23" height="163.23" transform="rotate(45 115.421 0)" fill="#EC4826"/>
<g clip-path="url(#clip0)">
<path fill-rule="evenodd" clip-rule="evenodd" d="M146.908 74.678H83.2477C81.8407 74.678 80.4914 75.237 79.4965 76.2318C78.5016 77.2267 77.9427 78.5761 77.9427 79.983V143.643C77.9427 145.05 78.5016 146.399 79.4965 147.394C80.4914 148.389 81.8407 148.948 83.2477 148.948H146.908C148.315 148.948 149.664 148.389 150.659 147.394C151.654 146.399 152.213 145.05 152.213 143.643V79.983C152.213 78.5761 151.654 77.2267 150.659 76.2318C149.664 75.237 148.315 74.678 146.908 74.678ZM83.2477 69.373C80.4337 69.373 77.735 70.4909 75.7453 72.4806C73.7555 74.4704 72.6377 77.1691 72.6377 79.983V143.643C72.6377 146.457 73.7555 149.156 75.7453 151.145C77.735 153.135 80.4337 154.253 83.2477 154.253H146.908C149.721 154.253 152.42 153.135 154.41 151.145C156.4 149.156 157.518 146.457 157.518 143.643V79.983C157.518 77.1691 156.4 74.4704 154.41 72.4806C152.42 70.4909 149.721 69.373 146.908 69.373H83.2477Z" fill="#B20000"/>
<path fill-rule="evenodd" clip-rule="evenodd" d="M108.998 94.02C109.245 94.2664 109.441 94.5591 109.574 94.8813C109.708 95.2036 109.777 95.5491 109.777 95.898C109.777 96.2469 109.708 96.5923 109.574 96.9146C109.441 97.2368 109.245 97.5295 108.998 97.7759L94.9552 111.813L108.998 125.85C109.496 126.348 109.775 127.024 109.775 127.728C109.775 128.432 109.496 129.108 108.998 129.606C108.499 130.104 107.824 130.384 107.12 130.384C106.415 130.384 105.74 130.104 105.242 129.606L89.3266 113.691C89.0796 113.444 88.8836 113.152 88.7499 112.83C88.6162 112.507 88.5474 112.162 88.5474 111.813C88.5474 111.464 88.6162 111.119 88.7499 110.796C88.8836 110.474 89.0796 110.181 89.3266 109.935L105.242 94.02C105.488 93.773 105.781 93.577 106.103 93.4433C106.425 93.3096 106.771 93.2407 107.12 93.2407C107.468 93.2407 107.814 93.3096 108.136 93.4433C108.458 93.577 108.751 93.773 108.998 94.02ZM121.157 94.02C120.91 94.2664 120.714 94.5591 120.58 94.8813C120.446 95.2036 120.377 95.5491 120.377 95.898C120.377 96.2469 120.446 96.5923 120.58 96.9146C120.714 97.2368 120.91 97.5295 121.157 97.7759L135.199 111.813L121.157 125.85C120.659 126.348 120.379 127.024 120.379 127.728C120.379 128.432 120.659 129.108 121.157 129.606C121.655 130.104 122.33 130.384 123.035 130.384C123.739 130.384 124.414 130.104 124.913 129.606L140.827 113.691C141.074 113.444 141.27 113.152 141.404 112.83C141.538 112.507 141.607 112.162 141.607 111.813C141.607 111.464 141.538 111.119 141.404 110.796C141.27 110.474 141.074 110.181 140.827 109.935L124.913 94.02C124.666 93.773 124.373 93.577 124.051 93.4433C123.729 93.3096 123.383 93.2407 123.035 93.2407C122.686 93.2407 122.34 93.3096 122.018 93.4433C121.696 93.577 121.403 93.773 121.157 94.02Z" fill="#B20000"/>
</g>
<defs>
<clipPath id="clip0">
<rect width="84.8798" height="84.8798" fill="white" transform="translate(72.6377 69.373)"/>
</clipPath>
</defs>
</svg>
