<svg width="232" height="232" viewBox="0 0 232 232" fill="none" xmlns="http://www.w3.org/2000/svg">
<rect x="115.921" width="163.938" height="163.938" transform="rotate(45 115.921 0)" fill="#92CBF8"/>
<path d="M126.437 136.068H138.732V148.364H126.437V136.068Z" fill="#668EAE"/>
<path d="M147.954 136.068H160.249V148.364H147.954V136.068Z" fill="#668EAE"/>
<path d="M126.437 114.552H138.732V126.847H126.437V114.552Z" fill="#668EAE"/>
<path d="M147.954 114.552H160.249V126.847H147.954V114.552Z" fill="#668EAE"/>
<path d="M120.289 136.068H80.3293V93.0347H154.101V108.404H160.249V93.0347C160.247 91.4048 159.599 89.842 158.446 88.6895C157.294 87.5369 155.731 86.8887 154.101 86.8871H135.658V74.5917C135.657 72.9618 135.008 71.3991 133.856 70.2465C132.703 69.0939 131.141 68.4457 129.511 68.4441H104.92C103.29 68.4457 101.727 69.0939 100.575 70.2465C99.4221 71.3991 98.7739 72.9618 98.7723 74.5917V86.8871H80.3293C78.6993 86.8887 77.1366 87.5369 75.984 88.6895C74.8315 89.842 74.1833 91.4048 74.1816 93.0347V136.068C74.1833 137.698 74.8315 139.261 75.984 140.414C77.1366 141.566 78.6993 142.214 80.3293 142.216H120.289V136.068ZM104.92 74.5917H129.511V86.8871H104.92V74.5917Z" fill="#668EAE"/>
</svg>
