<svg width="915" height="370" viewBox="0 0 915 370" fill="none" xmlns="http://www.w3.org/2000/svg">
<circle cx="206" cy="177" r="108" stroke="#FF9900" stroke-width="4"/>
<circle cx="444" cy="177" r="108" stroke="#FF9900" stroke-width="4"/>
<circle cx="678" cy="177" r="108" stroke="#FF9900" stroke-width="4"/>
<path d="M2.98828 161.99V167H1.37988V154.203H5.45801C6.64746 154.203 7.58203 154.561 8.26172 155.275C8.94141 155.984 9.28125 156.931 9.28125 158.114C9.28125 159.345 8.95605 160.294 8.30566 160.962C7.66113 161.624 6.75 161.967 5.57227 161.99H2.98828ZM2.98828 160.61H5.45801C6.17285 160.61 6.7207 160.396 7.10156 159.969C7.48242 159.541 7.67285 158.929 7.67285 158.132C7.67285 157.364 7.47656 156.749 7.08398 156.286C6.69141 155.823 6.15234 155.592 5.4668 155.592H2.98828V160.61ZM15.0732 158.949C14.8564 158.908 14.6221 158.888 14.3701 158.888C13.5732 158.888 13.0166 159.324 12.7002 160.197V167H11.1445V157.49H12.6562L12.6826 158.457C13.0986 157.695 13.6875 157.314 14.4492 157.314C14.6953 157.314 14.9004 157.355 15.0645 157.438L15.0732 158.949ZM19.8545 167.176C18.6709 167.176 17.7627 166.824 17.1299 166.121C16.4971 165.412 16.1748 164.375 16.1631 163.01V161.858C16.1631 160.44 16.4707 159.33 17.0859 158.527C17.707 157.719 18.5713 157.314 19.6787 157.314C20.792 157.314 21.624 157.669 22.1748 158.378C22.7256 159.087 23.0068 160.191 23.0186 161.691V162.711H17.71V162.931C17.71 163.95 17.9004 164.691 18.2812 165.154C18.668 165.617 19.2217 165.849 19.9424 165.849C20.3994 165.849 20.8008 165.764 21.1465 165.594C21.498 165.418 21.8262 165.143 22.1309 164.768L22.9395 165.752C22.2656 166.701 21.2373 167.176 19.8545 167.176ZM19.6787 158.65C19.0342 158.65 18.5566 158.873 18.2461 159.318C17.9355 159.758 17.7598 160.443 17.7188 161.375H21.4629V161.164C21.4219 160.262 21.2578 159.617 20.9707 159.23C20.6895 158.844 20.2588 158.65 19.6787 158.65ZM28.1953 165.849C28.7109 165.849 29.124 165.69 29.4346 165.374C29.7451 165.052 29.915 164.595 29.9443 164.003H31.4121C31.377 164.917 31.0518 165.676 30.4365 166.279C29.8271 166.877 29.0801 167.176 28.1953 167.176C27.0176 167.176 26.1182 166.807 25.4971 166.068C24.8818 165.324 24.5742 164.22 24.5742 162.755V161.709C24.5742 160.273 24.8818 159.184 25.4971 158.439C26.1123 157.689 27.0088 157.314 28.1865 157.314C29.1592 157.314 29.9297 157.622 30.498 158.237C31.0723 158.853 31.377 159.693 31.4121 160.76H29.9443C29.9092 160.057 29.7393 159.529 29.4346 159.178C29.1357 158.826 28.7197 158.65 28.1865 158.65C27.4951 158.65 26.9824 158.879 26.6484 159.336C26.3145 159.787 26.1416 160.531 26.1299 161.568V162.781C26.1299 163.9 26.2939 164.691 26.6221 165.154C26.9561 165.617 27.4805 165.849 28.1953 165.849ZM34.8838 167H33.3281V157.49H34.8838V167ZM35.0068 154.968C35.0068 155.231 34.9336 155.451 34.7871 155.627C34.6406 155.803 34.418 155.891 34.1191 155.891C33.8262 155.891 33.6064 155.803 33.46 155.627C33.3135 155.451 33.2402 155.231 33.2402 154.968C33.2402 154.704 33.3135 154.481 33.46 154.3C33.6064 154.118 33.8262 154.027 34.1191 154.027C34.4121 154.027 34.6318 154.121 34.7783 154.309C34.9307 154.49 35.0068 154.71 35.0068 154.968ZM40.7373 167.176C39.5537 167.176 38.6455 166.824 38.0127 166.121C37.3799 165.412 37.0576 164.375 37.0459 163.01V161.858C37.0459 160.44 37.3535 159.33 37.9688 158.527C38.5898 157.719 39.4541 157.314 40.5615 157.314C41.6748 157.314 42.5068 157.669 43.0576 158.378C43.6084 159.087 43.8896 160.191 43.9014 161.691V162.711H38.5928V162.931C38.5928 163.95 38.7832 164.691 39.1641 165.154C39.5508 165.617 40.1045 165.849 40.8252 165.849C41.2822 165.849 41.6836 165.764 42.0293 165.594C42.3809 165.418 42.709 165.143 43.0137 164.768L43.8223 165.752C43.1484 166.701 42.1201 167.176 40.7373 167.176ZM40.5615 158.65C39.917 158.65 39.4395 158.873 39.1289 159.318C38.8184 159.758 38.6426 160.443 38.6016 161.375H42.3457V161.164C42.3047 160.262 42.1406 159.617 41.8535 159.23C41.5723 158.844 41.1416 158.65 40.5615 158.65ZM48.3486 164.636L50.1504 157.49H51.7324L48.9111 167H47.751L44.8945 157.49H46.4766L48.3486 164.636ZM56.6279 167.176C55.4443 167.176 54.5361 166.824 53.9033 166.121C53.2705 165.412 52.9482 164.375 52.9365 163.01V161.858C52.9365 160.44 53.2441 159.33 53.8594 158.527C54.4805 157.719 55.3447 157.314 56.4521 157.314C57.5654 157.314 58.3975 157.669 58.9482 158.378C59.499 159.087 59.7803 160.191 59.792 161.691V162.711H54.4834V162.931C54.4834 163.95 54.6738 164.691 55.0547 165.154C55.4414 165.617 55.9951 165.849 56.7158 165.849C57.1729 165.849 57.5742 165.764 57.9199 165.594C58.2715 165.418 58.5996 165.143 58.9043 164.768L59.7129 165.752C59.0391 166.701 58.0107 167.176 56.6279 167.176ZM56.4521 158.65C55.8076 158.65 55.3301 158.873 55.0195 159.318C54.709 159.758 54.5332 160.443 54.4922 161.375H58.2363V161.164C58.1953 160.262 58.0312 159.617 57.7441 159.23C57.4629 158.844 57.0322 158.65 56.4521 158.65ZM61.3389 161.814C61.3389 160.35 61.6113 159.233 62.1562 158.466C62.707 157.698 63.4951 157.314 64.5205 157.314C65.4287 157.314 66.1377 157.684 66.6475 158.422V153.5H68.2031V167H66.7793L66.7002 165.98C66.1904 166.777 65.4609 167.176 64.5117 167.176C63.5273 167.176 62.7539 166.795 62.1914 166.033C61.6348 165.266 61.3506 164.185 61.3389 162.79V161.814ZM62.8945 162.702C62.8945 163.769 63.0527 164.554 63.3691 165.058C63.6855 165.556 64.2012 165.805 64.916 165.805C65.6895 165.805 66.2666 165.415 66.6475 164.636V159.837C66.249 159.075 65.6748 158.694 64.9248 158.694C64.21 158.694 63.6943 158.946 63.3779 159.45C63.0615 159.948 62.9004 160.716 62.8945 161.753V162.702ZM2.98828 185.99V191H1.37988V178.203H5.45801C6.64746 178.203 7.58203 178.561 8.26172 179.275C8.94141 179.984 9.28125 180.931 9.28125 182.114C9.28125 183.345 8.95605 184.294 8.30566 184.962C7.66113 185.624 6.75 185.967 5.57227 185.99H2.98828ZM2.98828 184.61H5.45801C6.17285 184.61 6.7207 184.396 7.10156 183.969C7.48242 183.541 7.67285 182.929 7.67285 182.132C7.67285 181.364 7.47656 180.749 7.08398 180.286C6.69141 179.823 6.15234 179.592 5.4668 179.592H2.98828V184.61ZM15.0732 182.949C14.8564 182.908 14.6221 182.888 14.3701 182.888C13.5732 182.888 13.0166 183.324 12.7002 184.197V191H11.1445V181.49H12.6562L12.6826 182.457C13.0986 181.695 13.6875 181.314 14.4492 181.314C14.6953 181.314 14.9004 181.355 15.0645 181.438L15.0732 182.949ZM16.1279 185.806C16.1279 184.423 16.4619 183.33 17.1299 182.527C17.8037 181.719 18.6914 181.314 19.793 181.314C20.8945 181.314 21.7793 181.707 22.4473 182.492C23.1211 183.277 23.4668 184.347 23.4844 185.7V186.702C23.4844 188.079 23.1504 189.169 22.4824 189.972C21.8145 190.774 20.9238 191.176 19.8105 191.176C18.709 191.176 17.8242 190.786 17.1562 190.007C16.4941 189.228 16.1514 188.173 16.1279 186.843V185.806ZM17.6836 186.702C17.6836 187.681 17.874 188.451 18.2549 189.014C18.6416 189.57 19.1602 189.849 19.8105 189.849C21.1816 189.849 21.8877 188.858 21.9287 186.878V185.806C21.9287 184.833 21.7354 184.065 21.3486 183.503C20.9619 182.935 20.4434 182.65 19.793 182.65C19.1543 182.65 18.6416 182.935 18.2549 183.503C17.874 184.065 17.6836 184.83 17.6836 185.797V186.702ZM32.3789 186.702C32.3789 188.185 32.1123 189.301 31.5791 190.051C31.0459 190.801 30.2725 191.176 29.2588 191.176C28.251 191.176 27.4951 190.742 26.9912 189.875L26.9121 191H25.4971V177.5H27.0439V182.536C27.5537 181.722 28.2861 181.314 29.2412 181.314C30.2842 181.314 31.0664 181.684 31.5879 182.422C32.1094 183.16 32.373 184.273 32.3789 185.762V186.702ZM30.832 185.814C30.832 184.689 30.6738 183.89 30.3574 183.415C30.0469 182.935 29.54 182.694 28.8369 182.694C28.0342 182.694 27.4365 183.128 27.0439 183.995V188.521C27.4307 189.377 28.0342 189.805 28.8545 189.805C29.5576 189.805 30.0615 189.559 30.3662 189.066C30.6709 188.574 30.8262 187.81 30.832 186.772V185.814ZM36.0439 191H34.4883V177.5H36.0439V191ZM41.8975 191.176C40.7139 191.176 39.8057 190.824 39.1729 190.121C38.54 189.412 38.2178 188.375 38.2061 187.01V185.858C38.2061 184.44 38.5137 183.33 39.1289 182.527C39.75 181.719 40.6143 181.314 41.7217 181.314C42.835 181.314 43.667 181.669 44.2178 182.378C44.7686 183.087 45.0498 184.191 45.0615 185.691V186.711H39.7529V186.931C39.7529 187.95 39.9434 188.691 40.3242 189.154C40.7109 189.617 41.2646 189.849 41.9854 189.849C42.4424 189.849 42.8438 189.764 43.1895 189.594C43.541 189.418 43.8691 189.143 44.1738 188.768L44.9824 189.752C44.3086 190.701 43.2803 191.176 41.8975 191.176ZM41.7217 182.65C41.0771 182.65 40.5996 182.873 40.2891 183.318C39.9785 183.758 39.8027 184.443 39.7617 185.375H43.5059V185.164C43.4648 184.262 43.3008 183.617 43.0137 183.23C42.7324 182.844 42.3018 182.65 41.7217 182.65ZM48.4014 181.49L48.4365 182.369C49.0166 181.666 49.7812 181.314 50.7305 181.314C51.791 181.314 52.5322 181.774 52.9541 182.694C53.5518 181.774 54.3838 181.314 55.4502 181.314C57.2021 181.314 58.0986 182.407 58.1396 184.593V191H56.5928V184.742C56.5928 184.051 56.4697 183.538 56.2236 183.204C55.9775 182.864 55.5615 182.694 54.9756 182.694C54.5068 182.694 54.126 182.876 53.833 183.239C53.54 183.603 53.3701 184.065 53.3232 184.628V191H51.7588V184.672C51.7412 183.354 51.2051 182.694 50.1504 182.694C49.3652 182.694 48.8115 183.087 48.4893 183.872V191H46.9424V181.49H48.4014ZM65.1094 188.565C65.1094 188.231 64.9834 187.944 64.7314 187.704C64.4795 187.464 63.9932 187.183 63.2725 186.86C62.4346 186.515 61.8428 186.219 61.4971 185.973C61.1572 185.727 60.9023 185.448 60.7324 185.138C60.5625 184.821 60.4775 184.446 60.4775 184.013C60.4775 183.239 60.7588 182.598 61.3213 182.088C61.8896 181.572 62.6133 181.314 63.4922 181.314C64.418 181.314 65.1621 181.584 65.7246 182.123C66.2871 182.662 66.5684 183.354 66.5684 184.197H65.0215C65.0215 183.77 64.8779 183.406 64.5908 183.107C64.3037 182.803 63.9375 182.65 63.4922 182.65C63.0352 182.65 62.6748 182.771 62.4111 183.011C62.1533 183.245 62.0244 183.562 62.0244 183.96C62.0244 184.276 62.1182 184.531 62.3057 184.725C62.499 184.918 62.959 185.173 63.6855 185.489C64.8398 185.94 65.625 186.383 66.041 186.816C66.457 187.244 66.665 187.789 66.665 188.451C66.665 189.277 66.3809 189.939 65.8125 190.438C65.2441 190.93 64.4824 191.176 63.5273 191.176C62.5371 191.176 61.7344 190.892 61.1191 190.323C60.5039 189.755 60.1963 189.034 60.1963 188.161H61.7607C61.7783 188.688 61.9395 189.102 62.2441 189.4C62.5488 189.699 62.9766 189.849 63.5273 189.849C64.043 189.849 64.4355 189.734 64.7051 189.506C64.9746 189.271 65.1094 188.958 65.1094 188.565Z" fill="white"/>
<path d="M23.0088 350.203V359.3C22.9971 360.513 22.6455 361.462 21.9541 362.147C21.2627 362.833 20.2988 363.176 19.0625 363.176C17.7969 363.176 16.8301 362.842 16.1621 362.174C15.4941 361.5 15.1543 360.542 15.1426 359.3V350.203H16.7422V359.238C16.7422 360.1 16.9238 360.744 17.2871 361.172C17.6562 361.594 18.248 361.805 19.0625 361.805C19.8828 361.805 20.4746 361.594 20.8379 361.172C21.207 360.744 21.3916 360.1 21.3916 359.238V350.203H23.0088ZM26.7354 353.49L26.7793 354.519C27.3828 353.716 28.1533 353.314 29.0908 353.314C30.7725 353.314 31.625 354.437 31.6484 356.681V363H30.1016V356.751C30.1016 356.007 29.9756 355.479 29.7236 355.169C29.4775 354.853 29.1055 354.694 28.6074 354.694C28.2207 354.694 27.8721 354.823 27.5615 355.081C27.2568 355.339 27.0107 355.676 26.8232 356.092V363H25.2676V353.49H26.7354ZM37.291 361.849C37.8066 361.849 38.2197 361.69 38.5303 361.374C38.8408 361.052 39.0107 360.595 39.04 360.003H40.5078C40.4727 360.917 40.1475 361.676 39.5322 362.279C38.9229 362.877 38.1758 363.176 37.291 363.176C36.1133 363.176 35.2139 362.807 34.5928 362.068C33.9775 361.324 33.6699 360.22 33.6699 358.755V357.709C33.6699 356.273 33.9775 355.184 34.5928 354.439C35.208 353.689 36.1045 353.314 37.2822 353.314C38.2549 353.314 39.0254 353.622 39.5938 354.237C40.168 354.853 40.4727 355.693 40.5078 356.76H39.04C39.0049 356.057 38.835 355.529 38.5303 355.178C38.2314 354.826 37.8154 354.65 37.2822 354.65C36.5908 354.65 36.0781 354.879 35.7441 355.336C35.4102 355.787 35.2373 356.531 35.2256 357.568V358.781C35.2256 359.9 35.3896 360.691 35.7178 361.154C36.0518 361.617 36.5762 361.849 37.291 361.849ZM45.7021 363.176C44.5186 363.176 43.6104 362.824 42.9775 362.121C42.3447 361.412 42.0225 360.375 42.0107 359.01V357.858C42.0107 356.44 42.3184 355.33 42.9336 354.527C43.5547 353.719 44.4189 353.314 45.5264 353.314C46.6396 353.314 47.4717 353.669 48.0225 354.378C48.5732 355.087 48.8545 356.191 48.8662 357.691V358.711H43.5576V358.931C43.5576 359.95 43.748 360.691 44.1289 361.154C44.5156 361.617 45.0693 361.849 45.79 361.849C46.2471 361.849 46.6484 361.764 46.9941 361.594C47.3457 361.418 47.6738 361.143 47.9785 360.768L48.7871 361.752C48.1133 362.701 47.085 363.176 45.7021 363.176ZM45.5264 354.65C44.8818 354.65 44.4043 354.873 44.0938 355.318C43.7832 355.758 43.6074 356.443 43.5664 357.375H47.3105V357.164C47.2695 356.262 47.1055 355.617 46.8184 355.23C46.5371 354.844 46.1064 354.65 45.5264 354.65ZM54.667 354.949C54.4502 354.908 54.2158 354.888 53.9639 354.888C53.167 354.888 52.6104 355.324 52.2939 356.197V363H50.7383V353.49H52.25L52.2764 354.457C52.6924 353.695 53.2812 353.314 54.043 353.314C54.2891 353.314 54.4941 353.355 54.6582 353.438L54.667 354.949ZM58.7012 351.188V353.49H60.1338V354.747H58.7012V360.645C58.7012 361.02 58.7627 361.304 58.8857 361.497C59.0088 361.69 59.2197 361.787 59.5186 361.787C59.7236 361.787 59.9316 361.752 60.1426 361.682L60.125 363C59.7734 363.117 59.4131 363.176 59.0439 363.176C58.4287 363.176 57.96 362.956 57.6377 362.517C57.3154 362.077 57.1543 361.456 57.1543 360.653V354.747H55.7041V353.49H57.1543V351.188H58.7012ZM66.8838 363C66.79 362.795 66.7227 362.449 66.6816 361.963C66.1309 362.771 65.4277 363.176 64.5723 363.176C63.7109 363.176 63.0371 362.936 62.5508 362.455C62.0703 361.969 61.8301 361.286 61.8301 360.407C61.8301 359.44 62.1582 358.673 62.8145 358.104C63.4707 357.536 64.3701 357.246 65.5127 357.234H66.6553V356.224C66.6553 355.655 66.5293 355.251 66.2773 355.011C66.0254 354.771 65.6416 354.65 65.126 354.65C64.6572 354.65 64.2764 354.791 63.9834 355.072C63.6904 355.348 63.5439 355.699 63.5439 356.127H61.9883C61.9883 355.641 62.1318 355.178 62.4189 354.738C62.7061 354.293 63.0928 353.944 63.5791 353.692C64.0654 353.44 64.6074 353.314 65.2051 353.314C66.1777 353.314 66.916 353.558 67.4199 354.044C67.9297 354.524 68.1904 355.228 68.2021 356.153V360.952C68.208 361.685 68.3076 362.32 68.501 362.859V363H66.8838ZM64.8096 361.761C65.1904 361.761 65.5537 361.655 65.8994 361.444C66.2451 361.233 66.4971 360.97 66.6553 360.653V358.386H65.7764C65.0381 358.397 64.4551 358.564 64.0273 358.887C63.5996 359.203 63.3857 359.648 63.3857 360.223C63.3857 360.762 63.4941 361.154 63.7109 361.4C63.9277 361.641 64.2939 361.761 64.8096 361.761ZM72.2979 363H70.7422V353.49H72.2979V363ZM72.4209 350.968C72.4209 351.231 72.3477 351.451 72.2012 351.627C72.0547 351.803 71.832 351.891 71.5332 351.891C71.2402 351.891 71.0205 351.803 70.874 351.627C70.7275 351.451 70.6543 351.231 70.6543 350.968C70.6543 350.704 70.7275 350.481 70.874 350.3C71.0205 350.118 71.2402 350.027 71.5332 350.027C71.8262 350.027 72.0459 350.121 72.1924 350.309C72.3447 350.49 72.4209 350.71 72.4209 350.968ZM76.2178 353.49L76.2617 354.519C76.8652 353.716 77.6357 353.314 78.5732 353.314C80.2549 353.314 81.1074 354.437 81.1309 356.681V363H79.584V356.751C79.584 356.007 79.458 355.479 79.2061 355.169C78.96 354.853 78.5879 354.694 78.0898 354.694C77.7031 354.694 77.3545 354.823 77.0439 355.081C76.7393 355.339 76.4932 355.676 76.3057 356.092V363H74.75V353.49H76.2178ZM85.5078 351.188V353.49H86.9404V354.747H85.5078V360.645C85.5078 361.02 85.5693 361.304 85.6924 361.497C85.8154 361.69 86.0264 361.787 86.3252 361.787C86.5303 361.787 86.7383 361.752 86.9492 361.682L86.9316 363C86.5801 363.117 86.2197 363.176 85.8506 363.176C85.2354 363.176 84.7666 362.956 84.4443 362.517C84.1221 362.077 83.9609 361.456 83.9609 360.653V354.747H82.5107V353.49H83.9609V351.188H85.5078ZM91.3965 360.416L93.1279 353.49H94.7803L91.6689 364.345C91.4346 365.159 91.1035 365.777 90.6758 366.199C90.248 366.627 89.7617 366.841 89.2168 366.841C89.0059 366.841 88.7363 366.794 88.4082 366.7V365.382L88.751 365.417C89.2021 365.417 89.5537 365.309 89.8057 365.092C90.0635 364.881 90.2715 364.512 90.4297 363.984L90.7373 362.921L87.9424 353.49H89.6387L91.3965 360.416Z" fill="white"/>
<circle r="9.5" transform="matrix(-1 0 0 1 116 358)" stroke="#FF9900" stroke-width="3"/>
<path d="M816.404 358.939C816.334 360.311 815.947 361.359 815.244 362.086C814.547 362.812 813.56 363.176 812.282 363.176C810.999 363.176 809.979 362.689 809.224 361.717C808.468 360.738 808.09 359.414 808.09 357.744V355.424C808.09 353.76 808.477 352.444 809.25 351.478C810.029 350.511 811.09 350.027 812.432 350.027C813.668 350.027 814.623 350.399 815.297 351.144C815.977 351.882 816.346 352.939 816.404 354.316H814.778C814.708 353.273 814.488 352.529 814.119 352.084C813.75 351.639 813.188 351.416 812.432 351.416C811.559 351.416 810.888 351.759 810.419 352.444C809.95 353.124 809.716 354.123 809.716 355.441V357.788C809.716 359.083 809.933 360.076 810.366 360.768C810.806 361.459 811.444 361.805 812.282 361.805C813.12 361.805 813.724 361.597 814.093 361.181C814.462 360.765 814.69 360.018 814.778 358.939H816.404ZM820.052 363H818.496V349.5H820.052V363ZM827.399 363C827.306 362.795 827.238 362.449 827.197 361.963C826.646 362.771 825.943 363.176 825.088 363.176C824.227 363.176 823.553 362.936 823.066 362.455C822.586 361.969 822.346 361.286 822.346 360.407C822.346 359.44 822.674 358.673 823.33 358.104C823.986 357.536 824.886 357.246 826.028 357.234H827.171V356.224C827.171 355.655 827.045 355.251 826.793 355.011C826.541 354.771 826.157 354.65 825.642 354.65C825.173 354.65 824.792 354.791 824.499 355.072C824.206 355.348 824.06 355.699 824.06 356.127H822.504C822.504 355.641 822.647 355.178 822.935 354.738C823.222 354.293 823.608 353.944 824.095 353.692C824.581 353.44 825.123 353.314 825.721 353.314C826.693 353.314 827.432 353.558 827.936 354.044C828.445 354.524 828.706 355.228 828.718 356.153V360.952C828.724 361.685 828.823 362.32 829.017 362.859V363H827.399ZM825.325 361.761C825.706 361.761 826.069 361.655 826.415 361.444C826.761 361.233 827.013 360.97 827.171 360.653V358.386H826.292C825.554 358.397 824.971 358.564 824.543 358.887C824.115 359.203 823.901 359.648 823.901 360.223C823.901 360.762 824.01 361.154 824.227 361.4C824.443 361.641 824.81 361.761 825.325 361.761ZM835.063 354.949C834.847 354.908 834.612 354.888 834.36 354.888C833.563 354.888 833.007 355.324 832.69 356.197V363H831.135V353.49H832.646L832.673 354.457C833.089 353.695 833.678 353.314 834.439 353.314C834.686 353.314 834.891 353.355 835.055 353.438L835.063 354.949ZM838.298 363H836.742V353.49H838.298V363ZM838.421 350.968C838.421 351.231 838.348 351.451 838.201 351.627C838.055 351.803 837.832 351.891 837.533 351.891C837.24 351.891 837.021 351.803 836.874 351.627C836.728 351.451 836.654 351.231 836.654 350.968C836.654 350.704 836.728 350.481 836.874 350.3C837.021 350.118 837.24 350.027 837.533 350.027C837.826 350.027 838.046 350.121 838.192 350.309C838.345 350.49 838.421 350.71 838.421 350.968ZM842.789 351.188V353.49H844.222V354.747H842.789V360.645C842.789 361.02 842.851 361.304 842.974 361.497C843.097 361.69 843.308 361.787 843.606 361.787C843.812 361.787 844.02 361.752 844.23 361.682L844.213 363C843.861 363.117 843.501 363.176 843.132 363.176C842.517 363.176 842.048 362.956 841.726 362.517C841.403 362.077 841.242 361.456 841.242 360.653V354.747H839.792V353.49H841.242V351.188H842.789ZM848.678 360.416L850.409 353.49H852.062L848.95 364.345C848.716 365.159 848.385 365.777 847.957 366.199C847.529 366.627 847.043 366.841 846.498 366.841C846.287 366.841 846.018 366.794 845.689 366.7V365.382L846.032 365.417C846.483 365.417 846.835 365.309 847.087 365.092C847.345 364.881 847.553 364.512 847.711 363.984L848.019 362.921L845.224 353.49H846.92L848.678 360.416Z" fill="white"/>
<path d="M367.984 154.717L369.332 145.781H372.174L369.645 160H366.764L365.104 151.621L363.463 160H360.572L358.033 145.781H360.895L362.232 154.707L363.902 145.781H366.314L367.984 154.717ZM376.285 150.361C376.884 149.613 377.62 149.238 378.492 149.238C379.456 149.238 380.188 149.577 380.689 150.254C381.191 150.931 381.445 151.94 381.451 153.281V160H378.678V153.311C378.678 152.692 378.58 152.246 378.385 151.973C378.196 151.693 377.887 151.553 377.457 151.553C376.956 151.553 376.565 151.784 376.285 152.246V160H373.521V145H376.285V150.361ZM388.453 160C388.375 159.837 388.297 159.564 388.219 159.18C387.724 159.857 387.053 160.195 386.207 160.195C385.322 160.195 384.586 159.902 384 159.316C383.421 158.73 383.131 157.972 383.131 157.041C383.131 155.934 383.482 155.078 384.186 154.473C384.895 153.867 385.914 153.558 387.242 153.545H388.082V152.695C388.082 152.22 388.001 151.885 387.838 151.689C387.675 151.494 387.438 151.396 387.125 151.396C386.435 151.396 386.09 151.8 386.09 152.607H383.326C383.326 151.631 383.691 150.827 384.42 150.195C385.156 149.557 386.083 149.238 387.203 149.238C388.362 149.238 389.257 149.541 389.889 150.146C390.527 150.745 390.846 151.605 390.846 152.725V157.695C390.859 158.607 390.989 159.32 391.236 159.834V160H388.453ZM386.822 158.027C387.128 158.027 387.389 157.965 387.604 157.842C387.818 157.718 387.978 157.572 388.082 157.402V155.205H387.418C386.949 155.205 386.578 155.355 386.305 155.654C386.038 155.954 385.904 156.354 385.904 156.855C385.904 157.637 386.21 158.027 386.822 158.027ZM396.061 146.836V149.434H397.477V151.514H396.061V156.758C396.061 157.174 396.116 157.461 396.227 157.617C396.344 157.773 396.565 157.852 396.891 157.852C397.158 157.852 397.376 157.829 397.545 157.783L397.525 159.932C397.057 160.107 396.549 160.195 396.002 160.195C394.218 160.195 393.316 159.173 393.297 157.129V151.514H392.076V149.434H393.297V146.836H396.061ZM408.629 160C408.551 159.837 408.473 159.564 408.395 159.18C407.9 159.857 407.229 160.195 406.383 160.195C405.497 160.195 404.762 159.902 404.176 159.316C403.596 158.73 403.307 157.972 403.307 157.041C403.307 155.934 403.658 155.078 404.361 154.473C405.071 153.867 406.09 153.558 407.418 153.545H408.258V152.695C408.258 152.22 408.176 151.885 408.014 151.689C407.851 151.494 407.613 151.396 407.301 151.396C406.611 151.396 406.266 151.8 406.266 152.607H403.502C403.502 151.631 403.867 150.827 404.596 150.195C405.331 149.557 406.259 149.238 407.379 149.238C408.538 149.238 409.433 149.541 410.064 150.146C410.702 150.745 411.021 151.605 411.021 152.725V157.695C411.035 158.607 411.165 159.32 411.412 159.834V160H408.629ZM406.998 158.027C407.304 158.027 407.564 157.965 407.779 157.842C407.994 157.718 408.154 157.572 408.258 157.402V155.205H407.594C407.125 155.205 406.754 155.355 406.48 155.654C406.214 155.954 406.08 156.354 406.08 156.855C406.08 157.637 406.386 158.027 406.998 158.027ZM418.238 152.1L417.32 152.021C416.565 152.021 416.054 152.354 415.787 153.018V160H413.014V149.434H415.621L415.699 150.576C416.135 149.684 416.738 149.238 417.506 149.238C417.818 149.238 418.072 149.281 418.268 149.365L418.238 152.1ZM423.736 160.195C422.317 160.195 421.21 159.772 420.416 158.926C419.622 158.079 419.225 156.868 419.225 155.293V154.453C419.225 152.786 419.589 151.501 420.318 150.596C421.048 149.691 422.092 149.238 423.453 149.238C424.781 149.238 425.781 149.665 426.451 150.518C427.122 151.364 427.464 152.62 427.477 154.287V155.645H421.979C422.018 156.426 422.19 156.999 422.496 157.363C422.802 157.721 423.274 157.9 423.912 157.9C424.837 157.9 425.608 157.585 426.227 156.953L427.311 158.623C426.972 159.092 426.48 159.473 425.836 159.766C425.191 160.052 424.492 160.195 423.736 160.195ZM421.998 153.711H424.762V153.457C424.749 152.826 424.645 152.347 424.449 152.021C424.254 151.696 423.915 151.533 423.434 151.533C422.952 151.533 422.6 151.706 422.379 152.051C422.164 152.396 422.037 152.949 421.998 153.711ZM436.861 146.836V149.434H438.277V151.514H436.861V156.758C436.861 157.174 436.917 157.461 437.027 157.617C437.145 157.773 437.366 157.852 437.691 157.852C437.958 157.852 438.176 157.829 438.346 157.783L438.326 159.932C437.857 160.107 437.35 160.195 436.803 160.195C435.019 160.195 434.117 159.173 434.098 157.129V151.514H432.877V149.434H434.098V146.836H436.861ZM442.496 150.361C443.095 149.613 443.831 149.238 444.703 149.238C445.667 149.238 446.399 149.577 446.9 150.254C447.402 150.931 447.656 151.94 447.662 153.281V160H444.889V153.311C444.889 152.692 444.791 152.246 444.596 151.973C444.407 151.693 444.098 151.553 443.668 151.553C443.167 151.553 442.776 151.784 442.496 152.246V160H439.732V145H442.496V150.361ZM453.912 160.195C452.493 160.195 451.386 159.772 450.592 158.926C449.798 158.079 449.4 156.868 449.4 155.293V154.453C449.4 152.786 449.765 151.501 450.494 150.596C451.223 149.691 452.268 149.238 453.629 149.238C454.957 149.238 455.956 149.665 456.627 150.518C457.298 151.364 457.639 152.62 457.652 154.287V155.645H452.154C452.193 156.426 452.366 156.999 452.672 157.363C452.978 157.721 453.45 157.9 454.088 157.9C455.012 157.9 455.784 157.585 456.402 156.953L457.486 158.623C457.148 159.092 456.656 159.473 456.012 159.766C455.367 160.052 454.667 160.195 453.912 160.195ZM452.174 153.711H454.938V153.457C454.924 152.826 454.82 152.347 454.625 152.021C454.43 151.696 454.091 151.533 453.609 151.533C453.128 151.533 452.776 151.706 452.555 152.051C452.34 152.396 452.213 152.949 452.174 153.711ZM472.057 155.049C472.057 156.709 471.77 157.982 471.197 158.867C470.631 159.753 469.785 160.195 468.658 160.195C467.799 160.195 467.109 159.847 466.588 159.15V164.062H463.824V149.434H466.383L466.48 150.4C467.008 149.626 467.727 149.238 468.639 149.238C469.765 149.238 470.611 149.648 471.178 150.469C471.751 151.289 472.044 152.546 472.057 154.238V155.049ZM469.303 154.355C469.303 153.333 469.189 152.611 468.961 152.188C468.74 151.764 468.362 151.553 467.828 151.553C467.262 151.553 466.848 151.79 466.588 152.266V157.217C466.835 157.673 467.255 157.9 467.848 157.9C468.395 157.9 468.772 157.669 468.98 157.207C469.195 156.745 469.303 156.025 469.303 155.049V154.355ZM473.404 154.375C473.404 152.773 473.782 151.517 474.537 150.605C475.292 149.694 476.337 149.238 477.672 149.238C479.02 149.238 480.071 149.694 480.826 150.605C481.581 151.517 481.959 152.78 481.959 154.395V155.068C481.959 156.676 481.585 157.933 480.836 158.838C480.087 159.743 479.039 160.195 477.691 160.195C476.337 160.195 475.283 159.743 474.527 158.838C473.779 157.926 473.404 156.663 473.404 155.049V154.375ZM476.178 155.068C476.178 156.956 476.682 157.9 477.691 157.9C478.622 157.9 479.124 157.113 479.195 155.537L479.205 154.375C479.205 153.411 479.072 152.699 478.805 152.236C478.538 151.768 478.16 151.533 477.672 151.533C477.203 151.533 476.835 151.768 476.568 152.236C476.308 152.699 476.178 153.411 476.178 154.375V155.068ZM488.365 157.168C488.365 156.934 488.251 156.719 488.023 156.523C487.802 156.322 487.304 156.051 486.529 155.713C485.39 155.251 484.605 154.772 484.176 154.277C483.753 153.783 483.541 153.167 483.541 152.432C483.541 151.507 483.873 150.745 484.537 150.146C485.208 149.541 486.093 149.238 487.193 149.238C488.352 149.238 489.28 149.538 489.977 150.137C490.673 150.736 491.021 151.54 491.021 152.549H488.258C488.258 151.689 487.9 151.26 487.184 151.26C486.891 151.26 486.65 151.351 486.461 151.533C486.272 151.715 486.178 151.969 486.178 152.295C486.178 152.529 486.282 152.738 486.49 152.92C486.699 153.096 487.19 153.35 487.965 153.682C489.091 154.098 489.885 154.564 490.348 155.078C490.816 155.586 491.051 156.247 491.051 157.061C491.051 158.005 490.696 158.763 489.986 159.336C489.277 159.909 488.346 160.195 487.193 160.195C486.419 160.195 485.735 160.046 485.143 159.746C484.55 159.44 484.085 159.017 483.746 158.477C483.414 157.936 483.248 157.354 483.248 156.729H485.875C485.888 157.21 485.999 157.572 486.207 157.812C486.422 158.053 486.77 158.174 487.252 158.174C487.994 158.174 488.365 157.839 488.365 157.168ZM497.447 157.168C497.447 156.934 497.333 156.719 497.105 156.523C496.884 156.322 496.386 156.051 495.611 155.713C494.472 155.251 493.688 154.772 493.258 154.277C492.835 153.783 492.623 153.167 492.623 152.432C492.623 151.507 492.955 150.745 493.619 150.146C494.29 149.541 495.175 149.238 496.275 149.238C497.434 149.238 498.362 149.538 499.059 150.137C499.755 150.736 500.104 151.54 500.104 152.549H497.34C497.34 151.689 496.982 151.26 496.266 151.26C495.973 151.26 495.732 151.351 495.543 151.533C495.354 151.715 495.26 151.969 495.26 152.295C495.26 152.529 495.364 152.738 495.572 152.92C495.781 153.096 496.272 153.35 497.047 153.682C498.173 154.098 498.967 154.564 499.43 155.078C499.898 155.586 500.133 156.247 500.133 157.061C500.133 158.005 499.778 158.763 499.068 159.336C498.359 159.909 497.428 160.195 496.275 160.195C495.501 160.195 494.817 160.046 494.225 159.746C493.632 159.44 493.167 159.017 492.828 158.477C492.496 157.936 492.33 157.354 492.33 156.729H494.957C494.97 157.21 495.081 157.572 495.289 157.812C495.504 158.053 495.852 158.174 496.334 158.174C497.076 158.174 497.447 157.839 497.447 157.168ZM504.752 160H501.979V149.434H504.752V160ZM501.852 146.699C501.852 146.27 501.988 145.918 502.262 145.645C502.535 145.371 502.9 145.234 503.355 145.234C503.811 145.234 504.176 145.371 504.449 145.645C504.723 145.918 504.859 146.27 504.859 146.699C504.859 147.122 504.723 147.474 504.449 147.754C504.182 148.034 503.818 148.174 503.355 148.174C502.893 148.174 502.525 148.034 502.252 147.754C501.985 147.474 501.852 147.122 501.852 146.699ZM515.133 155.059C515.133 156.771 514.859 158.057 514.312 158.916C513.766 159.769 512.906 160.195 511.734 160.195C510.816 160.195 510.081 159.782 509.527 158.955L509.439 160H506.891V145H509.654V150.293C510.175 149.59 510.862 149.238 511.715 149.238C512.887 149.238 513.746 149.665 514.293 150.518C514.84 151.364 515.12 152.607 515.133 154.248V155.059ZM512.369 154.365C512.369 153.252 512.262 152.507 512.047 152.129C511.832 151.745 511.458 151.553 510.924 151.553C510.344 151.553 509.921 151.816 509.654 152.344V157.158C509.902 157.653 510.331 157.9 510.943 157.9C511.471 157.9 511.835 157.728 512.037 157.383C512.245 157.038 512.356 156.367 512.369 155.371V154.365ZM519.693 160H516.92V145H519.693V160ZM526.1 160.195C524.68 160.195 523.574 159.772 522.779 158.926C521.985 158.079 521.588 156.868 521.588 155.293V154.453C521.588 152.786 521.952 151.501 522.682 150.596C523.411 149.691 524.456 149.238 525.816 149.238C527.145 149.238 528.144 149.665 528.814 150.518C529.485 151.364 529.827 152.62 529.84 154.287V155.645H524.342C524.381 156.426 524.553 156.999 524.859 157.363C525.165 157.721 525.637 157.9 526.275 157.9C527.2 157.9 527.971 157.585 528.59 156.953L529.674 158.623C529.335 159.092 528.844 159.473 528.199 159.766C527.555 160.052 526.855 160.195 526.1 160.195ZM524.361 153.711H527.125V153.457C527.112 152.826 527.008 152.347 526.812 152.021C526.617 151.696 526.279 151.533 525.797 151.533C525.315 151.533 524.964 151.706 524.742 152.051C524.527 152.396 524.4 152.949 524.361 153.711ZM387.379 181.168C387.379 180.934 387.265 180.719 387.037 180.523C386.816 180.322 386.318 180.051 385.543 179.713C384.404 179.251 383.619 178.772 383.189 178.277C382.766 177.783 382.555 177.167 382.555 176.432C382.555 175.507 382.887 174.745 383.551 174.146C384.221 173.541 385.107 173.238 386.207 173.238C387.366 173.238 388.294 173.538 388.99 174.137C389.687 174.736 390.035 175.54 390.035 176.549H387.271C387.271 175.689 386.913 175.26 386.197 175.26C385.904 175.26 385.663 175.351 385.475 175.533C385.286 175.715 385.191 175.969 385.191 176.295C385.191 176.529 385.296 176.738 385.504 176.92C385.712 177.096 386.204 177.35 386.979 177.682C388.105 178.098 388.899 178.564 389.361 179.078C389.83 179.586 390.064 180.247 390.064 181.061C390.064 182.005 389.71 182.763 389 183.336C388.29 183.909 387.359 184.195 386.207 184.195C385.432 184.195 384.749 184.046 384.156 183.746C383.564 183.44 383.098 183.017 382.76 182.477C382.428 181.936 382.262 181.354 382.262 180.729H384.889C384.902 181.21 385.012 181.572 385.221 181.812C385.436 182.053 385.784 182.174 386.266 182.174C387.008 182.174 387.379 181.839 387.379 181.168ZM391.461 178.375C391.461 176.773 391.839 175.517 392.594 174.605C393.349 173.694 394.394 173.238 395.729 173.238C397.076 173.238 398.128 173.694 398.883 174.605C399.638 175.517 400.016 176.78 400.016 178.395V179.068C400.016 180.676 399.641 181.933 398.893 182.838C398.144 183.743 397.096 184.195 395.748 184.195C394.394 184.195 393.339 183.743 392.584 182.838C391.835 181.926 391.461 180.663 391.461 179.049V178.375ZM394.234 179.068C394.234 180.956 394.739 181.9 395.748 181.9C396.679 181.9 397.18 181.113 397.252 179.537L397.262 178.375C397.262 177.411 397.128 176.699 396.861 176.236C396.594 175.768 396.217 175.533 395.729 175.533C395.26 175.533 394.892 175.768 394.625 176.236C394.365 176.699 394.234 177.411 394.234 178.375V179.068ZM404.645 184H401.871V169H404.645V184ZM411.979 183.033C411.406 183.808 410.637 184.195 409.674 184.195C408.704 184.195 407.968 183.863 407.467 183.199C406.965 182.529 406.715 181.555 406.715 180.279V173.434H409.479V180.348C409.492 181.376 409.833 181.891 410.504 181.891C411.135 181.891 411.591 181.617 411.871 181.07V173.434H414.654V184H412.057L411.979 183.033ZM419.84 170.836V173.434H421.256V175.514H419.84V180.758C419.84 181.174 419.895 181.461 420.006 181.617C420.123 181.773 420.344 181.852 420.67 181.852C420.937 181.852 421.155 181.829 421.324 181.783L421.305 183.932C420.836 184.107 420.328 184.195 419.781 184.195C417.997 184.195 417.096 183.173 417.076 181.129V175.514H415.855V173.434H417.076V170.836H419.84ZM425.68 184H422.906V173.434H425.68V184ZM422.779 170.699C422.779 170.27 422.916 169.918 423.189 169.645C423.463 169.371 423.827 169.234 424.283 169.234C424.739 169.234 425.104 169.371 425.377 169.645C425.65 169.918 425.787 170.27 425.787 170.699C425.787 171.122 425.65 171.474 425.377 171.754C425.11 172.034 424.745 172.174 424.283 172.174C423.821 172.174 423.453 172.034 423.18 171.754C422.913 171.474 422.779 171.122 422.779 170.699ZM427.496 178.375C427.496 176.773 427.874 175.517 428.629 174.605C429.384 173.694 430.429 173.238 431.764 173.238C433.111 173.238 434.163 173.694 434.918 174.605C435.673 175.517 436.051 176.78 436.051 178.395V179.068C436.051 180.676 435.676 181.933 434.928 182.838C434.179 183.743 433.131 184.195 431.783 184.195C430.429 184.195 429.374 183.743 428.619 182.838C427.87 181.926 427.496 180.663 427.496 179.049V178.375ZM430.27 179.068C430.27 180.956 430.774 181.9 431.783 181.9C432.714 181.9 433.215 181.113 433.287 179.537L433.297 178.375C433.297 177.411 433.163 176.699 432.896 176.236C432.63 175.768 432.252 175.533 431.764 175.533C431.295 175.533 430.927 175.768 430.66 176.236C430.4 176.699 430.27 177.411 430.27 178.375V179.068ZM440.309 173.434L440.387 174.479C441.012 173.652 441.829 173.238 442.838 173.238C444.654 173.238 445.589 174.511 445.641 177.057V184H442.867V177.262C442.867 176.663 442.776 176.23 442.594 175.963C442.418 175.689 442.105 175.553 441.656 175.553C441.155 175.553 440.764 175.81 440.484 176.324V184H437.711V173.434H440.309ZM452.301 181.168C452.301 180.934 452.187 180.719 451.959 180.523C451.738 180.322 451.24 180.051 450.465 179.713C449.326 179.251 448.541 178.772 448.111 178.277C447.688 177.783 447.477 177.167 447.477 176.432C447.477 175.507 447.809 174.745 448.473 174.146C449.143 173.541 450.029 173.238 451.129 173.238C452.288 173.238 453.215 173.538 453.912 174.137C454.609 174.736 454.957 175.54 454.957 176.549H452.193C452.193 175.689 451.835 175.26 451.119 175.26C450.826 175.26 450.585 175.351 450.396 175.533C450.208 175.715 450.113 175.969 450.113 176.295C450.113 176.529 450.217 176.738 450.426 176.92C450.634 177.096 451.126 177.35 451.9 177.682C453.027 178.098 453.821 178.564 454.283 179.078C454.752 179.586 454.986 180.247 454.986 181.061C454.986 182.005 454.632 182.763 453.922 183.336C453.212 183.909 452.281 184.195 451.129 184.195C450.354 184.195 449.671 184.046 449.078 183.746C448.486 183.44 448.02 183.017 447.682 182.477C447.35 181.936 447.184 181.354 447.184 180.729H449.811C449.824 181.21 449.934 181.572 450.143 181.812C450.357 182.053 450.706 182.174 451.188 182.174C451.93 182.174 452.301 181.839 452.301 181.168ZM464.527 170.836V173.434H465.943V175.514H464.527V180.758C464.527 181.174 464.583 181.461 464.693 181.617C464.811 181.773 465.032 181.852 465.357 181.852C465.624 181.852 465.842 181.829 466.012 181.783L465.992 183.932C465.523 184.107 465.016 184.195 464.469 184.195C462.685 184.195 461.783 183.173 461.764 181.129V175.514H460.543V173.434H461.764V170.836H464.527ZM466.852 178.375C466.852 176.773 467.229 175.517 467.984 174.605C468.74 173.694 469.785 173.238 471.119 173.238C472.467 173.238 473.518 173.694 474.273 174.605C475.029 175.517 475.406 176.78 475.406 178.395V179.068C475.406 180.676 475.032 181.933 474.283 182.838C473.535 183.743 472.486 184.195 471.139 184.195C469.785 184.195 468.73 183.743 467.975 182.838C467.226 181.926 466.852 180.663 466.852 179.049V178.375ZM469.625 179.068C469.625 180.956 470.13 181.9 471.139 181.9C472.07 181.9 472.571 181.113 472.643 179.537L472.652 178.375C472.652 177.411 472.519 176.699 472.252 176.236C471.985 175.768 471.607 175.533 471.119 175.533C470.65 175.533 470.283 175.768 470.016 176.236C469.755 176.699 469.625 177.411 469.625 178.375V179.068ZM484.957 170.836V173.434H486.373V175.514H484.957V180.758C484.957 181.174 485.012 181.461 485.123 181.617C485.24 181.773 485.462 181.852 485.787 181.852C486.054 181.852 486.272 181.829 486.441 181.783L486.422 183.932C485.953 184.107 485.445 184.195 484.898 184.195C483.115 184.195 482.213 183.173 482.193 181.129V175.514H480.973V173.434H482.193V170.836H484.957ZM490.592 174.361C491.191 173.613 491.926 173.238 492.799 173.238C493.762 173.238 494.495 173.577 494.996 174.254C495.497 174.931 495.751 175.94 495.758 177.281V184H492.984V177.311C492.984 176.692 492.887 176.246 492.691 175.973C492.503 175.693 492.193 175.553 491.764 175.553C491.262 175.553 490.872 175.784 490.592 176.246V184H487.828V169H490.592V174.361ZM502.008 184.195C500.589 184.195 499.482 183.772 498.688 182.926C497.893 182.079 497.496 180.868 497.496 179.293V178.453C497.496 176.786 497.861 175.501 498.59 174.596C499.319 173.691 500.364 173.238 501.725 173.238C503.053 173.238 504.052 173.665 504.723 174.518C505.393 175.364 505.735 176.62 505.748 178.287V179.645H500.25C500.289 180.426 500.462 180.999 500.768 181.363C501.074 181.721 501.546 181.9 502.184 181.9C503.108 181.9 503.88 181.585 504.498 180.953L505.582 182.623C505.243 183.092 504.752 183.473 504.107 183.766C503.463 184.052 502.763 184.195 502.008 184.195ZM500.27 177.711H503.033V177.457C503.02 176.826 502.916 176.347 502.721 176.021C502.525 175.696 502.187 175.533 501.705 175.533C501.223 175.533 500.872 175.706 500.65 176.051C500.436 176.396 500.309 176.949 500.27 177.711ZM416.002 203.049C416.002 204.709 415.715 205.982 415.143 206.867C414.576 207.753 413.73 208.195 412.604 208.195C411.744 208.195 411.054 207.847 410.533 207.15V212.062H407.77V197.434H410.328L410.426 198.4C410.953 197.626 411.673 197.238 412.584 197.238C413.71 197.238 414.557 197.648 415.123 198.469C415.696 199.289 415.989 200.546 416.002 202.238V203.049ZM413.248 202.355C413.248 201.333 413.134 200.611 412.906 200.188C412.685 199.764 412.307 199.553 411.773 199.553C411.207 199.553 410.794 199.79 410.533 200.266V205.217C410.781 205.673 411.201 205.9 411.793 205.9C412.34 205.9 412.717 205.669 412.926 205.207C413.141 204.745 413.248 204.025 413.248 203.049V202.355ZM422.887 200.1L421.969 200.021C421.214 200.021 420.702 200.354 420.436 201.018V208H417.662V197.434H420.27L420.348 198.576C420.784 197.684 421.386 197.238 422.154 197.238C422.467 197.238 422.721 197.281 422.916 197.365L422.887 200.1ZM423.639 202.375C423.639 200.773 424.016 199.517 424.771 198.605C425.527 197.694 426.572 197.238 427.906 197.238C429.254 197.238 430.305 197.694 431.061 198.605C431.816 199.517 432.193 200.78 432.193 202.395V203.068C432.193 204.676 431.819 205.933 431.07 206.838C430.322 207.743 429.273 208.195 427.926 208.195C426.572 208.195 425.517 207.743 424.762 206.838C424.013 205.926 423.639 204.663 423.639 203.049V202.375ZM426.412 203.068C426.412 204.956 426.917 205.9 427.926 205.9C428.857 205.9 429.358 205.113 429.43 203.537L429.439 202.375C429.439 201.411 429.306 200.699 429.039 200.236C428.772 199.768 428.395 199.533 427.906 199.533C427.438 199.533 427.07 199.768 426.803 200.236C426.542 200.699 426.412 201.411 426.412 202.375V203.068ZM442.164 203.059C442.164 204.771 441.891 206.057 441.344 206.916C440.797 207.769 439.938 208.195 438.766 208.195C437.848 208.195 437.112 207.782 436.559 206.955L436.471 208H433.922V193H436.686V198.293C437.206 197.59 437.893 197.238 438.746 197.238C439.918 197.238 440.777 197.665 441.324 198.518C441.871 199.364 442.151 200.607 442.164 202.248V203.059ZM439.4 202.365C439.4 201.252 439.293 200.507 439.078 200.129C438.863 199.745 438.489 199.553 437.955 199.553C437.376 199.553 436.952 199.816 436.686 200.344V205.158C436.933 205.653 437.363 205.9 437.975 205.9C438.502 205.9 438.867 205.728 439.068 205.383C439.277 205.038 439.387 204.367 439.4 203.371V202.365ZM446.725 208H443.951V193H446.725V208ZM453.131 208.195C451.712 208.195 450.605 207.772 449.811 206.926C449.016 206.079 448.619 204.868 448.619 203.293V202.453C448.619 200.786 448.984 199.501 449.713 198.596C450.442 197.691 451.487 197.238 452.848 197.238C454.176 197.238 455.175 197.665 455.846 198.518C456.516 199.364 456.858 200.62 456.871 202.287V203.645H451.373C451.412 204.426 451.585 204.999 451.891 205.363C452.197 205.721 452.669 205.9 453.307 205.9C454.231 205.9 455.003 205.585 455.621 204.953L456.705 206.623C456.367 207.092 455.875 207.473 455.23 207.766C454.586 208.052 453.886 208.195 453.131 208.195ZM451.393 201.711H454.156V201.457C454.143 200.826 454.039 200.347 453.844 200.021C453.648 199.696 453.31 199.533 452.828 199.533C452.346 199.533 451.995 199.706 451.773 200.051C451.559 200.396 451.432 200.949 451.393 201.711ZM461.031 197.434L461.109 198.41C461.728 197.629 462.545 197.238 463.561 197.238C464.615 197.238 465.361 197.714 465.797 198.664C466.402 197.714 467.265 197.238 468.385 197.238C470.234 197.238 471.181 198.518 471.227 201.076V208H468.463V201.252C468.463 200.64 468.378 200.204 468.209 199.943C468.04 199.683 467.753 199.553 467.35 199.553C466.835 199.553 466.451 199.868 466.197 200.5L466.217 200.832V208H463.453V201.271C463.453 200.666 463.372 200.23 463.209 199.963C463.046 199.689 462.757 199.553 462.34 199.553C461.865 199.553 461.487 199.81 461.207 200.324V208H458.443V197.434H461.031ZM475.24 203.625C475.24 202.714 475.328 201.991 475.504 201.457C475.686 200.917 476.008 200.402 476.471 199.914C476.959 199.374 477.285 198.931 477.447 198.586C477.61 198.241 477.691 197.893 477.691 197.541C477.691 196.454 477.34 195.91 476.637 195.91C476.324 195.91 476.064 196.06 475.855 196.359C475.647 196.659 475.536 197.062 475.523 197.57H472.76C472.773 196.307 473.124 195.327 473.814 194.631C474.511 193.934 475.452 193.586 476.637 193.586C477.848 193.586 478.788 193.924 479.459 194.602C480.13 195.272 480.465 196.213 480.465 197.424C480.465 198.426 480.051 199.41 479.225 200.373L478.414 201.291C478.147 201.61 477.958 201.942 477.848 202.287C477.737 202.626 477.675 203.072 477.662 203.625H475.24ZM474.986 206.613C474.986 206.171 475.126 205.809 475.406 205.529C475.693 205.249 476.054 205.109 476.49 205.109C476.939 205.109 477.304 205.253 477.584 205.539C477.864 205.819 478.004 206.177 478.004 206.613C478.004 207.043 477.867 207.401 477.594 207.688C477.32 207.974 476.952 208.117 476.49 208.117C476.035 208.117 475.67 207.974 475.396 207.688C475.123 207.401 474.986 207.043 474.986 206.613Z" fill="white"/>
<path d="M432.234 350.809H428.016V365H424.559V350.809H420.41V347.938H432.234V350.809ZM437.531 365H434.203V352.32H437.531V365ZM434.051 349.039C434.051 348.523 434.215 348.102 434.543 347.773C434.871 347.445 435.309 347.281 435.855 347.281C436.402 347.281 436.84 347.445 437.168 347.773C437.496 348.102 437.66 348.523 437.66 349.039C437.66 349.547 437.496 349.969 437.168 350.305C436.848 350.641 436.41 350.809 435.855 350.809C435.301 350.809 434.859 350.641 434.531 350.305C434.211 349.969 434.051 349.547 434.051 349.039ZM443.215 352.32L443.309 353.492C444.051 352.555 445.031 352.086 446.25 352.086C447.516 352.086 448.41 352.656 448.934 353.797C449.66 352.656 450.695 352.086 452.039 352.086C454.258 352.086 455.395 353.621 455.449 356.691V365H452.133V356.902C452.133 356.168 452.031 355.645 451.828 355.332C451.625 355.02 451.281 354.863 450.797 354.863C450.18 354.863 449.719 355.242 449.414 356L449.438 356.398V365H446.121V356.926C446.121 356.199 446.023 355.676 445.828 355.355C445.633 355.027 445.285 354.863 444.785 354.863C444.215 354.863 443.762 355.172 443.426 355.789V365H440.109V352.32H443.215ZM463.031 365.234C461.328 365.234 460 364.727 459.047 363.711C458.094 362.695 457.617 361.242 457.617 359.352V358.344C457.617 356.344 458.055 354.801 458.93 353.715C459.805 352.629 461.059 352.086 462.691 352.086C464.285 352.086 465.484 352.598 466.289 353.621C467.094 354.637 467.504 356.145 467.52 358.145V359.773H460.922C460.969 360.711 461.176 361.398 461.543 361.836C461.91 362.266 462.477 362.48 463.242 362.48C464.352 362.48 465.277 362.102 466.02 361.344L467.32 363.348C466.914 363.91 466.324 364.367 465.551 364.719C464.777 365.062 463.938 365.234 463.031 365.234ZM460.945 357.453H464.262V357.148C464.246 356.391 464.121 355.816 463.887 355.426C463.652 355.035 463.246 354.84 462.668 354.84C462.09 354.84 461.668 355.047 461.402 355.461C461.145 355.875 460.992 356.539 460.945 357.453Z" fill="#FF9900"/>
<path d="M606.275 168H603.414V161.916H599.176V168H596.305V153.781H599.176V159.533H603.414V153.781H606.275V168ZM608.131 162.375C608.131 160.773 608.508 159.517 609.264 158.605C610.019 157.694 611.064 157.238 612.398 157.238C613.746 157.238 614.798 157.694 615.553 158.605C616.308 159.517 616.686 160.78 616.686 162.395V163.068C616.686 164.676 616.311 165.933 615.562 166.838C614.814 167.743 613.766 168.195 612.418 168.195C611.064 168.195 610.009 167.743 609.254 166.838C608.505 165.926 608.131 164.663 608.131 163.049V162.375ZM610.904 163.068C610.904 164.956 611.409 165.9 612.418 165.9C613.349 165.9 613.85 165.113 613.922 163.537L613.932 162.375C613.932 161.411 613.798 160.699 613.531 160.236C613.264 159.768 612.887 159.533 612.398 159.533C611.93 159.533 611.562 159.768 611.295 160.236C611.035 160.699 610.904 161.411 610.904 162.375V163.068ZM626.109 163.361L627.057 157.434H629.703L627.516 168H625.221L623.727 161.887L622.232 168H619.928L617.74 157.434H620.396L621.334 163.371L622.74 157.434H624.703L626.109 163.361ZM639.498 165.9C640.299 165.9 640.706 165.38 640.719 164.338H643.316C643.303 165.49 642.949 166.421 642.252 167.131C641.555 167.84 640.657 168.195 639.557 168.195C638.196 168.195 637.158 167.772 636.441 166.926C635.725 166.079 635.361 164.833 635.348 163.186V162.346C635.348 160.686 635.699 159.419 636.402 158.547C637.112 157.674 638.157 157.238 639.537 157.238C640.702 157.238 641.62 157.6 642.291 158.322C642.962 159.038 643.303 160.057 643.316 161.379H640.719C640.712 160.786 640.615 160.331 640.426 160.012C640.237 159.693 639.924 159.533 639.488 159.533C639.007 159.533 638.661 159.706 638.453 160.051C638.245 160.389 638.134 161.05 638.121 162.033V163.107C638.121 163.967 638.163 164.569 638.248 164.914C638.333 165.253 638.473 165.503 638.668 165.666C638.863 165.822 639.14 165.9 639.498 165.9ZM649.898 168C649.82 167.837 649.742 167.564 649.664 167.18C649.169 167.857 648.499 168.195 647.652 168.195C646.767 168.195 646.031 167.902 645.445 167.316C644.866 166.73 644.576 165.972 644.576 165.041C644.576 163.934 644.928 163.078 645.631 162.473C646.34 161.867 647.359 161.558 648.688 161.545H649.527V160.695C649.527 160.22 649.446 159.885 649.283 159.689C649.12 159.494 648.883 159.396 648.57 159.396C647.88 159.396 647.535 159.8 647.535 160.607H644.771C644.771 159.631 645.136 158.827 645.865 158.195C646.601 157.557 647.529 157.238 648.648 157.238C649.807 157.238 650.702 157.541 651.334 158.146C651.972 158.745 652.291 159.605 652.291 160.725V165.695C652.304 166.607 652.434 167.32 652.682 167.834V168H649.898ZM648.268 166.027C648.574 166.027 648.834 165.965 649.049 165.842C649.264 165.718 649.423 165.572 649.527 165.402V163.205H648.863C648.395 163.205 648.023 163.355 647.75 163.654C647.483 163.954 647.35 164.354 647.35 164.855C647.35 165.637 647.656 166.027 648.268 166.027ZM656.822 157.434L656.9 158.479C657.525 157.652 658.342 157.238 659.352 157.238C661.168 157.238 662.102 158.511 662.154 161.057V168H659.381V161.262C659.381 160.663 659.29 160.23 659.107 159.963C658.932 159.689 658.619 159.553 658.17 159.553C657.669 159.553 657.278 159.81 656.998 160.324V168H654.225V157.434H656.822ZM671.959 154.836V157.434H673.375V159.514H671.959V164.758C671.959 165.174 672.014 165.461 672.125 165.617C672.242 165.773 672.464 165.852 672.789 165.852C673.056 165.852 673.274 165.829 673.443 165.783L673.424 167.932C672.955 168.107 672.447 168.195 671.9 168.195C670.117 168.195 669.215 167.173 669.195 165.129V159.514H667.975V157.434H669.195V154.836H671.959ZM677.594 158.361C678.193 157.613 678.928 157.238 679.801 157.238C680.764 157.238 681.497 157.577 681.998 158.254C682.499 158.931 682.753 159.94 682.76 161.281V168H679.986V161.311C679.986 160.692 679.889 160.246 679.693 159.973C679.505 159.693 679.195 159.553 678.766 159.553C678.264 159.553 677.874 159.784 677.594 160.246V168H674.83V153H677.594V158.361ZM689.01 168.195C687.59 168.195 686.484 167.772 685.689 166.926C684.895 166.079 684.498 164.868 684.498 163.293V162.453C684.498 160.786 684.863 159.501 685.592 158.596C686.321 157.691 687.366 157.238 688.727 157.238C690.055 157.238 691.054 157.665 691.725 158.518C692.395 159.364 692.737 160.62 692.75 162.287V163.645H687.252C687.291 164.426 687.464 164.999 687.77 165.363C688.076 165.721 688.548 165.9 689.186 165.9C690.11 165.9 690.882 165.585 691.5 164.953L692.584 166.623C692.245 167.092 691.754 167.473 691.109 167.766C690.465 168.052 689.765 168.195 689.01 168.195ZM687.271 161.711H690.035V161.457C690.022 160.826 689.918 160.347 689.723 160.021C689.527 159.696 689.189 159.533 688.707 159.533C688.225 159.533 687.874 159.706 687.652 160.051C687.438 160.396 687.311 160.949 687.271 161.711ZM703.6 165.168C703.6 164.934 703.486 164.719 703.258 164.523C703.036 164.322 702.538 164.051 701.764 163.713C700.624 163.251 699.84 162.772 699.41 162.277C698.987 161.783 698.775 161.167 698.775 160.432C698.775 159.507 699.107 158.745 699.771 158.146C700.442 157.541 701.327 157.238 702.428 157.238C703.587 157.238 704.514 157.538 705.211 158.137C705.908 158.736 706.256 159.54 706.256 160.549H703.492C703.492 159.689 703.134 159.26 702.418 159.26C702.125 159.26 701.884 159.351 701.695 159.533C701.507 159.715 701.412 159.969 701.412 160.295C701.412 160.529 701.516 160.738 701.725 160.92C701.933 161.096 702.424 161.35 703.199 161.682C704.326 162.098 705.12 162.564 705.582 163.078C706.051 163.586 706.285 164.247 706.285 165.061C706.285 166.005 705.93 166.763 705.221 167.336C704.511 167.909 703.58 168.195 702.428 168.195C701.653 168.195 700.969 168.046 700.377 167.746C699.785 167.44 699.319 167.017 698.98 166.477C698.648 165.936 698.482 165.354 698.482 164.729H701.109C701.122 165.21 701.233 165.572 701.441 165.812C701.656 166.053 702.005 166.174 702.486 166.174C703.229 166.174 703.6 165.839 703.6 165.168ZM707.682 162.375C707.682 160.773 708.059 159.517 708.814 158.605C709.57 157.694 710.615 157.238 711.949 157.238C713.297 157.238 714.348 157.694 715.104 158.605C715.859 159.517 716.236 160.78 716.236 162.395V163.068C716.236 164.676 715.862 165.933 715.113 166.838C714.365 167.743 713.316 168.195 711.969 168.195C710.615 168.195 709.56 167.743 708.805 166.838C708.056 165.926 707.682 164.663 707.682 163.049V162.375ZM710.455 163.068C710.455 164.956 710.96 165.9 711.969 165.9C712.9 165.9 713.401 165.113 713.473 163.537L713.482 162.375C713.482 161.411 713.349 160.699 713.082 160.236C712.815 159.768 712.438 159.533 711.949 159.533C711.48 159.533 711.113 159.768 710.846 160.236C710.585 160.699 710.455 161.411 710.455 162.375V163.068ZM720.865 168H718.092V153H720.865V168ZM728.199 167.033C727.626 167.808 726.858 168.195 725.895 168.195C724.924 168.195 724.189 167.863 723.688 167.199C723.186 166.529 722.936 165.555 722.936 164.279V157.434H725.699V164.348C725.712 165.376 726.054 165.891 726.725 165.891C727.356 165.891 727.812 165.617 728.092 165.07V157.434H730.875V168H728.277L728.199 167.033ZM736.061 154.836V157.434H737.477V159.514H736.061V164.758C736.061 165.174 736.116 165.461 736.227 165.617C736.344 165.773 736.565 165.852 736.891 165.852C737.158 165.852 737.376 165.829 737.545 165.783L737.525 167.932C737.057 168.107 736.549 168.195 736.002 168.195C734.218 168.195 733.316 167.173 733.297 165.129V159.514H732.076V157.434H733.297V154.836H736.061ZM741.9 168H739.127V157.434H741.9V168ZM739 154.699C739 154.27 739.137 153.918 739.41 153.645C739.684 153.371 740.048 153.234 740.504 153.234C740.96 153.234 741.324 153.371 741.598 153.645C741.871 153.918 742.008 154.27 742.008 154.699C742.008 155.122 741.871 155.474 741.598 155.754C741.331 156.034 740.966 156.174 740.504 156.174C740.042 156.174 739.674 156.034 739.4 155.754C739.133 155.474 739 155.122 739 154.699ZM743.717 162.375C743.717 160.773 744.094 159.517 744.85 158.605C745.605 157.694 746.65 157.238 747.984 157.238C749.332 157.238 750.383 157.694 751.139 158.605C751.894 159.517 752.271 160.78 752.271 162.395V163.068C752.271 164.676 751.897 165.933 751.148 166.838C750.4 167.743 749.352 168.195 748.004 168.195C746.65 168.195 745.595 167.743 744.84 166.838C744.091 165.926 743.717 164.663 743.717 163.049V162.375ZM746.49 163.068C746.49 164.956 746.995 165.9 748.004 165.9C748.935 165.9 749.436 165.113 749.508 163.537L749.518 162.375C749.518 161.411 749.384 160.699 749.117 160.236C748.85 159.768 748.473 159.533 747.984 159.533C747.516 159.533 747.148 159.768 746.881 160.236C746.62 160.699 746.49 161.411 746.49 162.375V163.068ZM756.529 157.434L756.607 158.479C757.232 157.652 758.049 157.238 759.059 157.238C760.875 157.238 761.809 158.511 761.861 161.057V168H759.088V161.262C759.088 160.663 758.997 160.23 758.814 159.963C758.639 159.689 758.326 159.553 757.877 159.553C757.376 159.553 756.985 159.81 756.705 160.324V168H753.932V157.434H756.529ZM643.59 187.059C643.59 188.771 643.316 190.057 642.77 190.916C642.223 191.769 641.363 192.195 640.191 192.195C639.273 192.195 638.538 191.782 637.984 190.955L637.896 192H635.348V177H638.111V182.293C638.632 181.59 639.319 181.238 640.172 181.238C641.344 181.238 642.203 181.665 642.75 182.518C643.297 183.364 643.577 184.607 643.59 186.248V187.059ZM640.826 186.365C640.826 185.252 640.719 184.507 640.504 184.129C640.289 183.745 639.915 183.553 639.381 183.553C638.801 183.553 638.378 183.816 638.111 184.344V189.158C638.359 189.653 638.788 189.9 639.4 189.9C639.928 189.9 640.292 189.728 640.494 189.383C640.702 189.038 640.813 188.367 640.826 187.371V186.365ZM649.518 192.195C648.098 192.195 646.992 191.772 646.197 190.926C645.403 190.079 645.006 188.868 645.006 187.293V186.453C645.006 184.786 645.37 183.501 646.1 182.596C646.829 181.691 647.874 181.238 649.234 181.238C650.562 181.238 651.562 181.665 652.232 182.518C652.903 183.364 653.245 184.62 653.258 186.287V187.645H647.76C647.799 188.426 647.971 188.999 648.277 189.363C648.583 189.721 649.055 189.9 649.693 189.9C650.618 189.9 651.389 189.585 652.008 188.953L653.092 190.623C652.753 191.092 652.262 191.473 651.617 191.766C650.973 192.052 650.273 192.195 649.518 192.195ZM647.779 185.711H650.543V185.457C650.53 184.826 650.426 184.347 650.23 184.021C650.035 183.696 649.697 183.533 649.215 183.533C648.733 183.533 648.382 183.706 648.16 184.051C647.945 184.396 647.818 184.949 647.779 185.711ZM664.645 184.1L663.727 184.021C662.971 184.021 662.46 184.354 662.193 185.018V192H659.42V181.434H662.027L662.105 182.576C662.542 181.684 663.144 181.238 663.912 181.238C664.225 181.238 664.479 181.281 664.674 181.365L664.645 184.1ZM670.143 192.195C668.723 192.195 667.617 191.772 666.822 190.926C666.028 190.079 665.631 188.868 665.631 187.293V186.453C665.631 184.786 665.995 183.501 666.725 182.596C667.454 181.691 668.499 181.238 669.859 181.238C671.188 181.238 672.187 181.665 672.857 182.518C673.528 183.364 673.87 184.62 673.883 186.287V187.645H668.385C668.424 188.426 668.596 188.999 668.902 189.363C669.208 189.721 669.68 189.9 670.318 189.9C671.243 189.9 672.014 189.585 672.633 188.953L673.717 190.623C673.378 191.092 672.887 191.473 672.242 191.766C671.598 192.052 670.898 192.195 670.143 192.195ZM668.404 185.711H671.168V185.457C671.155 184.826 671.051 184.347 670.855 184.021C670.66 183.696 670.322 183.533 669.84 183.533C669.358 183.533 669.007 183.706 668.785 184.051C668.57 184.396 668.443 184.949 668.404 185.711ZM676.002 192V183.514H674.723V181.434H676.002V180.955C676.015 179.627 676.376 178.602 677.086 177.879C677.802 177.156 678.821 176.795 680.143 176.795C680.904 176.795 681.839 176.987 682.945 177.371L682.545 179.725C681.751 179.425 681.012 179.275 680.328 179.275C679.306 179.275 678.788 179.839 678.775 180.965V181.434H680.406V183.514H678.775V192H676.002ZM684.205 192H681.432V181.434H684.205V192ZM688.893 181.434L688.971 182.479C689.596 181.652 690.413 181.238 691.422 181.238C693.238 181.238 694.173 182.511 694.225 185.057V192H691.451V185.262C691.451 184.663 691.36 184.23 691.178 183.963C691.002 183.689 690.689 183.553 690.24 183.553C689.739 183.553 689.348 183.81 689.068 184.324V192H686.295V181.434H688.893ZM700.475 192.195C699.055 192.195 697.949 191.772 697.154 190.926C696.36 190.079 695.963 188.868 695.963 187.293V186.453C695.963 184.786 696.327 183.501 697.057 182.596C697.786 181.691 698.831 181.238 700.191 181.238C701.52 181.238 702.519 181.665 703.189 182.518C703.86 183.364 704.202 184.62 704.215 186.287V187.645H698.717C698.756 188.426 698.928 188.999 699.234 189.363C699.54 189.721 700.012 189.9 700.65 189.9C701.575 189.9 702.346 189.585 702.965 188.953L704.049 190.623C703.71 191.092 703.219 191.473 702.574 191.766C701.93 192.052 701.23 192.195 700.475 192.195ZM698.736 185.711H701.5V185.457C701.487 184.826 701.383 184.347 701.188 184.021C700.992 183.696 700.654 183.533 700.172 183.533C699.69 183.533 699.339 183.706 699.117 184.051C698.902 184.396 698.775 184.949 698.736 185.711ZM705.406 186.395C705.406 184.663 705.699 183.37 706.285 182.518C706.871 181.665 707.724 181.238 708.844 181.238C709.658 181.238 710.335 181.59 710.875 182.293V177H713.658V192H711.148L711.021 190.926C710.455 191.772 709.726 192.195 708.834 192.195C707.727 192.195 706.881 191.772 706.295 190.926C705.715 190.079 705.419 188.836 705.406 187.195V186.395ZM708.18 187.088C708.18 188.13 708.29 188.859 708.512 189.275C708.733 189.686 709.107 189.891 709.635 189.891C710.182 189.891 710.595 189.646 710.875 189.158V184.334C710.602 183.813 710.191 183.553 709.645 183.553C709.137 183.553 708.766 183.758 708.531 184.168C708.297 184.578 708.18 185.307 708.18 186.355V187.088ZM717.662 187.625C717.662 186.714 717.75 185.991 717.926 185.457C718.108 184.917 718.43 184.402 718.893 183.914C719.381 183.374 719.706 182.931 719.869 182.586C720.032 182.241 720.113 181.893 720.113 181.541C720.113 180.454 719.762 179.91 719.059 179.91C718.746 179.91 718.486 180.06 718.277 180.359C718.069 180.659 717.958 181.062 717.945 181.57H715.182C715.195 180.307 715.546 179.327 716.236 178.631C716.933 177.934 717.874 177.586 719.059 177.586C720.27 177.586 721.21 177.924 721.881 178.602C722.551 179.272 722.887 180.213 722.887 181.424C722.887 182.426 722.473 183.41 721.646 184.373L720.836 185.291C720.569 185.61 720.38 185.942 720.27 186.287C720.159 186.626 720.097 187.072 720.084 187.625H717.662ZM717.408 190.613C717.408 190.171 717.548 189.809 717.828 189.529C718.115 189.249 718.476 189.109 718.912 189.109C719.361 189.109 719.726 189.253 720.006 189.539C720.286 189.819 720.426 190.177 720.426 190.613C720.426 191.043 720.289 191.401 720.016 191.688C719.742 191.974 719.374 192.117 718.912 192.117C718.456 192.117 718.092 191.974 717.818 191.688C717.545 191.401 717.408 191.043 717.408 190.613Z" fill="white"/>
<path d="M162.078 162.717L163.426 153.781H166.268L163.738 168H160.857L159.197 159.621L157.557 168H154.666L152.127 153.781H154.988L156.326 162.707L157.996 153.781H160.408L162.078 162.717ZM170.379 158.361C170.978 157.613 171.714 157.238 172.586 157.238C173.549 157.238 174.282 157.577 174.783 158.254C175.285 158.931 175.538 159.94 175.545 161.281V168H172.771V161.311C172.771 160.692 172.674 160.246 172.479 159.973C172.29 159.693 171.98 159.553 171.551 159.553C171.049 159.553 170.659 159.784 170.379 160.246V168H167.615V153H170.379V158.361ZM182.547 168C182.469 167.837 182.391 167.564 182.312 167.18C181.818 167.857 181.147 168.195 180.301 168.195C179.415 168.195 178.68 167.902 178.094 167.316C177.514 166.73 177.225 165.972 177.225 165.041C177.225 163.934 177.576 163.078 178.279 162.473C178.989 161.867 180.008 161.558 181.336 161.545H182.176V160.695C182.176 160.22 182.094 159.885 181.932 159.689C181.769 159.494 181.531 159.396 181.219 159.396C180.529 159.396 180.184 159.8 180.184 160.607H177.42C177.42 159.631 177.785 158.827 178.514 158.195C179.249 157.557 180.177 157.238 181.297 157.238C182.456 157.238 183.351 157.541 183.982 158.146C184.62 158.745 184.939 159.605 184.939 160.725V165.695C184.952 166.607 185.083 167.32 185.33 167.834V168H182.547ZM180.916 166.027C181.222 166.027 181.482 165.965 181.697 165.842C181.912 165.718 182.072 165.572 182.176 165.402V163.205H181.512C181.043 163.205 180.672 163.355 180.398 163.654C180.132 163.954 179.998 164.354 179.998 164.855C179.998 165.637 180.304 166.027 180.916 166.027ZM190.154 154.836V157.434H191.57V159.514H190.154V164.758C190.154 165.174 190.21 165.461 190.32 165.617C190.438 165.773 190.659 165.852 190.984 165.852C191.251 165.852 191.469 165.829 191.639 165.783L191.619 167.932C191.15 168.107 190.643 168.195 190.096 168.195C188.312 168.195 187.41 167.173 187.391 165.129V159.514H186.17V157.434H187.391V154.836H190.154ZM202.723 168C202.645 167.837 202.566 167.564 202.488 167.18C201.993 167.857 201.323 168.195 200.477 168.195C199.591 168.195 198.855 167.902 198.27 167.316C197.69 166.73 197.4 165.972 197.4 165.041C197.4 163.934 197.752 163.078 198.455 162.473C199.165 161.867 200.184 161.558 201.512 161.545H202.352V160.695C202.352 160.22 202.27 159.885 202.107 159.689C201.945 159.494 201.707 159.396 201.395 159.396C200.704 159.396 200.359 159.8 200.359 160.607H197.596C197.596 159.631 197.96 158.827 198.689 158.195C199.425 157.557 200.353 157.238 201.473 157.238C202.632 157.238 203.527 157.541 204.158 158.146C204.796 158.745 205.115 159.605 205.115 160.725V165.695C205.128 166.607 205.258 167.32 205.506 167.834V168H202.723ZM201.092 166.027C201.398 166.027 201.658 165.965 201.873 165.842C202.088 165.718 202.247 165.572 202.352 165.402V163.205H201.688C201.219 163.205 200.848 163.355 200.574 163.654C200.307 163.954 200.174 164.354 200.174 164.855C200.174 165.637 200.48 166.027 201.092 166.027ZM212.332 160.1L211.414 160.021C210.659 160.021 210.148 160.354 209.881 161.018V168H207.107V157.434H209.715L209.793 158.576C210.229 157.684 210.831 157.238 211.6 157.238C211.912 157.238 212.166 157.281 212.361 157.365L212.332 160.1ZM217.83 168.195C216.411 168.195 215.304 167.772 214.51 166.926C213.715 166.079 213.318 164.868 213.318 163.293V162.453C213.318 160.786 213.683 159.501 214.412 158.596C215.141 157.691 216.186 157.238 217.547 157.238C218.875 157.238 219.874 157.665 220.545 158.518C221.215 159.364 221.557 160.62 221.57 162.287V163.645H216.072C216.111 164.426 216.284 164.999 216.59 165.363C216.896 165.721 217.368 165.9 218.006 165.9C218.93 165.9 219.702 165.585 220.32 164.953L221.404 166.623C221.066 167.092 220.574 167.473 219.93 167.766C219.285 168.052 218.585 168.195 217.83 168.195ZM216.092 161.711H218.855V161.457C218.842 160.826 218.738 160.347 218.543 160.021C218.348 159.696 218.009 159.533 217.527 159.533C217.046 159.533 216.694 159.706 216.473 160.051C216.258 160.396 216.131 160.949 216.092 161.711ZM230.955 154.836V157.434H232.371V159.514H230.955V164.758C230.955 165.174 231.01 165.461 231.121 165.617C231.238 165.773 231.46 165.852 231.785 165.852C232.052 165.852 232.27 165.829 232.439 165.783L232.42 167.932C231.951 168.107 231.443 168.195 230.896 168.195C229.113 168.195 228.211 167.173 228.191 165.129V159.514H226.971V157.434H228.191V154.836H230.955ZM236.59 158.361C237.189 157.613 237.924 157.238 238.797 157.238C239.76 157.238 240.493 157.577 240.994 158.254C241.495 158.931 241.749 159.94 241.756 161.281V168H238.982V161.311C238.982 160.692 238.885 160.246 238.689 159.973C238.501 159.693 238.191 159.553 237.762 159.553C237.26 159.553 236.87 159.784 236.59 160.246V168H233.826V153H236.59V158.361ZM248.006 168.195C246.587 168.195 245.48 167.772 244.686 166.926C243.891 166.079 243.494 164.868 243.494 163.293V162.453C243.494 160.786 243.859 159.501 244.588 158.596C245.317 157.691 246.362 157.238 247.723 157.238C249.051 157.238 250.05 157.665 250.721 158.518C251.391 159.364 251.733 160.62 251.746 162.287V163.645H246.248C246.287 164.426 246.46 164.999 246.766 165.363C247.072 165.721 247.544 165.9 248.182 165.9C249.106 165.9 249.878 165.585 250.496 164.953L251.58 166.623C251.242 167.092 250.75 167.473 250.105 167.766C249.461 168.052 248.761 168.195 248.006 168.195ZM246.268 161.711H249.031V161.457C249.018 160.826 248.914 160.347 248.719 160.021C248.523 159.696 248.185 159.533 247.703 159.533C247.221 159.533 246.87 159.706 246.648 160.051C246.434 160.396 246.307 160.949 246.268 161.711ZM169.461 187.049C169.461 188.709 169.174 189.982 168.602 190.867C168.035 191.753 167.189 192.195 166.062 192.195C165.203 192.195 164.513 191.847 163.992 191.15V196.062H161.229V181.434H163.787L163.885 182.4C164.412 181.626 165.132 181.238 166.043 181.238C167.169 181.238 168.016 181.648 168.582 182.469C169.155 183.289 169.448 184.546 169.461 186.238V187.049ZM166.707 186.355C166.707 185.333 166.593 184.611 166.365 184.188C166.144 183.764 165.766 183.553 165.232 183.553C164.666 183.553 164.253 183.79 163.992 184.266V189.217C164.24 189.673 164.66 189.9 165.252 189.9C165.799 189.9 166.176 189.669 166.385 189.207C166.6 188.745 166.707 188.025 166.707 187.049V186.355ZM176.346 184.1L175.428 184.021C174.673 184.021 174.161 184.354 173.895 185.018V192H171.121V181.434H173.729L173.807 182.576C174.243 181.684 174.845 181.238 175.613 181.238C175.926 181.238 176.18 181.281 176.375 181.365L176.346 184.1ZM177.098 186.375C177.098 184.773 177.475 183.517 178.23 182.605C178.986 181.694 180.031 181.238 181.365 181.238C182.713 181.238 183.764 181.694 184.52 182.605C185.275 183.517 185.652 184.78 185.652 186.395V187.068C185.652 188.676 185.278 189.933 184.529 190.838C183.781 191.743 182.732 192.195 181.385 192.195C180.031 192.195 178.976 191.743 178.221 190.838C177.472 189.926 177.098 188.663 177.098 187.049V186.375ZM179.871 187.068C179.871 188.956 180.376 189.9 181.385 189.9C182.316 189.9 182.817 189.113 182.889 187.537L182.898 186.375C182.898 185.411 182.765 184.699 182.498 184.236C182.231 183.768 181.854 183.533 181.365 183.533C180.896 183.533 180.529 183.768 180.262 184.236C180.001 184.699 179.871 185.411 179.871 186.375V187.068ZM195.623 187.059C195.623 188.771 195.35 190.057 194.803 190.916C194.256 191.769 193.396 192.195 192.225 192.195C191.307 192.195 190.571 191.782 190.018 190.955L189.93 192H187.381V177H190.145V182.293C190.665 181.59 191.352 181.238 192.205 181.238C193.377 181.238 194.236 181.665 194.783 182.518C195.33 183.364 195.61 184.607 195.623 186.248V187.059ZM192.859 186.365C192.859 185.252 192.752 184.507 192.537 184.129C192.322 183.745 191.948 183.553 191.414 183.553C190.835 183.553 190.411 183.816 190.145 184.344V189.158C190.392 189.653 190.822 189.9 191.434 189.9C191.961 189.9 192.326 189.728 192.527 189.383C192.736 189.038 192.846 188.367 192.859 187.371V186.365ZM200.184 192H197.41V177H200.184V192ZM206.59 192.195C205.171 192.195 204.064 191.772 203.27 190.926C202.475 190.079 202.078 188.868 202.078 187.293V186.453C202.078 184.786 202.443 183.501 203.172 182.596C203.901 181.691 204.946 181.238 206.307 181.238C207.635 181.238 208.634 181.665 209.305 182.518C209.975 183.364 210.317 184.62 210.33 186.287V187.645H204.832C204.871 188.426 205.044 188.999 205.35 189.363C205.656 189.721 206.128 189.9 206.766 189.9C207.69 189.9 208.462 189.585 209.08 188.953L210.164 190.623C209.826 191.092 209.334 191.473 208.689 191.766C208.045 192.052 207.345 192.195 206.59 192.195ZM204.852 185.711H207.615V185.457C207.602 184.826 207.498 184.347 207.303 184.021C207.107 183.696 206.769 183.533 206.287 183.533C205.805 183.533 205.454 183.706 205.232 184.051C205.018 184.396 204.891 184.949 204.852 185.711ZM214.49 181.434L214.568 182.41C215.187 181.629 216.004 181.238 217.02 181.238C218.074 181.238 218.82 181.714 219.256 182.664C219.861 181.714 220.724 181.238 221.844 181.238C223.693 181.238 224.64 182.518 224.686 185.076V192H221.922V185.252C221.922 184.64 221.837 184.204 221.668 183.943C221.499 183.683 221.212 183.553 220.809 183.553C220.294 183.553 219.91 183.868 219.656 184.5L219.676 184.832V192H216.912V185.271C216.912 184.666 216.831 184.23 216.668 183.963C216.505 183.689 216.215 183.553 215.799 183.553C215.324 183.553 214.946 183.81 214.666 184.324V192H211.902V181.434H214.49ZM231.414 189.168C231.414 188.934 231.3 188.719 231.072 188.523C230.851 188.322 230.353 188.051 229.578 187.713C228.439 187.251 227.654 186.772 227.225 186.277C226.801 185.783 226.59 185.167 226.59 184.432C226.59 183.507 226.922 182.745 227.586 182.146C228.257 181.541 229.142 181.238 230.242 181.238C231.401 181.238 232.329 181.538 233.025 182.137C233.722 182.736 234.07 183.54 234.07 184.549H231.307C231.307 183.689 230.949 183.26 230.232 183.26C229.939 183.26 229.699 183.351 229.51 183.533C229.321 183.715 229.227 183.969 229.227 184.295C229.227 184.529 229.331 184.738 229.539 184.92C229.747 185.096 230.239 185.35 231.014 185.682C232.14 186.098 232.934 186.564 233.396 187.078C233.865 187.586 234.1 188.247 234.1 189.061C234.1 190.005 233.745 190.763 233.035 191.336C232.326 191.909 231.395 192.195 230.242 192.195C229.467 192.195 228.784 192.046 228.191 191.746C227.599 191.44 227.133 191.017 226.795 190.477C226.463 189.936 226.297 189.354 226.297 188.729H228.924C228.937 189.21 229.048 189.572 229.256 189.812C229.471 190.053 229.819 190.174 230.301 190.174C231.043 190.174 231.414 189.839 231.414 189.168ZM237.781 187.625C237.781 186.714 237.869 185.991 238.045 185.457C238.227 184.917 238.549 184.402 239.012 183.914C239.5 183.374 239.826 182.931 239.988 182.586C240.151 182.241 240.232 181.893 240.232 181.541C240.232 180.454 239.881 179.91 239.178 179.91C238.865 179.91 238.605 180.06 238.396 180.359C238.188 180.659 238.077 181.062 238.064 181.57H235.301C235.314 180.307 235.665 179.327 236.355 178.631C237.052 177.934 237.993 177.586 239.178 177.586C240.389 177.586 241.329 177.924 242 178.602C242.671 179.272 243.006 180.213 243.006 181.424C243.006 182.426 242.592 183.41 241.766 184.373L240.955 185.291C240.688 185.61 240.499 185.942 240.389 186.287C240.278 186.626 240.216 187.072 240.203 187.625H237.781ZM237.527 190.613C237.527 190.171 237.667 189.809 237.947 189.529C238.234 189.249 238.595 189.109 239.031 189.109C239.48 189.109 239.845 189.253 240.125 189.539C240.405 189.819 240.545 190.177 240.545 190.613C240.545 191.043 240.408 191.401 240.135 191.688C239.861 191.974 239.493 192.117 239.031 192.117C238.576 192.117 238.211 191.974 237.938 191.688C237.664 191.401 237.527 191.043 237.527 190.613Z" fill="white"/>
<path d="M809.988 161.99V167H808.38V154.203H812.458C813.647 154.203 814.582 154.561 815.262 155.275C815.941 155.984 816.281 156.931 816.281 158.114C816.281 159.345 815.956 160.294 815.306 160.962C814.661 161.624 813.75 161.967 812.572 161.99H809.988ZM809.988 160.61H812.458C813.173 160.61 813.721 160.396 814.102 159.969C814.482 159.541 814.673 158.929 814.673 158.132C814.673 157.364 814.477 156.749 814.084 156.286C813.691 155.823 813.152 155.592 812.467 155.592H809.988V160.61ZM822.073 158.949C821.856 158.908 821.622 158.888 821.37 158.888C820.573 158.888 820.017 159.324 819.7 160.197V167H818.145V157.49H819.656L819.683 158.457C820.099 157.695 820.688 157.314 821.449 157.314C821.695 157.314 821.9 157.355 822.064 157.438L822.073 158.949ZM823.128 161.806C823.128 160.423 823.462 159.33 824.13 158.527C824.804 157.719 825.691 157.314 826.793 157.314C827.895 157.314 828.779 157.707 829.447 158.492C830.121 159.277 830.467 160.347 830.484 161.7V162.702C830.484 164.079 830.15 165.169 829.482 165.972C828.814 166.774 827.924 167.176 826.811 167.176C825.709 167.176 824.824 166.786 824.156 166.007C823.494 165.228 823.151 164.173 823.128 162.843V161.806ZM824.684 162.702C824.684 163.681 824.874 164.451 825.255 165.014C825.642 165.57 826.16 165.849 826.811 165.849C828.182 165.849 828.888 164.858 828.929 162.878V161.806C828.929 160.833 828.735 160.065 828.349 159.503C827.962 158.935 827.443 158.65 826.793 158.65C826.154 158.65 825.642 158.935 825.255 159.503C824.874 160.065 824.684 160.83 824.684 161.797V162.702ZM832.163 161.814C832.163 160.35 832.436 159.233 832.98 158.466C833.531 157.698 834.319 157.314 835.345 157.314C836.253 157.314 836.962 157.684 837.472 158.422V153.5H839.027V167H837.604L837.524 165.98C837.015 166.777 836.285 167.176 835.336 167.176C834.352 167.176 833.578 166.795 833.016 166.033C832.459 165.266 832.175 164.185 832.163 162.79V161.814ZM833.719 162.702C833.719 163.769 833.877 164.554 834.193 165.058C834.51 165.556 835.025 165.805 835.74 165.805C836.514 165.805 837.091 165.415 837.472 164.636V159.837C837.073 159.075 836.499 158.694 835.749 158.694C835.034 158.694 834.519 158.946 834.202 159.45C833.886 159.948 833.725 160.716 833.719 161.753V162.702ZM846.27 166.165C845.754 166.839 845.001 167.176 844.011 167.176C843.149 167.176 842.499 166.88 842.06 166.288C841.62 165.69 841.397 164.823 841.392 163.687V157.49H842.938V163.572C842.938 165.055 843.384 165.796 844.274 165.796C845.218 165.796 845.868 165.374 846.226 164.53V157.49H847.781V167H846.305L846.27 166.165ZM853.424 165.849C853.939 165.849 854.353 165.69 854.663 165.374C854.974 165.052 855.144 164.595 855.173 164.003H856.641C856.605 164.917 856.28 165.676 855.665 166.279C855.056 166.877 854.309 167.176 853.424 167.176C852.246 167.176 851.347 166.807 850.726 166.068C850.11 165.324 849.803 164.22 849.803 162.755V161.709C849.803 160.273 850.11 159.184 850.726 158.439C851.341 157.689 852.237 157.314 853.415 157.314C854.388 157.314 855.158 157.622 855.727 158.237C856.301 158.853 856.605 159.693 856.641 160.76H855.173C855.138 160.057 854.968 159.529 854.663 159.178C854.364 158.826 853.948 158.65 853.415 158.65C852.724 158.65 852.211 158.879 851.877 159.336C851.543 159.787 851.37 160.531 851.358 161.568V162.781C851.358 163.9 851.522 164.691 851.851 165.154C852.185 165.617 852.709 165.849 853.424 165.849ZM860.473 155.188V157.49H861.905V158.747H860.473V164.645C860.473 165.02 860.534 165.304 860.657 165.497C860.78 165.69 860.991 165.787 861.29 165.787C861.495 165.787 861.703 165.752 861.914 165.682L861.896 167C861.545 167.117 861.185 167.176 860.815 167.176C860.2 167.176 859.731 166.956 859.409 166.517C859.087 166.077 858.926 165.456 858.926 164.653V158.747H857.476V157.49H858.926V155.188H860.473ZM809.988 185.99V191H808.38V178.203H812.458C813.647 178.203 814.582 178.561 815.262 179.275C815.941 179.984 816.281 180.931 816.281 182.114C816.281 183.345 815.956 184.294 815.306 184.962C814.661 185.624 813.75 185.967 812.572 185.99H809.988ZM809.988 184.61H812.458C813.173 184.61 813.721 184.396 814.102 183.969C814.482 183.541 814.673 182.929 814.673 182.132C814.673 181.364 814.477 180.749 814.084 180.286C813.691 179.823 813.152 179.592 812.467 179.592H809.988V184.61ZM822.073 182.949C821.856 182.908 821.622 182.888 821.37 182.888C820.573 182.888 820.017 183.324 819.7 184.197V191H818.145V181.49H819.656L819.683 182.457C820.099 181.695 820.688 181.314 821.449 181.314C821.695 181.314 821.9 181.355 822.064 181.438L822.073 182.949ZM823.128 185.806C823.128 184.423 823.462 183.33 824.13 182.527C824.804 181.719 825.691 181.314 826.793 181.314C827.895 181.314 828.779 181.707 829.447 182.492C830.121 183.277 830.467 184.347 830.484 185.7V186.702C830.484 188.079 830.15 189.169 829.482 189.972C828.814 190.774 827.924 191.176 826.811 191.176C825.709 191.176 824.824 190.786 824.156 190.007C823.494 189.228 823.151 188.173 823.128 186.843V185.806ZM824.684 186.702C824.684 187.681 824.874 188.451 825.255 189.014C825.642 189.57 826.16 189.849 826.811 189.849C828.182 189.849 828.888 188.858 828.929 186.878V185.806C828.929 184.833 828.735 184.065 828.349 183.503C827.962 182.935 827.443 182.65 826.793 182.65C826.154 182.65 825.642 182.935 825.255 183.503C824.874 184.065 824.684 184.83 824.684 185.797V186.702ZM839.361 186.702C839.361 188.208 839.089 189.33 838.544 190.068C838.005 190.807 837.24 191.176 836.25 191.176C835.295 191.176 834.56 190.815 834.044 190.095V194.656H832.497V181.49H833.903L833.982 182.545C834.504 181.725 835.251 181.314 836.224 181.314C837.267 181.314 838.046 181.678 838.562 182.404C839.077 183.131 839.344 184.218 839.361 185.665V186.702ZM837.814 185.814C837.814 184.748 837.65 183.963 837.322 183.459C836.994 182.949 836.467 182.694 835.74 182.694C834.996 182.694 834.431 183.066 834.044 183.811V188.759C834.425 189.485 834.996 189.849 835.758 189.849C836.461 189.849 836.977 189.597 837.305 189.093C837.639 188.583 837.809 187.807 837.814 186.764V185.814ZM841.04 185.806C841.04 184.423 841.374 183.33 842.042 182.527C842.716 181.719 843.604 181.314 844.705 181.314C845.807 181.314 846.691 181.707 847.359 182.492C848.033 183.277 848.379 184.347 848.396 185.7V186.702C848.396 188.079 848.062 189.169 847.395 189.972C846.727 190.774 845.836 191.176 844.723 191.176C843.621 191.176 842.736 190.786 842.068 190.007C841.406 189.228 841.063 188.173 841.04 186.843V185.806ZM842.596 186.702C842.596 187.681 842.786 188.451 843.167 189.014C843.554 189.57 844.072 189.849 844.723 189.849C846.094 189.849 846.8 188.858 846.841 186.878V185.806C846.841 184.833 846.647 184.065 846.261 183.503C845.874 182.935 845.355 182.65 844.705 182.65C844.066 182.65 843.554 182.935 843.167 183.503C842.786 184.065 842.596 184.83 842.596 185.797V186.702ZM855.023 188.565C855.023 188.231 854.897 187.944 854.646 187.704C854.394 187.464 853.907 187.183 853.187 186.86C852.349 186.515 851.757 186.219 851.411 185.973C851.071 185.727 850.816 185.448 850.646 185.138C850.477 184.821 850.392 184.446 850.392 184.013C850.392 183.239 850.673 182.598 851.235 182.088C851.804 181.572 852.527 181.314 853.406 181.314C854.332 181.314 855.076 181.584 855.639 182.123C856.201 182.662 856.482 183.354 856.482 184.197H854.936C854.936 183.77 854.792 183.406 854.505 183.107C854.218 182.803 853.852 182.65 853.406 182.65C852.949 182.65 852.589 182.771 852.325 183.011C852.067 183.245 851.938 183.562 851.938 183.96C851.938 184.276 852.032 184.531 852.22 184.725C852.413 184.918 852.873 185.173 853.6 185.489C854.754 185.94 855.539 186.383 855.955 186.816C856.371 187.244 856.579 187.789 856.579 188.451C856.579 189.277 856.295 189.939 855.727 190.438C855.158 190.93 854.396 191.176 853.441 191.176C852.451 191.176 851.648 190.892 851.033 190.323C850.418 189.755 850.11 189.034 850.11 188.161H851.675C851.692 188.688 851.854 189.102 852.158 189.4C852.463 189.699 852.891 189.849 853.441 189.849C853.957 189.849 854.35 189.734 854.619 189.506C854.889 189.271 855.023 188.958 855.023 188.565ZM860.288 191H858.732V181.49H860.288V191ZM860.411 178.968C860.411 179.231 860.338 179.451 860.191 179.627C860.045 179.803 859.822 179.891 859.523 179.891C859.23 179.891 859.011 179.803 858.864 179.627C858.718 179.451 858.645 179.231 858.645 178.968C858.645 178.704 858.718 178.481 858.864 178.3C859.011 178.118 859.23 178.027 859.523 178.027C859.816 178.027 860.036 178.121 860.183 178.309C860.335 178.49 860.411 178.71 860.411 178.968ZM864.779 179.188V181.49H866.212V182.747H864.779V188.645C864.779 189.02 864.841 189.304 864.964 189.497C865.087 189.69 865.298 189.787 865.597 189.787C865.802 189.787 866.01 189.752 866.221 189.682L866.203 191C865.852 191.117 865.491 191.176 865.122 191.176C864.507 191.176 864.038 190.956 863.716 190.517C863.394 190.077 863.232 189.456 863.232 188.653V182.747H861.782V181.49H863.232V179.188H864.779ZM869.745 191H868.189V181.49H869.745V191ZM869.868 178.968C869.868 179.231 869.795 179.451 869.648 179.627C869.502 179.803 869.279 179.891 868.98 179.891C868.688 179.891 868.468 179.803 868.321 179.627C868.175 179.451 868.102 179.231 868.102 178.968C868.102 178.704 868.175 178.481 868.321 178.3C868.468 178.118 868.688 178.027 868.98 178.027C869.273 178.027 869.493 178.121 869.64 178.309C869.792 178.49 869.868 178.71 869.868 178.968ZM871.872 185.806C871.872 184.423 872.206 183.33 872.874 182.527C873.548 181.719 874.436 181.314 875.537 181.314C876.639 181.314 877.523 181.707 878.191 182.492C878.865 183.277 879.211 184.347 879.229 185.7V186.702C879.229 188.079 878.895 189.169 878.227 189.972C877.559 190.774 876.668 191.176 875.555 191.176C874.453 191.176 873.568 190.786 872.9 190.007C872.238 189.228 871.896 188.173 871.872 186.843V185.806ZM873.428 186.702C873.428 187.681 873.618 188.451 873.999 189.014C874.386 189.57 874.904 189.849 875.555 189.849C876.926 189.849 877.632 188.858 877.673 186.878V185.806C877.673 184.833 877.479 184.065 877.093 183.503C876.706 182.935 876.188 182.65 875.537 182.65C874.898 182.65 874.386 182.935 873.999 183.503C873.618 184.065 873.428 184.83 873.428 185.797V186.702ZM882.7 181.49L882.744 182.519C883.348 181.716 884.118 181.314 885.056 181.314C886.737 181.314 887.59 182.437 887.613 184.681V191H886.066V184.751C886.066 184.007 885.94 183.479 885.688 183.169C885.442 182.853 885.07 182.694 884.572 182.694C884.186 182.694 883.837 182.823 883.526 183.081C883.222 183.339 882.976 183.676 882.788 184.092V191H881.232V181.49H882.7Z" fill="white"/>
<path d="M407.172 13.0391H401.816V20H398.371V2.9375H407.816V5.80859H401.816V10.1797H407.172V13.0391ZM414.953 13.7656H413.242V20H409.797V2.9375H415.293C417.02 2.9375 418.352 3.38672 419.289 4.28516C420.234 5.17578 420.707 6.44531 420.707 8.09375C420.707 10.3594 419.883 11.9453 418.234 12.8516L421.223 19.8359V20H417.52L414.953 13.7656ZM413.242 10.8945H415.199C415.887 10.8945 416.402 10.668 416.746 10.2148C417.09 9.75391 417.262 9.14062 417.262 8.375C417.262 6.66406 416.594 5.80859 415.258 5.80859H413.242V10.8945ZM431.219 16.5078H426.52L425.605 20H421.961L427.293 2.9375H430.445L435.812 20H432.133L431.219 16.5078ZM427.27 13.6367H430.457L428.863 7.55469L427.27 13.6367ZM441.918 2.9375L445.141 15.2773L448.352 2.9375H452.852V20H449.395V15.3828L449.711 8.26953L446.301 20H443.957L440.547 8.26953L440.863 15.3828V20H437.418V2.9375H441.918ZM459.227 20H455.781V2.9375H459.227V20ZM474.051 20H470.605L465.566 8.80859V20H462.121V2.9375H465.566L470.617 14.1406V2.9375H474.051V20ZM488.418 18.0664C487.754 18.7852 486.938 19.3281 485.969 19.6953C485.008 20.0547 483.953 20.2344 482.805 20.2344C480.844 20.2344 479.32 19.6289 478.234 18.418C477.148 17.1992 476.59 15.4297 476.559 13.1094V10.0391C476.559 7.6875 477.07 5.87891 478.094 4.61328C479.125 3.33984 480.625 2.70312 482.594 2.70312C484.445 2.70312 485.84 3.16016 486.777 4.07422C487.723 4.98828 488.27 6.42187 488.418 8.375H485.066C484.973 7.28906 484.746 6.55078 484.387 6.16016C484.027 5.76172 483.465 5.5625 482.699 5.5625C481.77 5.5625 481.094 5.90234 480.672 6.58203C480.25 7.26172 480.031 8.34375 480.016 9.82812V12.9219C480.016 14.4766 480.246 15.6094 480.707 16.3203C481.176 17.0234 481.941 17.375 483.004 17.375C483.684 17.375 484.234 17.2383 484.656 16.9648L484.961 16.7539V13.625H482.547V11.0234H488.418V18.0664Z" fill="#FF9900"/>
<path d="M639.371 20V2.9375H643.883C645.875 2.9375 647.461 3.57031 648.641 4.83594C649.828 6.10156 650.434 7.83594 650.457 10.0391V12.8047C650.457 15.0469 649.863 16.8086 648.676 18.0898C647.496 19.3633 645.867 20 643.789 20H639.371ZM642.816 5.80859V17.1406H643.848C644.996 17.1406 645.805 16.8398 646.273 16.2383C646.742 15.6289 646.988 14.582 647.012 13.0977V10.1328C647.012 8.53906 646.789 7.42969 646.344 6.80469C645.898 6.17188 645.141 5.83984 644.07 5.80859H642.816ZM661.754 12.6172H656.387V17.1406H662.738V20H652.941V2.9375H662.715V5.80859H656.387V9.83984H661.754V12.6172ZM668.176 17.1406H674.223V20H664.73V2.9375H668.176V17.1406ZM679.812 20H676.367V2.9375H679.812V20ZM688.262 15.3125L691.133 2.9375H694.977L690.055 20H686.469L681.582 2.9375H685.402L688.262 15.3125ZM705.395 12.6172H700.027V17.1406H706.379V20H696.582V2.9375H706.355V5.80859H700.027V9.83984H705.395V12.6172ZM713.539 13.7656H711.828V20H708.383V2.9375H713.879C715.605 2.9375 716.938 3.38672 717.875 4.28516C718.82 5.17578 719.293 6.44531 719.293 8.09375C719.293 10.3594 718.469 11.9453 716.82 12.8516L719.809 19.8359V20H716.105L713.539 13.7656ZM711.828 10.8945H713.785C714.473 10.8945 714.988 10.668 715.332 10.2148C715.676 9.75391 715.848 9.14062 715.848 8.375C715.848 6.66406 715.18 5.80859 713.844 5.80859H711.828V10.8945ZM726.242 10.6016L728.809 2.9375H732.559L727.988 13.8125V20H724.496V13.8125L719.914 2.9375H723.664L726.242 10.6016Z" fill="#FF9900"/>
<path d="M150.371 20V2.9375H154.883C156.875 2.9375 158.461 3.57031 159.641 4.83594C160.828 6.10156 161.434 7.83594 161.457 10.0391V12.8047C161.457 15.0469 160.863 16.8086 159.676 18.0898C158.496 19.3633 156.867 20 154.789 20H150.371ZM153.816 5.80859V17.1406H154.848C155.996 17.1406 156.805 16.8398 157.273 16.2383C157.742 15.6289 157.988 14.582 158.012 13.0977V10.1328C158.012 8.53906 157.789 7.42969 157.344 6.80469C156.898 6.17188 156.141 5.83984 155.07 5.80859H153.816ZM167.539 20H164.094V2.9375H167.539V20ZM177.641 15.5234C177.641 14.8281 177.461 14.3047 177.102 13.9531C176.75 13.5938 176.105 13.2227 175.168 12.8398C173.457 12.1914 172.227 11.4336 171.477 10.5664C170.727 9.69141 170.352 8.66016 170.352 7.47266C170.352 6.03516 170.859 4.88281 171.875 4.01562C172.898 3.14062 174.195 2.70312 175.766 2.70312C176.812 2.70312 177.746 2.92578 178.566 3.37109C179.387 3.80859 180.016 4.42969 180.453 5.23438C180.898 6.03906 181.121 6.95313 181.121 7.97656H177.688C177.688 7.17969 177.516 6.57422 177.172 6.16016C176.836 5.73828 176.348 5.52734 175.707 5.52734C175.105 5.52734 174.637 5.70703 174.301 6.06641C173.965 6.41797 173.797 6.89453 173.797 7.49609C173.797 7.96484 173.984 8.39062 174.359 8.77344C174.734 9.14844 175.398 9.53906 176.352 9.94531C178.016 10.5469 179.223 11.2852 179.973 12.1602C180.73 13.0352 181.109 14.1484 181.109 15.5C181.109 16.9844 180.637 18.1445 179.691 18.9805C178.746 19.8164 177.461 20.2344 175.836 20.2344C174.734 20.2344 173.73 20.0078 172.824 19.5547C171.918 19.1016 171.207 18.4531 170.691 17.6094C170.184 16.7656 169.93 15.7695 169.93 14.6211H173.387C173.387 15.6055 173.578 16.3203 173.961 16.7656C174.344 17.2109 174.969 17.4336 175.836 17.4336C177.039 17.4336 177.641 16.7969 177.641 15.5234ZM194.961 14.3164C194.875 16.2617 194.328 17.7344 193.32 18.7344C192.312 19.7344 190.891 20.2344 189.055 20.2344C187.125 20.2344 185.645 19.6016 184.613 18.3359C183.59 17.0625 183.078 15.25 183.078 12.8984V10.0273C183.078 7.68359 183.609 5.87891 184.672 4.61328C185.734 3.33984 187.211 2.70312 189.102 2.70312C190.961 2.70312 192.371 3.22266 193.332 4.26172C194.301 5.30078 194.852 6.79297 194.984 8.73828H191.527C191.496 7.53516 191.309 6.70703 190.965 6.25391C190.629 5.79297 190.008 5.5625 189.102 5.5625C188.18 5.5625 187.527 5.88672 187.145 6.53516C186.762 7.17578 186.559 8.23438 186.535 9.71094V12.9336C186.535 14.6289 186.723 15.793 187.098 16.4258C187.48 17.0586 188.133 17.375 189.055 17.375C189.961 17.375 190.586 17.1562 190.93 16.7188C191.273 16.2734 191.469 15.4727 191.516 14.3164H194.961ZM209.094 13.0039C209.094 15.293 208.551 17.0703 207.465 18.3359C206.387 19.6016 204.887 20.2344 202.965 20.2344C201.051 20.2344 199.547 19.6094 198.453 18.3594C197.359 17.1016 196.805 15.3438 196.789 13.0859V10.168C196.789 7.82422 197.332 5.99609 198.418 4.68359C199.504 3.36328 201.012 2.70312 202.941 2.70312C204.84 2.70312 206.336 3.35156 207.43 4.64844C208.523 5.9375 209.078 7.75 209.094 10.0859V13.0039ZM205.637 10.1445C205.637 8.60547 205.418 7.46094 204.98 6.71094C204.543 5.96094 203.863 5.58594 202.941 5.58594C202.027 5.58594 201.352 5.94922 200.914 6.67578C200.477 7.39453 200.25 8.49219 200.234 9.96875V13.0039C200.234 14.4961 200.457 15.5977 200.902 16.3086C201.348 17.0117 202.035 17.3633 202.965 17.3633C203.863 17.3633 204.531 17.0195 204.969 16.332C205.406 15.6367 205.629 14.5625 205.637 13.1094V10.1445ZM216.863 15.3125L219.734 2.9375H223.578L218.656 20H215.07L210.184 2.9375H214.004L216.863 15.3125ZM233.996 12.6172H228.629V17.1406H234.98V20H225.184V2.9375H234.957V5.80859H228.629V9.83984H233.996V12.6172ZM242.141 13.7656H240.43V20H236.984V2.9375H242.48C244.207 2.9375 245.539 3.38672 246.477 4.28516C247.422 5.17578 247.895 6.44531 247.895 8.09375C247.895 10.3594 247.07 11.9453 245.422 12.8516L248.41 19.8359V20H244.707L242.141 13.7656ZM240.43 10.8945H242.387C243.074 10.8945 243.59 10.668 243.934 10.2148C244.277 9.75391 244.449 9.14062 244.449 8.375C244.449 6.66406 243.781 5.80859 242.445 5.80859H240.43V10.8945ZM254.844 10.6016L257.41 2.9375H261.16L256.59 13.8125V20H253.098V13.8125L248.516 2.9375H252.266L254.844 10.6016Z" fill="#FF9900"/>
<path d="M793.061 359.061C793.646 358.475 793.646 357.525 793.061 356.939L783.515 347.393C782.929 346.808 781.979 346.808 781.393 347.393C780.808 347.979 780.808 348.929 781.393 349.515L789.879 358L781.393 366.485C780.808 367.071 780.808 368.021 781.393 368.607C781.979 369.192 782.929 369.192 783.515 368.607L793.061 359.061ZM490 359.5L792 359.5L792 356.5L490 356.5L490 359.5Z" fill="#FF9900"/>
<line x1="127" y1="355.5" x2="397" y2="355.5" stroke="#FF9900" stroke-width="3"/>
</svg>
