<svg width="239" height="239" viewBox="0 0 239 239" fill="none" xmlns="http://www.w3.org/2000/svg">
<rect x="119.421" width="168.887" height="168.887" transform="rotate(45 119.421 0)" fill="#FF9900"/>
<g clip-path="url(#clip0)">
<path fill-rule="evenodd" clip-rule="evenodd" d="M95.2101 76.8701H89.5629C86.5674 76.8701 83.6947 78.0601 81.5766 80.1782C79.4585 82.2963 78.2686 85.169 78.2686 88.1645V147.46C78.2686 150.455 79.4585 153.328 81.5766 155.446C83.6947 157.564 86.5674 158.754 89.5629 158.754H146.035C149.03 158.754 151.903 157.564 154.021 155.446C156.139 153.328 157.329 150.455 157.329 147.46V88.1645C157.329 85.169 156.139 82.2963 154.021 80.1782C151.903 78.0601 149.03 76.8701 146.035 76.8701H140.387V82.5173H146.035C147.532 82.5173 148.969 83.1123 150.028 84.1713C151.087 85.2304 151.682 86.6667 151.682 88.1645V147.46C151.682 148.957 151.087 150.394 150.028 151.453C148.969 152.512 147.532 153.107 146.035 153.107H89.5629C88.0652 153.107 86.6288 152.512 85.5697 151.453C84.5107 150.394 83.9157 148.957 83.9157 147.46V88.1645C83.9157 86.6667 84.5107 85.2304 85.5697 84.1713C86.6288 83.1123 88.0652 82.5173 89.5629 82.5173H95.2101V76.8701Z" fill="#B26B00"/>
<path fill-rule="evenodd" clip-rule="evenodd" d="M126.27 74.0466H109.328C108.579 74.0466 107.861 74.3441 107.332 74.8736C106.802 75.4031 106.505 76.1213 106.505 76.8702V82.5173C106.505 83.2662 106.802 83.9844 107.332 84.5139C107.861 85.0434 108.579 85.3409 109.328 85.3409H126.27C127.019 85.3409 127.737 85.0434 128.266 84.5139C128.796 83.9844 129.093 83.2662 129.093 82.5173V76.8702C129.093 76.1213 128.796 75.4031 128.266 74.8736C127.737 74.3441 127.019 74.0466 126.27 74.0466ZM109.328 68.3994C107.082 68.3994 104.927 69.2919 103.338 70.8804C101.75 72.469 100.857 74.6236 100.857 76.8702V82.5173C100.857 84.7639 101.75 86.9185 103.338 88.5071C104.927 90.0956 107.082 90.9881 109.328 90.9881H126.27C128.516 90.9881 130.671 90.0956 132.259 88.5071C133.848 86.9185 134.74 84.7639 134.74 82.5173V76.8702C134.74 74.6236 133.848 72.469 132.259 70.8804C130.671 69.2919 128.516 68.3994 126.27 68.3994H109.328Z" fill="#B26B00"/>
<path d="M95.21 130.518C95.21 129.021 95.8049 127.584 96.864 126.525C97.923 125.466 99.3594 124.871 100.857 124.871C102.355 124.871 103.791 125.466 104.85 126.525C105.909 127.584 106.504 129.021 106.504 130.518V136.165C106.504 137.663 105.909 139.1 104.85 140.159C103.791 141.218 102.355 141.813 100.857 141.813C99.3594 141.813 97.923 141.218 96.864 140.159C95.8049 139.1 95.21 137.663 95.21 136.165V130.518ZM129.093 107.93C129.093 106.432 129.688 104.996 130.747 103.936C131.806 102.877 133.242 102.282 134.74 102.282C136.238 102.282 137.674 102.877 138.733 103.936C139.792 104.996 140.387 106.432 140.387 107.93V136.165C140.387 137.663 139.792 139.1 138.733 140.159C137.674 141.218 136.238 141.813 134.74 141.813C133.242 141.813 131.806 141.218 130.747 140.159C129.688 139.1 129.093 137.663 129.093 136.165V107.93ZM112.151 119.224C112.151 117.726 112.746 116.29 113.805 115.231C114.865 114.172 116.301 113.577 117.799 113.577C119.296 113.577 120.733 114.172 121.792 115.231C122.851 116.29 123.446 117.726 123.446 119.224V136.165C123.446 137.663 122.851 139.1 121.792 140.159C120.733 141.218 119.296 141.813 117.799 141.813C116.301 141.813 114.865 141.218 113.805 140.159C112.746 139.1 112.151 137.663 112.151 136.165V119.224Z" fill="#B26B00"/>
</g>
<defs>
<clipPath id="clip0">
<rect width="90.3547" height="90.3547" fill="white" transform="translate(72.6216 68.3994)"/>
</clipPath>
</defs>
</svg>
