<svg width="60" height="60" viewBox="0 0 60 60" fill="none" xmlns="http://www.w3.org/2000/svg">
<circle cx="30" cy="29.9995" r="30" fill="#FF9900"/>
<path d="M21.6414 43.7101C22.0163 43.3352 22.6241 43.3352 22.999 43.7101C23.3739 44.085 23.3739 44.6928 22.999 45.0677L20.6043 47.4624C19.5681 48.4986 17.8882 48.4986 16.852 47.4624L14.4573 45.0677C13.4211 44.0315 13.4211 42.3516 14.4573 41.3154L16.852 38.9207C17.2269 38.5458 17.8347 38.5458 18.2096 38.9207C18.5845 39.2956 18.5845 39.9034 18.2096 40.2784L15.815 42.673C15.5286 42.9594 15.5286 43.4237 15.815 43.7101L18.2096 46.1047C18.496 46.3911 18.9603 46.3911 19.2467 46.1047L21.6414 43.7101Z" fill="black"/>
<path d="M29.6127 22.663L18.373 36.8708C18.0708 37.2528 18.1026 37.8007 18.4471 38.1452L23.7741 43.4722C24.1186 43.8167 24.6664 43.8485 25.0485 43.5463L39.2563 32.3066C44.3892 28.246 47.0289 21.8543 46.1545 15.7648C40.065 14.8904 33.6733 17.5301 29.6127 22.663ZM27.3929 44.1398L26.2397 45.052C25.0935 45.9588 23.4499 45.8633 22.4164 44.8298L17.0895 39.5028C16.056 38.4694 15.9605 36.8258 16.8672 35.6795L17.7795 34.5264L12.1873 30.7983C11.6467 30.4379 11.6127 29.6558 12.1201 29.2499L18.8422 23.8721C20.889 22.2347 23.701 21.9368 26.0455 23.109L26.5891 23.3809L26.5945 23.3836L28.1069 21.4718C32.7491 15.6038 40.1693 12.6825 47.1654 13.9859C47.5555 14.0586 47.8607 14.3638 47.9334 14.7539C49.2368 21.75 46.3155 29.1702 40.4475 33.8124L38.5357 35.3248L38.5384 35.3302L38.8103 35.8738C39.9825 38.2183 39.6846 41.0303 38.0471 43.0771L32.6694 49.7992C32.2635 50.3066 31.4814 50.2726 31.121 49.732L27.3929 44.1398ZM28.9036 42.9446L31.9903 47.5746L36.5479 41.8776C37.7175 40.4157 37.9302 38.4071 37.0929 36.7325L36.9975 36.5416L28.9036 42.9446ZM18.9746 33.0156L25.3777 24.9218L25.1868 24.8263C23.5122 23.989 21.5036 24.2018 20.0416 25.3714L14.3447 29.929L18.9746 33.0156Z" fill="white"/>
<path d="M34.2858 20.8453C36.1603 18.9708 39.1995 18.9708 41.074 20.8453C42.9485 22.7199 42.9485 25.759 41.074 27.6336C39.1995 29.5081 36.1603 29.5081 34.2858 27.6336C32.4113 25.759 32.4113 22.7199 34.2858 20.8453ZM39.7163 26.2759C40.8411 25.1512 40.8411 23.3277 39.7163 22.203C38.5916 21.0783 36.7681 21.0783 35.6434 22.203C34.5187 23.3277 34.5187 25.1512 35.6434 26.2759C36.7681 27.4006 38.5916 27.4006 39.7163 26.2759Z" fill="black"/>
</svg>
