<svg width="183" height="514" viewBox="0 0 183 514" fill="none" xmlns="http://www.w3.org/2000/svg">
<path d="M180.186 250.238C179.885 250.013 179.476 249.712 179.334 249.579C178.8 249.069 178.015 248.293 177.756 248.034C177.731 248.018 177.715 247.993 177.69 247.968C177.381 247.634 176.838 247.208 175.218 246.565C175.176 246.381 175.135 246.189 175.085 245.981C175.051 245.847 175.018 245.714 174.984 245.563C174.584 244.044 173.974 242.349 173.649 241.481L173.624 241.414C173.665 241.323 173.699 241.239 173.724 241.164C173.749 241.097 173.765 241.03 173.774 241.005C173.799 240.922 173.816 240.838 173.832 240.738C173.841 240.688 173.849 240.638 173.849 240.638C173.866 240.538 173.874 240.438 173.882 240.363C173.882 240.346 173.882 240.337 173.882 240.321C173.882 240.312 173.891 240.271 173.891 240.262C173.899 240.137 173.891 240.012 173.882 239.878C173.882 239.878 173.874 239.787 173.874 239.778C173.866 239.695 173.857 239.62 173.849 239.503L173.832 239.377C173.824 239.319 173.816 239.252 173.79 239.144L173.774 239.044C173.757 238.968 173.74 238.893 173.724 238.818L173.707 238.76L173.69 238.693C173.665 238.609 173.649 238.526 173.632 238.484L173.598 238.359C173.565 238.251 173.532 238.142 173.498 238.033L173.482 237.983C173.482 237.983 173.465 237.942 173.465 237.933L173.39 237.708C173.39 237.708 173.381 237.666 173.373 237.666L173.323 237.533L173.265 237.366L173.214 237.224L173.198 237.174L173.148 237.04L173.081 236.865L173.056 236.798L173.039 236.748L172.931 236.456L172.847 236.222L172.822 236.172L172.789 236.08C172.68 235.788 172.572 235.487 172.471 235.178L172.455 235.12C172.405 234.978 172.363 234.836 172.321 234.711L172.304 234.644C172.271 234.519 172.229 234.402 172.204 234.31L172.179 234.202C172.146 234.077 172.112 233.943 172.096 233.834L172.079 233.734C172.054 233.626 172.037 233.517 172.02 233.4C172.012 233.367 172.012 233.342 172.004 233.317C171.987 233.208 171.979 233.1 171.97 232.966L171.962 232.908C171.954 232.791 171.945 232.674 171.945 232.557V231.18C171.945 230.312 171.937 229.268 171.929 228.141V228.083C171.862 221.07 171.603 216.588 171.144 214.776C170.701 213.015 171.027 210.953 171.286 209.291C171.436 208.34 171.561 207.513 171.561 206.779C171.561 206.462 171.536 206.128 171.478 205.719C171.453 205.577 171.428 205.426 171.394 205.234C171.369 205.084 171.336 204.934 171.286 204.75C171.252 204.608 171.211 204.458 171.169 204.274C171.127 204.124 171.085 203.974 171.035 203.807L171.002 203.69C170.969 203.59 170.935 203.49 170.902 203.389C170.893 203.348 170.877 203.314 170.86 203.273C170.827 203.164 170.785 203.056 170.735 202.905C170.735 202.897 170.71 202.847 170.71 202.839L170.618 202.605L170.593 202.53L170.576 202.496L170.551 202.429L170.443 202.154L170.392 202.02L170.359 201.937L170.284 201.762L170.225 201.636L170.117 201.386L170.058 201.252L169.967 201.044L169.917 200.927L169.891 200.877L169.808 200.701L169.766 200.618L169.716 200.509L169.683 200.443L169.658 200.393L169.507 200.092C169.491 200.059 169.474 200.017 169.466 200L169.441 199.908C169.424 199.858 169.416 199.817 169.399 199.766L169.374 199.658C169.357 199.591 169.349 199.524 169.332 199.466L169.315 199.324L169.29 199.149L169.282 199.09L169.274 199.007L169.265 198.923C169.257 198.823 169.249 198.715 169.24 198.589L169.232 198.523L169.224 198.464C169.215 198.306 169.207 198.13 169.207 197.972V197.83V197.771V197.646V197.396V197.112C169.207 197.012 169.207 196.92 169.215 196.77L169.224 196.469L169.232 196.177V196.118C169.24 195.885 169.249 195.643 169.265 195.392V195.325L169.274 195.225C169.307 194.607 169.34 193.948 169.382 193.255L169.391 193.155L169.399 193.038C169.424 192.696 169.441 192.345 169.466 191.986L169.507 191.343L169.633 189.457C169.833 186.385 168.739 181.343 167.771 176.885C167.22 174.339 166.694 171.934 166.502 170.29L166.468 169.973L166.452 169.847C166.443 169.764 166.435 169.689 166.435 169.614L166.427 169.505C166.418 169.388 166.418 169.28 166.418 169.146V169.054V169.013V168.963L166.427 168.887V168.871L166.435 168.812L166.443 168.771C166.502 168.662 166.56 168.545 166.61 168.42C166.627 168.378 166.644 168.336 166.66 168.286V168.295C166.669 168.278 166.677 168.261 166.685 168.236L166.736 168.086C166.752 168.044 166.761 167.994 166.777 167.944C166.811 167.827 166.836 167.71 166.861 167.568C166.869 167.527 166.869 167.493 166.877 167.468C166.894 167.335 166.911 167.193 166.911 167.042C166.911 166.976 166.911 166.909 166.911 166.834C166.911 166.717 166.902 166.6 166.902 166.492C166.894 166.366 166.877 166.233 166.852 166.016L166.827 165.874C166.811 165.782 166.794 165.682 166.777 165.582C166.56 164.546 166.126 163.478 165.742 162.543L165.717 162.476C165.425 161.758 165.149 161.09 165.057 160.631C164.698 158.861 162.519 150.105 162.093 148.402C163.872 141.147 159.013 133.2 158.804 132.866C158.545 132.449 158.094 132.198 157.61 132.198C157.551 132.198 157.501 132.198 157.443 132.206C155.614 130.579 152.292 127.765 148.618 125.37C148.593 125.353 148.576 125.344 148.551 125.328C146.664 124.368 144.619 123.5 142.481 122.765L142.431 122.74C142.373 122.715 142.323 122.69 142.264 122.673L140.478 121.705C139.008 119.359 137.806 117.097 136.913 114.976C133.097 105.994 125.7 93.8644 123.504 92.9878L123.27 92.896L123.228 92.8793L122.644 92.6372L122.41 92.5454L122.343 92.5203C120.874 91.9276 119.63 91.4601 118.528 91.0761L118.202 90.9676L118.119 90.9426L117.718 90.809C117.593 90.7673 117.467 90.7255 117.392 90.7005C117.351 90.6838 117.3 90.6671 117.3 90.6671L116.983 90.5669L116.941 90.5586L116.9 90.5419L116.574 90.4417L116.491 90.4166L116.232 90.3415L116.115 90.3081C116.015 90.2831 115.923 90.258 115.864 90.2413H115.848C115.906 89.874 115.965 89.5151 116.023 89.1645C116.14 88.4549 116.24 87.8371 116.282 87.4197C116.357 86.7018 116.507 85.1324 116.624 83.9053C116.891 83.8301 117.1 83.6047 117.15 83.3209C117.267 82.7532 117.25 81.9685 117.192 81.2256C117.526 81.092 117.726 80.7414 117.659 80.3824C117.659 80.3741 117.434 79.0551 117.793 76.7093L117.801 76.6258C117.826 76.4672 117.851 76.3086 117.868 76.15L117.885 76.0582L117.902 75.9663L117.952 75.5573L117.968 75.4571L117.985 75.3569L118.01 75.1482L118.035 74.9396L118.052 74.7809L118.06 74.7142L118.119 74.1799L118.177 73.6456L118.185 73.5705L118.194 73.487L118.211 73.3367L118.236 73.1197V73.103C119.062 72.3016 119.137 70.6237 119.137 68.9541C119.137 68.1193 120.022 65.473 120.557 63.8869C120.732 63.3609 120.891 62.8935 120.999 62.5428C121.483 60.9901 120.765 58.0683 120.573 57.3254C120.573 57.3003 120.582 57.2836 120.582 57.2753L120.59 57.2169L120.598 57.1417L120.607 57.0248C120.607 57.0165 120.607 56.9831 120.607 56.9748L120.615 56.908V56.8412C120.615 56.8328 120.615 56.7911 120.615 56.7911V56.7243V56.6492V56.5908V56.4989V56.357V56.2902C120.615 56.1233 120.615 55.948 120.607 55.781C120.607 55.7476 120.607 55.7059 120.598 55.6892C120.598 55.6307 120.59 55.5723 120.59 55.5389L120.582 55.4304C120.573 55.3803 120.573 55.3219 120.565 55.2885L120.548 55.1967C120.456 54.6123 120.281 54.2283 119.981 53.9779C119.763 53.8025 119.513 53.669 119.212 53.5855C119.229 53.5438 119.254 53.502 119.279 53.4603C119.605 52.8175 119.964 52.2498 120.381 51.7239L120.665 51.3649L121.124 50.7806C122.318 49.9708 123.838 48.7186 124.472 47.1826C124.556 46.9906 124.623 46.7736 124.706 46.4981L124.731 46.3979C125.274 44.2358 124.648 41.7564 124.222 40.4709C124.13 40.1954 124.038 39.9282 123.938 39.6695C123.938 39.6695 123.913 39.6194 123.913 39.611C123.813 39.3606 123.713 39.1185 123.612 38.8931C123.187 37.9665 122.569 37.3821 122.068 36.9146C121.867 36.7226 121.675 36.5473 121.525 36.372C121.492 36.3303 121.458 36.2885 121.417 36.2385L121.383 36.1967C121.358 36.155 121.325 36.1132 121.308 36.0798L121.266 36.0047C121.25 35.9797 121.233 35.9463 121.216 35.9045C121.199 35.8795 121.191 35.8461 121.183 35.8211C121.166 35.7877 121.158 35.7626 121.141 35.7125C121.133 35.6791 121.124 35.6457 121.108 35.5957C121.099 35.5706 121.091 35.5372 121.083 35.4955C121.074 35.4454 121.074 35.4037 121.066 35.3536L121.058 35.2784V35.2284C121.058 35.1616 121.058 35.0948 121.058 35.003V34.9445V34.9028C121.066 34.7776 121.083 34.644 121.108 34.5104C121.258 33.6506 121.333 32.8575 121.358 32.0728V32.0144V31.8975C121.358 31.6972 121.358 31.5052 121.35 31.3132L121.341 31.1712V31.0961C121.325 30.7288 121.283 30.3782 121.233 30.0526L121.225 30.0025C121.216 29.9608 121.216 29.9107 121.208 29.869C121.191 29.7604 121.166 29.6519 121.141 29.5517L121.124 29.485C121.091 29.3514 121.066 29.2178 121.033 29.0676C121.007 28.959 120.974 28.8505 120.941 28.742C120.891 28.575 120.84 28.4164 120.782 28.2578L120.757 28.1827C120.732 28.1159 120.715 28.0575 120.69 27.9907C120.598 27.7402 120.498 27.4898 120.381 27.2394C120.298 27.0474 120.198 26.8637 120.097 26.6884C120.064 26.63 120.039 26.5799 120.014 26.5465C119.922 26.3795 119.822 26.2209 119.697 26.0206C119.588 25.8536 119.471 25.6866 119.346 25.5197L119.262 25.4112C119.154 25.2692 119.054 25.1357 118.937 24.9938L118.912 24.9604C118.795 24.8101 118.678 24.6765 118.57 24.5513L118.494 24.4595C118.386 24.3426 118.286 24.2258 118.16 24.0922C118.044 23.9753 117.943 23.8668 117.826 23.7416C117.434 23.3492 117.159 23.1071 117.15 23.0988C117.008 22.9819 116.833 22.9151 116.649 22.9151C116.624 22.9151 116.591 22.9151 116.566 22.9151C116.507 22.9235 116.257 22.9569 115.931 23.1155C115.956 23.0403 115.973 22.9652 115.99 22.8984C115.998 22.8567 116.015 22.8233 116.031 22.7398L116.09 22.5228C116.09 22.5144 116.115 22.4309 116.115 22.4226L116.157 22.2139C116.173 22.1388 116.19 22.072 116.19 22.0386C116.198 22.0052 116.207 21.9718 116.207 21.9468L116.232 21.8215C116.248 21.7214 116.265 21.6212 116.282 21.5294L116.299 21.4208L116.324 21.2622L116.332 21.1954L116.34 21.1454C116.357 21.0452 116.365 20.945 116.374 20.8782L116.39 20.7614L116.399 20.6361L116.407 20.5693L116.424 20.4274L116.432 20.3857L116.44 20.2855L116.449 20.202L116.457 20.0184V19.9433L116.466 19.7513C116.474 19.4841 116.482 19.2253 116.474 18.9582C116.474 18.9081 116.474 18.8497 116.474 18.8246L116.466 18.6076V18.5491C116.466 18.5158 116.466 18.4907 116.457 18.4573L116.44 18.257V18.2486C116.44 18.257 116.44 18.257 116.44 18.2653C116.44 18.257 116.44 18.2403 116.44 18.2319C116.432 18.1818 116.424 18.1318 116.407 18.09C116.424 18.1401 116.432 18.1902 116.44 18.2319C116.44 18.2236 116.44 18.2152 116.44 18.2069L116.432 18.1234C116.424 18.0483 116.415 17.9815 116.399 17.8897C116.39 17.8563 116.39 17.8145 116.382 17.7895C116.374 17.7227 116.357 17.6559 116.349 17.6058C116.349 17.5808 116.332 17.5223 116.324 17.5057C116.307 17.4305 116.29 17.3637 116.265 17.297C116.257 17.2719 116.248 17.2385 116.24 17.2051C116.223 17.155 116.207 17.1049 116.19 17.0799C116.173 17.0298 116.148 16.9797 116.132 16.938C115.998 16.6709 115.839 16.4872 115.631 16.3703C115.397 16.2368 115.146 16.17 114.896 16.17C114.37 16.17 113.952 16.4455 113.477 16.771C113.184 16.963 112.859 17.1884 112.45 17.3971C112.191 17.5307 111.94 17.5975 111.698 17.5975C111.398 17.5975 111.231 17.489 111.181 17.4389C111.147 16.6375 110.613 12.5303 108.693 10.6687C108.609 10.5935 108.526 10.5184 108.425 10.4349C108.342 10.3682 108.258 10.3097 108.15 10.2346C108.066 10.1845 107.991 10.1344 107.924 10.101C107.916 10.101 107.908 10.0927 107.891 10.0843C107.716 9.71701 107.524 9.3664 107.315 9.04918C106.221 7.37959 104.501 7.04567 102.982 6.75349C102.556 6.67001 102.113 6.58653 101.696 6.46966C99.1245 5.77678 96.7116 4.70824 94.0482 3.48944C93.5389 3.2557 93.0213 3.01361 92.512 2.76317C90.6919 1.90333 88.8133 1.0101 86.8596 0.450789C85.9746 0.133567 85.0145 0 84.0209 0C79.5959 0 75.3045 2.55447 72.7747 4.94199C70.8961 6.71175 69.435 8.84883 68.3246 11.4617C67.7736 11.4116 67.1557 11.3866 66.4711 11.3866C61.9626 11.3866 55.9512 12.3967 55.7008 12.4384C55.3835 12.4885 55.1414 12.739 55.0829 13.0478C54.5736 15.7275 55.1915 17.4973 55.6841 18.9165C55.9679 19.7262 56.21 20.4274 56.21 21.1537C56.21 22.6229 50.0902 26.438 46.4583 26.8387C43.3775 27.1809 36.0637 28.7754 34.7946 36.1884C34.4356 38.267 34.5775 40.5293 35.212 42.9168C35.2788 43.1839 35.3623 43.4427 35.4375 43.6932L35.4792 43.8434C35.5627 44.0939 35.6378 44.3443 35.7213 44.5781L35.7464 44.6532C35.8215 44.8702 35.905 45.0789 35.9802 45.2876L36.0553 45.4713C36.1221 45.6382 36.1889 45.8052 36.2557 45.9638C36.2557 46.2226 36.264 46.4814 36.2724 46.7402L36.2807 46.9155L36.2891 47.0073C36.2974 47.2244 36.3141 47.4414 36.3308 47.6585L36.3392 47.7419L36.3559 47.9256C36.3726 48.1677 36.406 48.4014 36.4394 48.6602L36.4477 48.7687C36.4811 49.0359 36.5229 49.303 36.5729 49.5785L36.6147 49.7955C36.6481 49.9792 36.6815 50.1628 36.7232 50.3298C36.7399 50.4216 36.765 50.5134 36.7817 50.6053C36.8234 50.7722 36.8652 50.9392 36.9069 51.1062L36.932 51.198L36.9654 51.3316C37.0238 51.5569 37.0906 51.774 37.1574 51.9827C37.1824 52.0495 37.1991 52.1079 37.2242 52.1747L37.2492 52.2498C37.291 52.375 37.3327 52.5003 37.3828 52.6338L37.458 52.8425L37.4997 52.9427C37.5414 53.0429 37.5832 53.1431 37.6166 53.2432C37.6583 53.3518 37.7084 53.4519 37.7502 53.5605L37.8337 53.7441L37.8587 53.8025C37.9589 54.0196 38.0591 54.2283 38.1676 54.4286L38.1927 54.4787C38.2177 54.5205 38.2344 54.5622 38.2511 54.5789C38.3179 54.7041 38.3847 54.821 38.4598 54.9546L38.4849 55.0046L38.5266 55.0714C38.6018 55.1966 38.6686 55.3135 38.7437 55.4387C39.1445 56.0815 39.5953 56.7076 40.0879 57.292C40.8226 58.1602 40.9813 59.2037 40.5555 60.3891C39.2781 61.9501 37.316 62.9602 35.5377 62.9602C35.2371 62.9602 34.9449 62.9352 34.661 62.8768C34.8196 62.0086 35.0701 61.0653 35.521 60.2054C35.6629 59.9383 35.9217 59.6294 36.239 59.6294C36.6898 59.6712 37.149 59.8465 37.6333 60.0218C37.8003 60.0886 37.9756 60.147 38.1426 60.2054C38.2261 60.2305 38.3179 60.2472 38.4014 60.2472C38.7855 60.2472 39.1111 59.9717 39.1862 59.596C39.2363 59.3372 39.1361 59.0617 38.9441 58.8781L38.6185 58.3438C38.5851 58.1685 38.4849 58.0016 38.3179 57.868C37.7335 57.3671 36.9236 56.6909 35.9217 56.6659H35.8466C34.853 56.6659 34.0098 57.1167 33.2667 57.5174L32.9995 57.6593C31.0124 58.7028 30.2694 61.0569 30.4113 62.9352C30.5699 64.9471 31.6052 66.5916 33.4253 67.6852L33.4754 67.7186C33.4754 67.7186 33.5088 67.7436 33.5172 67.7436C33.609 67.8021 33.7092 67.8605 33.8428 67.9356C33.8428 67.9356 33.8845 67.9523 33.8845 67.9607L33.9513 67.9941C34.0682 68.0525 34.1851 68.1193 34.2936 68.1694C34.3354 68.1861 34.3771 68.2028 34.4439 68.2361L34.5525 68.2862C34.5775 68.3029 34.6109 68.3113 34.6193 68.3113L34.7612 68.3697L34.9031 68.4198L34.9532 68.4365L35.02 68.4615C35.0868 68.4866 35.1619 68.5116 35.2204 68.5283L35.3456 68.5701L35.5043 68.6118L35.5627 68.6285C35.6128 68.6452 35.6545 68.6535 35.7046 68.6619L35.7714 68.6786C36.8318 68.9708 38.0006 69.121 39.1695 69.121C39.445 69.121 39.7206 69.1127 39.9877 69.096C42.0416 68.9624 43.5528 67.9941 44.7467 66.049C45.7737 64.3627 46.3998 62.8016 46.642 61.2823C46.6587 61.2573 46.667 61.2322 46.6837 61.2072C47.0928 60.4726 47.4101 60.1136 47.6021 59.9466L47.6856 59.8715C47.719 59.8465 47.7607 59.8214 47.7941 59.8047C47.8359 59.788 47.8526 59.7797 47.8442 59.7797C47.8442 59.7797 47.8693 59.788 47.911 59.8381C48.8628 60.7898 49.3638 63.987 49.4556 65.7819C49.4723 66.1826 49.7979 66.4914 50.1987 66.5081H50.2237C50.2571 66.5081 50.2822 66.5081 50.3156 66.4998C50.3406 66.5749 50.3573 66.65 50.3824 66.7252C50.4074 66.817 50.4492 66.9172 50.4826 67.034C50.5827 67.3095 50.7163 67.6434 50.8833 68.0191L50.9084 68.0859L50.9167 68.1109L50.9752 68.2528C50.9752 68.2612 50.9919 68.2946 51.0002 68.3029C51.0086 68.3113 51.0253 68.353 51.0253 68.3614C51.0336 68.3697 51.0336 68.3864 51.042 68.3864L51.1254 68.5617L51.1505 68.6118L51.1839 68.6786L51.3175 68.9541C51.3258 68.9708 51.3509 69.0209 51.3509 69.0376L51.3926 69.1294L51.5596 69.4883L51.6514 69.6887L51.8518 70.1061L52.1691 70.7322V70.7405C52.3361 72.0679 52.478 73.0279 52.478 73.0362C52.4947 73.128 52.5281 73.2199 52.5698 73.3117C52.645 73.4453 54.4651 76.534 56.3937 77.6359C58.0802 78.6043 59.3744 80.1821 59.6582 80.6496C59.725 80.7581 59.7918 80.9 59.867 81.0419C60.2176 81.7431 60.8021 82.9202 62.0878 82.9202C62.2381 82.9202 62.4051 82.9285 62.5804 82.9285C62.7975 82.9369 63.0229 82.9452 63.2567 82.9452C63.5573 82.9452 63.8912 82.9285 64.2252 82.8785C64.7011 84.523 65.6946 87.9206 66.2123 88.9474C66.3542 89.2396 66.5796 89.5568 66.8885 89.9074C66.3709 90.1579 65.8366 90.4167 65.3022 90.7005L65.2521 90.7255L65.1603 90.7756C64.9599 90.8758 64.7595 90.9843 64.5341 91.1095L64.4256 91.168C64.1834 91.3015 63.9246 91.4435 63.6575 91.5937L63.5823 91.6355L63.5239 91.6688C63.3068 91.7941 63.0897 91.9193 62.8643 92.0528L62.7891 92.0946L62.6472 92.1781C62.4051 92.3283 62.1546 92.4786 61.8874 92.6372L61.8039 92.6873C61.5284 92.8626 61.2446 93.0379 60.9523 93.2299L60.7937 93.3301L60.7186 93.3802C60.5015 93.5304 60.2761 93.6724 60.0423 93.831L59.9755 93.8727L59.7918 93.9979C59.4996 94.1983 59.199 94.407 58.8985 94.624L58.815 94.6825C58.5394 94.8828 58.2723 95.0832 57.9968 95.2919L57.7296 95.4922C57.4958 95.6759 57.262 95.8595 57.0366 96.0432L56.9448 96.1183L56.8112 96.2268C56.5106 96.4689 56.21 96.7194 55.9178 96.9781L55.7675 97.1117L55.7341 97.1451C55.492 97.3538 55.2499 97.5708 55.0161 97.7879L54.8408 97.9465L54.749 98.03C54.4985 98.2637 54.2564 98.4975 54.0226 98.7312L53.9558 98.798L53.8639 98.8898C53.5717 99.1737 53.2962 99.4742 53.0123 99.7831L52.8788 99.925L52.7869 100.025C52.5698 100.259 52.3611 100.501 52.1607 100.735C52.0856 100.818 52.0104 100.902 51.9103 101.019C51.6431 101.336 51.3759 101.67 51.1087 102.012C51.0169 102.137 50.9418 102.271 50.8833 102.446L50.8499 102.546L50.8416 102.58L50.8082 102.671L50.7998 102.705L50.7831 102.747L50.7497 102.838C50.7414 102.863 50.733 102.888 50.7247 102.905L50.6996 102.964L50.6746 103.03L50.6495 103.106L50.5911 103.272L50.5661 103.348L50.5327 103.456L50.5243 103.515L50.4993 103.581L50.4826 103.64L50.4575 103.715L50.4158 103.832L50.3991 103.89L50.3824 103.94L50.3406 104.066L50.2989 104.191L50.2738 104.266L50.182 104.541L50.1486 104.65L50.0985 104.783L50.0568 104.909L50.0234 105.009L50.0067 105.059L49.9482 105.234L49.8981 105.368L49.8647 105.468L49.7812 105.718L49.7562 105.794L49.7311 105.86L49.7144 105.902L49.6643 106.044L49.5809 106.286L49.5642 106.345L49.4055 106.804L49.3471 106.962L49.2218 107.321C48.7376 108.682 48.2366 110.059 47.7357 111.437L47.6606 111.629L47.4852 112.096L47.36 112.422L47.2431 112.739L47.2097 112.823L47.1262 113.031L46.9926 113.39L46.9592 113.474L46.859 113.749L46.7422 114.05L46.7171 114.125L46.6921 114.183L46.667 114.25L46.475 114.759L46.4165 114.901L46.1911 115.486L46.1327 115.627L45.974 116.037L45.8989 116.237L45.8572 116.354L45.7236 116.688L45.615 116.98L45.5649 117.097L45.3145 117.739L45.2727 117.84L45.0139 118.482L44.9721 118.583L44.6966 119.276L44.6799 119.317C44.2124 120.469 43.7532 121.571 43.319 122.598C43.1103 122.723 42.8932 122.857 42.6594 122.999C40.9145 123.683 38.5517 124.986 35.6128 126.897C31.5301 129.861 28.4326 132.674 26.387 135.253C26.1867 135.462 24.9343 136.806 24.5001 138.993C24.1161 140.897 21.9203 148.936 19.2068 153.101C17.0861 156.357 12.8865 166.892 9.9393 174.923L9.88086 175.073L9.63873 175.749L9.53019 176.042L9.47175 176.217L9.31312 176.659L9.25467 176.818L9.13778 177.144L9.02925 177.436L8.9875 177.553L8.82887 177.995L8.71198 178.329L8.67023 178.446L8.38637 179.239L8.24443 179.631L8.09415 180.065L8.04405 180.216L7.99396 180.357L7.91047 180.608L7.75183 181.067L7.65164 181.359L7.58485 181.543L7.54311 181.676C7.45127 181.944 7.35943 182.211 7.27593 182.461L7.20079 182.678L7.08391 183.02L6.97537 183.346L6.91692 183.513L6.90022 183.555L6.64975 184.323L6.6247 184.39L6.58296 184.506L6.49947 184.74L6.32414 185.291C6.1822 185.734 6.04862 186.159 5.92338 186.577L5.85659 186.794C5.7397 187.194 5.62281 187.587 5.50592 187.971L5.43913 188.205C5.33059 188.589 5.22205 188.956 5.12186 189.323L5.09682 189.423L5.08012 189.482C4.98828 189.824 4.89644 190.158 4.81295 190.484L4.77955 190.6L4.7712 190.642C4.67936 190.984 4.59587 191.31 4.52073 191.636L4.49568 191.752L4.46229 191.878C4.38714 192.187 4.312 192.487 4.24521 192.779L4.18677 193.038C4.12832 193.297 4.06988 193.547 4.01143 193.798L3.97804 193.965L3.95299 194.082L3.8862 194.399L3.8194 194.708L3.75261 195L3.63572 195.526L3.61903 195.609L3.52719 196.052L3.51049 196.143L3.31846 197.07L3.26001 197.371L3.23497 197.496C3.00954 198.606 2.82586 199.491 2.65053 200.084C2.63383 200.142 2.61713 200.192 2.59209 200.276C2.58374 200.309 2.56704 200.342 2.54199 200.418L2.50025 200.518L2.4752 200.568C2.4418 200.618 2.40841 200.668 2.38336 200.71L2.32491 200.785C2.29152 200.827 2.26647 200.868 2.24142 200.893L2.18298 200.96L2.07444 201.077C1.95755 201.202 1.83232 201.328 1.70708 201.453C1.35642 201.795 0.96401 202.179 0.646744 202.663C0.145797 203.423 -0.0712793 204.283 0.0205609 205.201C0.137448 206.336 0.738584 207.146 1.22283 207.797C1.84067 208.624 2.12454 208.999 1.79892 209.901C1.0308 212.046 0.237638 214.275 0.31278 215.903C0.321129 216.045 0.329478 216.187 0.354525 216.337C0.371223 216.471 0.396271 216.604 0.429667 216.729C0.438016 216.771 0.454714 216.805 0.479762 216.88C0.513158 216.972 0.538205 217.072 0.579951 217.164C0.655093 217.331 0.730235 217.481 0.813726 217.598C1.24788 218.257 1.9659 218.825 2.81751 219.493C3.82775 220.286 4.97993 221.196 5.74805 222.339C6.41598 223.341 6.64975 224.744 6.88353 226.113C7.07556 227.256 7.27593 228.442 7.73514 229.519C7.79358 229.669 7.86037 229.811 7.93551 229.953L8.0691 230.228L8.11919 230.328L8.23608 230.57L8.26948 230.637L8.30287 230.704L8.72033 231.581L8.82887 231.806L8.93741 232.04L9.07934 232.323L9.50515 233.192L9.54689 233.275L9.65543 233.492L9.70552 233.584L9.9393 234.051L9.98104 234.135L10.0395 234.252L10.2816 234.728L10.5738 235.295L10.6573 235.462L10.8577 235.846L10.8827 235.905L10.9829 236.097L11.0163 236.164L11.1666 236.456C11.1833 236.489 11.2 236.522 11.2167 236.548L11.2919 236.698L11.3336 236.773L11.4254 236.948L11.6342 237.332C11.8596 237.758 12.0934 238.184 12.3355 238.626L12.4023 238.743L12.4273 238.785L12.4941 238.91L12.5776 239.06L13.0786 239.945C13.3457 240.413 13.6213 240.88 13.9051 241.348C13.9218 241.373 13.9385 241.406 13.9552 241.431C14.2224 241.874 14.4896 242.316 14.7651 242.742L14.7901 242.783L14.8068 242.817C14.8736 242.917 14.9404 243.026 15.0072 243.126L15.0656 243.218L15.1074 243.284L15.241 243.493L15.3829 243.71L15.5666 243.986L15.6751 244.144C15.8171 244.353 15.959 244.553 16.0926 244.754L16.1176 244.795L16.1343 244.82L16.1844 244.895L16.2429 244.979C16.3932 245.188 16.5351 245.396 16.6937 245.605L16.7856 245.73L16.9275 245.922L17.011 246.031L17.0527 246.081L17.1446 246.206C17.3617 246.49 17.5704 246.765 17.7958 247.041L17.8459 247.099L18.0713 247.383L18.2383 247.584C18.3468 247.709 18.4554 247.834 18.5556 247.951C18.7643 248.193 18.973 248.427 19.1484 248.619C19.5575 249.094 20.1336 250.021 20.1336 250.539C20.1336 251.899 20.8599 253.844 21.1021 254.454C20.9434 254.871 20.7597 255.33 20.6178 255.698C20.5343 255.906 20.2671 256.391 20.0501 256.783C18.8812 258.912 18.1966 260.264 18.7643 261.399C19.5408 262.952 24.1662 263.211 26.5791 263.244C26.195 264.263 25.7609 265.423 25.3601 266.492L25.3351 266.567L25.2516 266.792L25.2182 266.876L25.143 267.076L25.0762 267.251L25.0178 267.393L24.9677 267.527L24.9259 267.644L24.8759 267.769L24.8592 267.819C24.8508 267.844 24.8425 267.869 24.8258 267.902L24.7924 268.003L24.7089 268.236L24.6337 268.437C23.9324 270.373 20.384 273.17 19.0816 274.08C18.756 274.305 18.5389 274.664 18.4971 275.057C18.447 275.449 18.5639 275.85 18.8227 276.15C19.4489 276.885 25.0345 283.371 27.5476 285.633C31.2379 288.956 35.9301 294.491 35.9301 295.96C35.9301 296.586 36.3308 297.129 36.932 297.312C37.0655 297.354 37.1991 297.371 37.3327 297.371C37.8086 297.371 38.2511 297.129 38.5183 296.72C38.8272 296.244 40.472 293.698 42.3923 290.45C42.4006 290.434 42.409 290.425 42.4173 290.409C43.5945 288.13 45.2477 284.757 46.4499 281.643L46.4666 281.61L46.5 281.535L46.6002 281.318L46.6336 281.242C46.7422 281.61 46.8507 281.927 46.9509 282.202C47.2431 283.037 47.7023 284.173 48.3118 285.583C48.3201 285.608 48.3368 285.633 48.3452 285.659L48.7126 286.31L48.9213 286.677C47.6606 289.307 47.4518 290.984 48.2951 291.819L49.1634 292.687C48.7543 295.501 46.4165 313.24 48.8211 336.74C48.437 338.493 47.5103 341.089 46.5668 341.615C45.2811 342.333 44.5296 343.092 44.2207 344.011C44.1372 344.269 44.0871 344.528 44.0621 344.82C44.0537 344.929 44.0537 345.046 44.0537 345.138C44.0537 345.171 44.0537 345.204 44.0537 345.238C44.0621 345.363 44.0704 345.48 44.0871 345.613C44.1205 345.856 44.1706 346.139 44.2291 346.448C44.4629 347.726 44.8219 349.654 44.1706 350.823C44.0704 351.006 43.9118 351.298 43.7198 351.649L43.6613 351.758L43.2272 352.576C42.768 353.436 42.2169 354.487 41.6409 355.581C40.0295 358.661 38.2762 362.026 38.2762 362.026C38.2428 362.084 38.2177 362.151 38.2094 362.218C38.1843 362.326 37.6249 364.964 37.6249 366.358C37.6249 366.943 37.8921 367.669 39.1946 367.802L39.3949 367.819C39.5118 367.827 39.6371 367.836 39.7373 367.852C39.7373 367.869 39.7289 367.878 39.7289 367.894C39.445 369.155 37.6834 371.667 37.0238 372.527C37.0071 372.552 36.9904 372.577 36.9737 372.602L36.8485 372.811L36.7065 373.062L36.6564 373.145L36.6314 373.187C36.6314 373.187 36.5813 373.279 36.5729 373.279C36.5062 373.404 36.431 373.529 36.3475 373.679C35.6629 374.906 34.7612 376.634 34.2936 377.962C34.2435 378.095 34.2018 378.229 34.1684 378.354C34.135 378.479 34.1016 378.596 34.0766 378.713L34.0682 378.772C34.0432 378.897 34.0265 379.005 34.0181 379.114C34.0181 379.122 34.0181 379.172 34.0181 379.181C34.0098 379.323 34.0098 379.448 34.0265 379.556L34.4606 382.57L34.7445 384.548L34.7612 384.64L34.7779 384.757C34.7779 384.765 34.7779 384.774 34.7779 384.782L34.7695 384.882C34.636 386.043 33.417 396.569 32.7073 409.734C31.9559 423.7 32.5069 426.505 32.532 426.622C32.5403 426.647 32.5487 426.68 32.557 426.705C32.7574 427.307 33.2751 429.085 33.2751 430.07C33.2751 430.52 32.8743 432.232 31.7472 435.671L29.902 436.589C29.6014 436.74 29.4345 437.065 29.4929 437.399C29.4929 437.416 29.7434 438.927 29.9939 441.147C30.236 443.335 29.9939 449.312 29.9939 449.37C29.9772 449.679 30.1525 449.963 30.4364 450.096C30.4364 450.096 30.6451 450.188 31.0041 450.355C30.9707 450.397 30.9373 450.439 30.9039 450.472C30.8705 450.514 30.8455 450.547 30.8204 450.581C30.7787 450.639 30.7369 450.697 30.6952 450.764C30.6618 450.823 30.62 450.881 30.595 450.931C30.5783 450.965 30.5616 450.998 30.5365 451.048C30.4948 451.132 30.4614 451.223 30.4364 451.307C30.4364 451.315 30.4197 451.357 30.4197 451.365C30.3863 451.474 30.3696 451.582 30.3612 451.691C30.3612 451.724 30.3529 451.758 30.3529 451.799C30.3445 451.941 30.3529 452.058 30.3696 452.175C30.5282 453.11 31.1878 453.586 31.6219 453.911C31.7555 454.003 31.8808 454.095 31.9559 454.17C31.9559 454.17 31.9559 454.179 31.9475 454.187C31.7973 454.571 31.5217 455.105 31.1544 455.756C28.3324 457.159 28.0736 458.152 27.9901 458.478C27.965 458.586 27.9316 458.712 27.9316 458.862C27.9316 459.421 28.0819 459.889 28.2071 460.306C28.4409 461.049 28.5912 461.533 28.0402 462.41C27.0132 464.054 18.7977 477.353 17.8125 478.955L14.6816 480.834C14.5146 480.934 14.3894 481.092 14.3393 481.284C14.3059 481.393 13.6046 483.981 13.1871 486.519C12.9533 487.57 12.6528 489.257 12.5108 491.327C12.2103 493.214 12.0349 495.276 11.9431 496.678C11.9431 496.72 11.9431 496.761 11.9431 496.803C12.2103 499.583 12.8114 502.28 13.7465 504.809C13.7966 504.943 13.8634 505.076 13.9552 505.193C14.1973 505.502 19.9749 512.723 34.7278 513.858C35.9384 513.95 37.1741 514 38.3931 514C51.1672 514 60.5766 509.083 60.9774 508.866C61.3531 508.666 61.6203 508.307 61.7038 507.881C61.9041 506.804 62.906 502.037 63.7994 500.076C65.0685 497.287 65.6779 492.98 65.2271 490.05C65.1185 489.34 64.7178 488.171 64.2168 486.686C63.8745 485.684 63.4905 484.557 63.1398 483.396C62.5971 481.042 61.996 478.571 61.5535 476.726C61.6704 471.985 61.2362 467.101 61.111 465.874C61.8624 464.814 63.0647 462.894 63.0647 461.491C63.0647 461.124 63.0647 460.031 60.5516 457.935C60.6017 457.568 60.6852 457.242 60.8021 456.958C60.8855 456.766 60.9523 456.574 61.0191 456.374C61.0525 456.274 61.0776 456.165 61.1026 456.065L61.1193 456.015L61.136 455.965C61.1444 455.915 61.1611 455.865 61.1694 455.815C61.2028 455.656 61.2195 455.506 61.2362 455.331C61.2362 455.322 61.2446 455.289 61.2446 455.289C61.3364 454.245 61.1026 453.244 60.5432 452.317C60.5432 452.309 60.4764 452.183 60.4681 451.758C63.3151 450.03 64.4673 448.101 64.5174 448.018C64.6093 447.859 64.6426 447.676 64.6092 447.5C64.2669 445.597 63.4654 440.212 63.8495 438.176C64.1834 436.506 63.5907 434.97 62.8142 433.935C62.9227 433.743 63.0396 433.534 63.1482 433.325C63.1482 433.325 63.1649 433.284 63.1732 433.284C63.2901 433.067 63.3986 432.85 63.5322 432.591C63.6408 432.374 63.7493 432.157 63.8495 431.931L63.8662 431.89C63.9664 431.664 64.0666 431.439 64.1584 431.222L64.1751 431.172C64.2669 430.946 64.3504 430.729 64.4339 430.495C64.5091 430.278 64.5675 430.061 64.6176 429.861C64.6176 429.861 64.6259 429.811 64.6343 429.803C64.6844 429.569 64.7261 429.368 64.7428 429.176C64.843 428.066 64.4256 427.415 64.0916 426.889C63.6992 426.28 63.3903 425.796 63.9413 424.243L63.9831 424.126L64.0499 423.934L64.0833 423.842L64.1166 423.742L64.1918 423.533L64.2168 423.466L64.6176 422.365C65.6612 419.476 67.4062 414.643 68.9174 410.026L68.9842 409.809L69.1261 409.383L69.1512 409.317C69.3599 408.682 69.5519 408.056 69.7523 407.438L69.769 407.38L69.7857 407.33L69.8358 407.163L69.9527 406.796L69.9777 406.704L70.0028 406.62L70.0612 406.437L70.1865 406.019L70.2198 405.919L70.4202 405.243C70.4202 405.251 70.4119 405.26 70.4119 405.268C70.4202 405.251 70.4202 405.243 70.4286 405.226C70.4453 405.159 70.4536 405.093 70.4536 405.026C70.4536 405.101 70.4453 405.168 70.4286 405.226C70.4286 405.218 70.4369 405.201 70.4369 405.193C70.5371 404.851 70.629 404.525 70.7124 404.224C70.7208 404.191 70.7291 404.158 70.7375 404.133L70.8794 403.615C70.8878 403.59 70.8878 403.565 70.8961 403.54V403.573C70.9128 403.498 70.9379 403.431 70.9462 403.381C71.0047 403.173 71.0548 402.972 71.1049 402.772L71.1383 402.647L71.1549 402.572L71.2468 402.188L71.2635 402.104L71.2885 401.979C71.3303 401.779 71.372 401.595 71.4138 401.403L71.4555 401.203C71.4973 400.994 71.5307 400.802 71.5641 400.61C72.04 397.822 72.232 395.86 72.399 394.132C72.5576 392.454 72.6995 391.01 73.0669 389.257C73.7849 385.859 74.3276 381.819 74.5948 379.715C74.6115 379.565 74.6198 379.406 74.6115 379.231C74.6115 379.231 74.6115 379.164 74.6115 379.156C74.6115 379.064 74.6031 378.964 74.5864 378.822C74.5781 378.755 74.5697 378.688 74.5614 378.613C74.5447 378.488 74.5196 378.371 74.4946 378.246L74.4862 378.196C74.4612 378.079 74.4278 377.962 74.3944 377.82L74.3693 377.736L74.3443 377.661L74.3026 377.494L74.2358 377.252C74.027 376.509 73.8267 375.816 73.9185 375.232C73.9268 375.174 73.9435 375.115 73.9602 375.057C73.9602 375.057 73.9686 375.015 73.9769 375.015L73.9936 374.957C74.027 374.873 74.0604 374.79 74.1022 374.706L74.1272 374.656C74.1523 374.606 74.1857 374.564 74.194 374.539L74.2441 374.464C74.2692 374.422 74.3026 374.381 74.3109 374.364C74.3276 374.339 74.3443 374.322 74.3527 374.314C74.3944 374.264 74.4361 374.222 74.4779 374.18L74.5196 374.138C74.5447 374.113 74.5697 374.088 74.5948 374.063C74.5948 374.063 74.6365 374.03 74.6365 374.022L74.6866 373.98L74.7367 373.938L74.8369 373.863L74.9705 373.763L75.0957 373.671C75.1208 373.654 75.1542 373.629 75.1792 373.604L75.1625 373.613C75.2043 373.579 75.2377 373.554 75.2794 373.521L75.3295 373.479C75.3796 373.437 75.4297 373.387 75.4714 373.345C75.4798 373.337 75.5048 373.312 75.5132 373.304C75.5633 373.254 75.605 373.195 75.6635 373.112C75.6969 373.062 75.7303 373.003 75.772 372.928C75.8138 372.845 75.8638 372.736 75.8972 372.594C76.0475 371.985 75.7136 371.467 75.4213 371.008C75.0456 370.424 74.6866 369.864 74.9371 369.03C75.4714 367.235 76.6737 366.041 77.0494 365.949C78.3853 365.615 78.3853 363.896 78.3853 361.04C78.3853 358.595 79.3454 353.845 80.364 352.142C81.5245 350.205 81.7834 349.712 81.9837 347.458C82.468 342.157 83.1526 338.409 84.0126 336.306C85.3902 332.966 92.0611 314.643 93.1298 311.629C93.1799 311.495 93.2133 311.379 93.255 311.253L93.2801 311.161C93.3051 311.07 93.3302 310.978 93.3552 310.911L93.3803 310.811C93.4053 310.702 93.4304 310.602 93.4554 310.51C93.4721 310.419 93.4888 310.327 93.5055 310.227L93.5138 310.176C93.5222 310.101 93.5306 310.035 93.5389 309.951C93.5389 309.943 93.5389 309.909 93.5472 309.901C93.5556 309.818 93.5556 309.742 93.5556 309.634C93.5556 309.575 93.5556 309.517 93.5556 309.459C93.5556 309.425 93.5556 309.392 93.5472 309.392C93.5472 309.35 93.5389 309.308 93.5389 309.275C93.5389 309.258 93.5305 309.2 93.5222 309.183C93.5139 309.141 93.5055 309.1 93.4972 309.049C93.4888 309.016 93.4805 308.974 93.4721 308.941C93.4721 308.933 93.4554 308.891 93.4554 308.883L93.4137 308.766C93.3886 308.707 93.3719 308.649 93.3469 308.599C93.3385 308.574 93.3218 308.549 93.3135 308.524C93.3385 308.457 93.4387 308.273 93.756 307.872C94.3738 307.104 94.9666 306.245 95.5343 305.326C95.551 305.293 95.5677 305.268 95.5928 305.234L96.0102 306.078C96.0854 308.265 96.8034 328.175 97.5298 332.925C97.6467 333.701 97.7803 334.544 97.9222 335.421C98.6235 339.837 99.5753 345.897 99.425 347.717C99.3415 348.669 99.1245 349.412 98.9241 350.063C98.6486 350.956 98.4231 351.724 98.707 352.576C98.9324 353.252 99.5252 355.038 99.1912 355.481C99.1328 355.564 99.066 355.656 98.9992 355.765L98.9742 355.806C98.9157 355.907 98.8489 356.007 98.7821 356.14C98.6569 356.382 98.54 356.641 98.4231 356.925C98.4231 356.933 98.3981 356.992 98.3981 357C98.348 357.134 98.2979 357.267 98.2561 357.409L98.2394 357.468C98.1309 357.827 98.0391 358.186 97.9723 358.578C97.9389 358.753 97.9138 358.937 97.8971 359.129C97.8971 359.137 97.8888 359.179 97.8888 359.187C97.847 359.638 97.8387 360.081 97.8721 360.556C97.9138 361.074 97.9973 361.55 98.1309 362.017C98.6987 363.996 98.2144 368.145 98.0057 369.914C97.9389 370.507 97.9055 370.758 97.9055 370.891C97.9055 370.991 97.847 371.5 97.7719 372.102C97.2459 376.735 95.6429 390.851 96.9787 396.486C97.4546 398.498 97.9639 400.576 98.4649 402.588C99.5753 407.088 100.627 411.345 101.145 414.451C101.412 416.054 101.763 417.623 102.105 419.142C102.706 421.797 103.266 424.31 103.04 425.779C102.639 428.358 102.648 429.577 103.065 430.495C102.982 430.955 102.105 432.349 101.12 433.568C100.886 433.851 100.894 434.26 101.128 434.536C101.754 435.287 102.598 436.439 103.023 437.249L101.846 437.541C101.521 437.625 101.279 437.934 101.27 438.276C101.27 438.384 101.245 438.827 101.22 439.453C101.045 443.293 100.878 445.063 100.794 445.43C100.535 446.482 100.277 448.719 100.268 448.819C100.235 449.153 100.419 449.479 100.736 449.612C100.736 449.612 100.97 449.712 101.387 449.871C101.362 450.046 101.32 450.213 101.279 450.355C101.17 450.672 100.894 451.123 100.627 451.566C100.402 451.933 100.168 452.317 99.9761 452.701C98.54 453.319 97.7218 454.053 97.5465 454.897C97.5298 454.972 97.5131 455.08 97.5131 455.214C97.5131 455.589 97.5465 456.023 97.5799 456.474C97.6049 456.783 97.6216 457.109 97.6383 457.434L97.655 457.743V457.835C97.655 457.918 97.655 458.01 97.655 458.085V458.194C97.655 458.269 97.655 458.344 97.6467 458.411L97.6383 458.536C97.6383 458.603 97.63 458.67 97.6216 458.728L97.6049 458.87L97.5882 458.995V459.037L97.5799 459.096L97.5632 459.179C97.5548 459.221 97.5465 459.263 97.5381 459.296L97.5214 459.379L97.5047 459.463C97.4964 459.505 97.4797 459.546 97.463 459.63L97.4463 459.68L97.4379 459.722C97.4129 459.805 97.3795 459.889 97.3461 459.972C97.104 460.531 96.2273 462.034 95.2922 463.628C93.2968 467.043 91.8691 469.539 91.5936 470.632C91.1511 472.385 91.1344 477.236 91.844 479.214C91.7772 480.107 91.7522 481.084 91.7772 482.128C91.7772 482.169 91.7856 482.203 91.7856 482.244C92.2364 484.774 93.1048 488.288 94.6577 490.693C94.8497 490.985 95.1336 491.193 95.4926 491.294C96.8201 491.661 108.634 494.883 114.487 495.927C120.064 496.92 124.355 499.85 128.897 502.956L129.54 503.39C135.126 507.196 141.129 508.741 150.964 508.908C151.273 508.916 151.574 508.916 151.874 508.916C164.965 508.916 171.152 504.199 171.403 503.999C171.645 503.807 171.82 503.532 171.895 503.231C171.912 503.156 172.38 501.286 172.48 499.124C172.488 499.049 172.48 498.974 172.455 498.899C172.254 498.114 172.012 497.312 171.72 496.503C171.661 496.11 171.578 495.751 171.478 495.409C171.453 495.326 171.403 495.242 171.344 495.167C171.328 495.1 171.311 495.025 171.286 494.95C170.952 493.581 171.01 492.788 171.186 492.512C171.745 491.586 171.419 489.833 170.877 488.597C170.417 487.537 169.324 485.692 167.17 485.225C167.12 485.216 167.061 485.208 167.011 485.208C166.978 485.208 166.953 485.208 166.919 485.216C166.919 485.216 166.518 485.266 166.051 485.266C165.249 485.266 165.024 485.124 165.016 485.116C164.339 484.665 157.994 480.733 151.273 477.469C150.663 476.534 147.875 472.335 146.272 470.532C145.537 469.706 142.957 466.826 140.002 463.804C139.86 463.169 139.409 462.66 138.766 462.443C138.716 462.426 138.657 462.41 138.607 462.393C136.161 459.964 134.157 458.169 132.638 457.05L132.663 457.034C132.705 457.009 132.738 456.975 132.796 456.933C132.813 456.925 132.855 456.892 132.872 456.875C132.938 456.825 132.997 456.766 133.072 456.691L133.114 456.641C133.164 456.583 133.205 456.524 133.256 456.458C133.281 456.424 133.297 456.391 133.314 456.357C133.356 456.291 133.389 456.215 133.414 456.149C133.423 456.115 133.439 456.09 133.456 456.032C133.489 455.907 133.506 455.781 133.506 455.656C133.506 454.897 132.963 454.346 132.78 454.154C132.513 453.886 132.195 453.628 131.861 453.361C131.744 453.269 131.619 453.168 131.502 453.068L131.452 453.027C131.36 452.951 131.277 452.868 131.185 452.793C131.519 452.451 132.053 451.85 132.179 450.681C132.237 450.147 132.179 449.545 132.012 448.911C132.103 448.227 132.237 447.567 132.404 446.966C132.98 444.862 133.715 440.071 133.748 439.862C133.798 439.553 133.648 439.244 133.372 439.085C133.339 439.06 132.663 438.676 131.82 438.251C132.187 437.449 132.212 436.347 132.137 435.421C132.112 435.112 132.07 434.811 132.02 434.536L132.003 434.444C131.987 434.327 131.961 434.219 131.936 434.118L131.92 434.027C131.895 433.893 131.861 433.768 131.828 433.659C131.794 433.551 131.761 433.442 131.728 433.35C131.711 433.309 131.703 433.267 131.686 433.225C131.661 433.158 131.644 433.092 131.619 433.033L131.602 432.991L131.552 432.866C131.552 432.858 131.527 432.791 131.519 432.783L131.427 432.557C131.269 432.148 131.102 431.731 130.951 431.213C130.909 431.08 130.876 430.946 130.843 430.813L130.809 430.662L130.793 430.587L130.776 430.52L130.768 430.479L130.726 430.295L130.717 430.228L130.709 430.178L130.692 430.095C130.684 430.036 130.667 429.978 130.659 429.886C130.642 429.778 130.626 429.661 130.617 429.552L130.601 429.402C130.592 429.31 130.584 429.21 130.576 429.118L130.567 429.068L130.559 428.968V428.893V428.809L130.55 428.709L130.542 428.634V428.542V428.475C130.534 428.308 130.534 428.141 130.534 427.966C130.534 427.857 130.534 427.732 130.534 427.582C130.534 427.574 130.534 427.532 130.534 427.515C130.534 427.39 130.534 427.256 130.542 427.115C130.634 423.308 131.252 413.007 132.053 402.062L132.078 401.695L132.087 401.637L132.145 400.852L132.237 399.658L132.245 399.566C132.68 393.698 132.521 390.333 132.412 388.105C132.287 385.542 132.295 385.099 133.13 384.331C133.723 383.789 134.199 383.305 134.6 382.829C134.742 382.662 134.867 382.503 134.984 382.344C135.101 382.186 135.209 382.019 135.318 381.852C135.41 381.693 135.493 381.543 135.568 381.393C135.568 381.393 135.585 381.351 135.593 381.351C135.668 381.192 135.744 381.025 135.802 380.85C135.852 380.7 135.894 380.55 135.927 380.416L135.952 380.308C135.986 380.149 136.019 379.99 136.036 379.798C136.053 379.656 136.053 379.506 136.061 379.348V379.222C136.053 379.064 136.053 378.905 136.027 378.747C135.944 377.995 135.66 377.511 135.426 377.11C135.092 376.534 134.884 376.175 135.568 374.815C135.61 374.731 135.643 374.656 135.685 374.573L135.702 374.531C136.779 372.319 137.079 370.816 136.679 369.664C136.637 369.539 136.579 369.414 136.52 369.305C136.503 369.272 136.487 369.238 136.462 369.205C136.387 369.071 136.311 368.963 136.22 368.854C136.178 368.804 136.128 368.746 136.044 368.654C135.977 368.587 135.902 368.512 135.819 368.445C135.785 368.42 135.76 368.387 135.719 368.362C135.71 368.353 135.685 368.337 135.677 368.328C135.668 368.32 135.635 368.295 135.627 368.287L135.568 368.236C135.46 368.145 135.335 368.044 135.209 367.953L135.034 367.819C134.7 367.56 134.349 367.293 134.007 366.993C133.949 366.943 133.89 366.892 133.815 366.817C133.757 366.767 133.706 366.709 133.648 366.659C133.539 366.55 133.439 366.442 133.339 366.325C133.281 366.258 133.239 366.2 133.172 366.108C133.13 366.049 133.089 365.982 133.039 365.899C132.98 365.79 132.938 365.682 132.905 365.557C132.897 365.515 132.888 365.482 132.897 365.423C132.897 365.39 132.897 365.356 132.905 365.306C132.913 365.265 132.93 365.231 132.93 365.231L132.955 365.173C132.98 365.123 133.005 365.081 133.03 365.031C133.105 364.922 133.18 364.814 133.264 364.697L133.331 364.597L133.389 364.522L133.506 364.363L133.581 364.263L133.74 364.046L133.765 364.012L133.807 363.954L133.94 363.779L133.974 363.737L134.04 363.645L134.224 363.411L134.257 363.361L134.475 363.086C135.001 362.435 135.443 361.909 135.668 361.65L135.71 361.6L135.76 361.55L135.819 361.483C135.961 361.324 136.028 361.107 136.002 360.899C135.994 360.849 135.443 355.781 135.627 351.532C135.735 349.053 135.318 347.717 134.95 346.548C134.65 345.597 134.416 344.845 134.491 343.585C134.533 342.959 134.909 340.688 135.435 337.541C136.612 330.495 138.591 318.7 139.927 306.62C139.927 306.587 139.935 306.562 139.935 306.562C140.027 305.702 140.119 304.842 140.21 303.991L140.227 303.882L140.235 303.782C140.319 302.955 140.402 302.129 140.478 301.311L140.486 301.211L140.494 301.119C140.503 301.06 140.503 301.002 140.511 300.944C140.561 301.019 140.611 301.094 140.678 301.161C141.421 301.962 142.698 302.822 144.076 302.822C144.635 302.822 145.161 302.68 145.629 302.405C145.996 302.187 146.347 301.92 146.689 301.595C146.806 301.803 146.923 302.012 147.023 302.204C147.149 302.471 147.416 302.655 147.741 302.672C148.568 302.697 149.369 302.855 150.229 303.022L150.288 303.031C150.497 303.072 150.722 303.139 150.964 303.206C151.44 303.348 151.933 303.49 152.475 303.49C153.16 303.49 153.694 303.69 154.37 303.949C154.604 304.041 154.846 304.124 155.105 304.216C155.882 304.475 156.666 304.55 157.259 304.592C157.41 304.6 157.56 304.608 157.702 304.608C158.403 304.608 159.071 304.508 159.639 304.416C159.697 304.408 159.772 304.4 159.856 304.391C160.515 304.316 161.409 304.216 161.718 303.548L161.951 303.022C162.21 302.455 162.469 301.87 162.761 301.328C163.054 300.768 163.413 300.209 163.755 299.666L163.838 299.533C164.022 299.474 164.214 299.408 164.423 299.332C164.965 299.132 165.517 298.898 166.059 298.631C167.245 298.039 167.988 297.053 168.547 296.169C169.925 294.023 170.459 292.788 170.618 292.053C174.325 289.398 175.46 285.316 176.562 281.376C176.863 280.307 177.172 279.197 177.523 278.154C178.115 276.392 177.439 274.798 176.838 273.387C176.454 272.485 176.095 271.642 176.053 270.808C176.003 269.906 175.92 268.996 175.819 268.103C176.337 268.295 176.663 268.428 176.663 268.437C176.763 268.478 176.863 268.495 176.963 268.495C177.139 268.495 177.314 268.437 177.447 268.32C177.664 268.136 177.765 267.844 177.706 267.569L177.69 267.485L177.706 267.418C177.297 265.782 176.22 261.241 176.162 259.905C176.162 259.838 176.145 259.772 176.128 259.705C176.053 259.471 175.978 259.237 175.911 259.02C177.84 258.16 182.983 255.556 183 253.527C183.025 252.434 181.956 251.549 180.186 250.238ZM37.1574 39.0016C37.2743 38.0333 37.5832 37.1484 38.0841 36.3553C38.3931 35.8628 38.727 35.412 39.0777 35.0113C38.2428 36.1884 37.6082 37.5157 37.1574 39.0016ZM40.3467 212.906C39.779 212.631 39.2363 212.397 38.8189 212.213C38.8606 212.096 38.9023 211.971 38.9524 211.838C39.0109 211.654 39.0526 211.462 39.0944 211.278C39.1946 210.819 39.2447 210.343 39.253 209.859V209.742V209.642V209.525L39.2447 209.475V209.408C39.2447 209.392 39.2447 209.35 39.2447 209.333V209.3L39.228 209.225C39.228 209.183 39.2196 209.133 39.2113 209.091C39.2113 209.066 39.2029 209.041 39.2029 209.016C39.1194 208.515 38.7688 208.073 38.3012 207.897C38.3012 207.897 37.9839 207.772 37.65 207.58C37.5832 207.538 37.5164 207.497 37.4413 207.447H37.4329C37.6834 207.238 37.8671 207.129 38.0424 207.029C38.6769 206.662 39.1946 206.278 39.5452 205.051C39.587 204.909 39.612 204.784 39.6287 204.658C39.6371 204.608 39.6454 204.567 39.6454 204.55C39.6538 204.458 39.6621 204.366 39.6705 204.224V204.141C39.6705 204.057 39.6621 203.965 39.6538 203.874C39.6204 203.607 39.5536 203.348 39.4534 203.097C39.4534 203.089 39.4033 202.972 39.3866 202.939C39.3699 202.897 39.3449 202.847 39.3115 202.772L39.2447 202.638L39.1779 202.513C39.0777 202.321 39.0025 202.171 38.9775 202.045C38.9775 202.029 38.9691 202.012 38.9691 201.987C38.9691 201.97 38.9691 201.954 38.9691 201.92C38.9691 201.887 38.9775 201.862 38.9775 201.862C38.9858 201.828 38.9942 201.803 38.9942 201.77C39.0109 201.72 39.0276 201.661 39.0443 201.611V201.603C39.0526 201.586 39.0526 201.57 39.061 201.561C39.0777 201.52 39.086 201.478 39.1194 201.411L39.1278 201.394C39.1528 201.328 39.1862 201.269 39.2196 201.202C39.253 201.144 39.2864 201.085 39.3198 201.019C39.445 200.802 39.587 200.601 39.7206 200.434C39.9209 203.815 40.1798 207.021 40.4636 208.766C40.6557 209.867 40.6139 211.262 40.3467 212.906ZM142.097 294.115C141.755 295.584 141.287 297.07 140.828 298.506L140.761 298.715C140.753 298.74 140.745 298.765 140.736 298.798C140.736 298.756 140.745 298.715 140.745 298.673L140.753 298.598C141.062 294.858 141.254 291.385 141.329 288.246C141.413 288.555 141.496 288.864 141.58 289.173C142.039 290.859 142.481 292.454 142.097 294.115ZM144.31 242.299L144.352 242.383C144.385 242.441 144.41 242.491 144.452 242.558C144.477 242.608 144.502 242.658 144.519 242.708C144.535 242.75 144.552 242.783 144.577 242.817C144.569 242.808 144.544 242.775 144.535 242.742C144.552 242.775 144.56 242.817 144.577 242.859C144.468 242.95 144.36 243.051 144.251 243.167C144.251 242.842 144.251 242.516 144.243 242.199L144.31 242.299ZM146.773 262.735C146.481 263.403 146.13 264.062 145.813 264.613C144.953 266.149 144.26 267.502 143.675 268.762C143.75 267.986 143.909 266.45 144.226 263.503C144.226 263.486 144.226 263.461 144.235 263.436C144.251 262.76 144.26 262.017 144.26 261.266V260.473V259.989C144.268 259.196 144.276 258.327 144.276 257.409C144.318 257.451 144.36 257.484 144.402 257.518C144.652 257.718 144.961 257.826 145.278 257.826C145.303 257.826 145.337 257.826 145.37 257.826L145.763 259.947C145.779 260.064 145.829 260.164 145.896 260.256C145.888 260.932 145.888 261.366 145.888 261.366L146.489 262.109L146.564 262.126L146.94 262.217C146.873 262.384 146.815 262.56 146.773 262.735ZM154.922 292.379C154.638 292.971 154.379 293.639 154.12 294.416C153.986 294.816 153.87 295.25 153.753 295.751C153.728 295.86 153.711 295.977 153.686 296.085C153.678 296.085 153.661 296.077 153.652 296.077C153.11 295.626 152.484 295.376 152.049 295.234C151.356 295.017 150.613 294.908 149.795 294.908H149.778C149.829 294.516 149.879 294.14 149.912 293.789C149.962 293.355 150.029 292.921 150.104 292.479C150.204 291.861 150.304 291.21 150.355 290.567C150.396 289.991 150.313 289.449 150.238 288.981C150.129 288.33 150.054 287.821 150.263 287.278C150.405 286.919 150.747 286.51 151.073 286.109C151.223 285.934 151.365 285.759 151.49 285.592L151.632 285.408C151.841 285.133 152.066 284.824 152.3 284.64C152.459 284.782 152.726 285.108 153.177 285.817C153.235 285.909 153.277 285.984 153.318 286.034L153.427 286.193C153.786 286.719 154.162 287.253 154.12 287.737C154.037 288.672 154.362 289.499 154.646 290.233C155.013 291.16 155.214 291.753 154.922 292.379Z" fill="white"/>
</svg>
