<svg width="190" height="525" viewBox="0 0 190 525" fill="none" xmlns="http://www.w3.org/2000/svg">
<path d="M174.939 262.236C175.224 262.236 175.483 262.046 175.569 261.761C176.346 259.049 177.745 254.678 178.41 253.789C179.153 252.795 180.526 248.58 182.245 243.174C182.685 241.8 183.091 240.505 183.419 239.529C184.775 235.452 186.761 227.065 187.694 222.099C187.996 220.466 188.333 218.912 188.661 217.417C189.378 214.084 190 211.207 190 208.893C190 205.3 188.126 199.625 187.012 196.559C186.131 194.149 185.855 191.186 185.561 188.051C185.423 186.609 185.285 185.123 185.086 183.603C184.447 178.783 182.798 167.201 181.45 163.807C180.449 161.31 179.257 155.886 177.987 150.143C177.625 148.502 177.262 146.852 176.899 145.245C175.267 138.059 169.887 126.304 169.653 125.812C169.61 125.717 169.541 125.63 169.455 125.561C165.646 122.702 157.787 118.695 151.941 116.63C147.001 114.886 135.152 109.695 132.777 108.65C132.674 107.121 132.458 105.566 132.087 104.029C129.936 94.9771 124.858 94.0875 124.236 94.0097C124.47 91.6604 124.798 88.9397 125.134 86.4954C125.204 85.9772 125.273 85.4762 125.342 84.9839C125.35 84.9234 125.359 84.8716 125.368 84.8112C125.376 84.7507 125.385 84.6989 125.394 84.6384C125.575 83.3947 125.748 82.2891 125.912 81.4081C126.266 81.5118 126.663 81.5809 127.129 81.5809C128.865 81.5809 130.238 80.3371 131.456 79.2488C132.061 78.7047 132.631 78.1951 133.114 77.9705C134.125 77.4955 135.308 75.9408 136.62 73.3496C136.741 73.1078 136.871 72.8573 136.983 72.6068C137.208 72.1318 137.441 71.6308 137.674 71.0953L137.691 71.0522C137.795 70.819 137.89 70.5858 137.994 70.3439L138.02 70.2921C138.123 70.0416 138.218 69.7998 138.322 69.5493C138.408 69.3247 138.494 69.0915 138.581 68.8497C138.667 68.6165 138.745 68.3746 138.823 68.1242C139.185 66.9668 139.617 65.248 139.6 63.6242C139.583 61.0071 138.382 60.1434 137.424 59.8584C138.805 57.25 141.863 51.1608 142.415 47.4122C142.441 47.2222 142.467 47.0236 142.493 46.8249L142.51 46.6694C142.528 46.5053 142.545 46.3412 142.562 46.1685L142.571 46.1339L142.579 46.0476C142.588 45.9871 142.588 45.918 142.597 45.8576C142.545 44.6052 142.458 42.9123 142.329 41.1589C142.597 41.1935 142.752 41.2108 142.761 41.2108C142.787 41.2108 142.804 41.2108 142.83 41.2194C142.985 41.2194 143.141 41.1676 143.262 41.0726C143.4 40.9603 143.495 40.7962 143.512 40.6234C145.662 21.2762 139.669 11.0239 137.415 7.16308C137.104 6.62757 136.854 6.20435 136.707 5.89341C135.61 3.59593 131.525 3.3109 127.199 3.0086C125.609 2.89632 123.969 2.78404 122.492 2.57675C121.283 2.404 120.221 2.23126 119.202 2.05852C115.695 1.47983 112.068 0.883862 101.679 0.166977C100.487 0.0892429 99.3126 0.03742 98.1727 0.0115085C87.179 -0.195783 82.3255 2.46446 82.1269 2.57675C82.0491 2.61993 81.9801 2.68039 81.9282 2.74085C72.8949 14.0814 70.8741 26.7867 70.5459 29.3088C67.7219 30.2243 55.286 34.5688 56.2273 39.4142C56.9268 42.99 64.1811 43.8796 70.1486 43.9833C71.6686 44.0092 72.8431 43.9833 73.3526 43.966C73.4044 44.3979 73.4476 44.8211 73.4822 45.253C73.5685 46.3499 73.6031 46.9372 73.6894 48.0255C73.724 48.5178 73.7585 49.5974 73.6808 50.0898C71.8759 49.0879 70.7791 51.7481 70.4941 53.13C70.4855 53.1819 70.4768 53.2337 70.4682 53.2855L70.4595 53.3287C70.4336 53.5101 70.4164 53.6483 70.4077 53.7951C70.3127 55.7471 71.2541 58.9083 71.7204 60.1348C71.8586 60.4889 72.0399 60.9899 72.2472 61.5858C72.1349 62.3286 72.1781 63.3133 72.3681 64.5916C72.6272 66.3363 73.1195 68.2969 73.4822 69.722L73.6117 70.2489L73.6203 70.2748L73.6463 70.3785L73.6635 70.4389L73.7067 70.603L73.7153 70.6462L73.7326 70.7153L73.7499 70.8017C73.7672 70.8621 73.7844 70.9312 73.7931 71.0003L73.819 71.104C73.8276 71.1558 73.8449 71.199 73.8535 71.2681L73.8622 71.3026L73.8708 71.3545C73.8794 71.389 73.8881 71.4236 73.8967 71.4754L73.9053 71.5099C73.914 71.5531 73.914 71.5877 73.9226 71.6222V71.8986V71.9763V72.4859V72.5723V72.961V73.2719V73.6088V73.6433C73.914 74.3602 73.914 75.2066 73.8967 76.1049C73.8535 79.577 73.7758 81.8313 73.6635 82.6173C73.6463 82.7037 73.6463 82.8073 73.6463 82.9283V82.9887C73.6549 83.0665 73.6549 83.1442 73.6722 83.2219C73.6722 83.2478 73.6808 83.2824 73.6808 83.2824C73.6894 83.3687 73.7153 83.4638 73.7413 83.576C73.7672 83.6797 73.7931 83.7833 73.8276 83.8956C74.2681 85.3467 75.5116 87.4196 76.5048 89.0865L76.8157 89.6048L76.8848 89.7171L76.9625 89.8553L76.9884 89.8898L77.0316 89.9589L77.2389 90.3217L77.2561 90.3562C77.3166 90.4599 77.377 90.5635 77.4288 90.6585L77.4461 90.6844L77.4634 90.7103C77.5238 90.814 77.5757 90.909 77.6275 91.0213L77.6448 91.0472L77.6707 91.099L77.6879 91.1422L77.7138 91.194L77.7397 91.2458C77.757 91.2718 77.7657 91.3063 77.7829 91.3322C77.7829 91.3408 77.8088 91.384 77.8088 91.3927C77.8088 91.3927 77.8175 91.4272 77.8261 91.4272C77.8261 91.4359 77.8347 91.4531 77.8347 91.4531L77.8434 91.479L77.8607 91.5222C77.8693 91.5481 77.8779 91.5654 77.8866 91.6C77.8952 91.7641 77.8952 91.9195 77.8952 92.0577V92.1268V92.1873C77.9038 92.6796 77.8866 92.9387 77.8866 92.9387C77.8779 93.0855 77.6102 96.5318 78.0938 97.9915C78.4911 99.2007 79.8815 100.263 82.5846 101.386C81.9973 102.569 81.3583 104.132 80.8487 106.102C53.6883 114.704 46.2267 120.396 45.9245 120.638C45.8554 120.69 45.7949 120.768 45.7518 120.845C45.6481 121.044 43.1005 125.82 41.7964 129.094C41.1746 130.64 39.4561 132.169 37.6252 133.784C35.8462 135.364 33.9981 136.997 32.9963 138.837C32.5645 139.631 32.1759 140.409 31.8045 141.169C30.4918 143.82 29.2482 146.325 26.2861 148.795C23.1598 151.404 23.0216 151.628 22.1321 153.753C21.9076 154.306 21.6226 154.988 21.1994 155.895C19.6536 159.238 17.2959 162.157 15.2146 164.731C14.6965 165.37 14.2042 165.975 13.7551 166.562C11.5788 169.36 10.5598 174.016 10.3871 174.888C8.34032 177.902 6.5872 181.884 5.0327 185.408C3.84093 188.12 2.7096 190.677 1.60418 192.473C-0.693009 196.205 0.0756012 198.416 0.490132 199.167C-0.598012 205.11 0.127417 209.609 2.64915 212.555C3.15004 213.142 3.65093 213.66 4.13455 214.17C5.56814 215.664 6.924 217.072 8.10714 219.914C8.57349 221.019 8.87575 222.177 9.16938 223.291C9.92072 226.124 10.6202 228.801 13.6947 230.08C16.1214 231.09 16.2337 233.586 16.32 235.409C16.3632 236.298 16.3891 236.937 16.6741 237.369C17.5377 238.656 22.3394 241.584 27.0374 241.584C30.3623 241.584 31.58 240.729 32.029 240.055C36.1312 240.919 40.2765 240.928 40.4579 240.928C40.6565 240.928 40.8292 240.841 40.9501 240.695C43.61 241.273 46.8744 239.995 48.0317 239.416C49.3012 238.777 50.3634 234.752 50.3634 234.752C50.3634 234.752 50.5361 234.519 50.8557 234.269C50.8989 234.234 50.9507 234.199 51.0025 234.165C51.0284 234.148 51.0543 234.13 51.0802 234.122C51.1061 234.104 51.132 234.096 51.1579 234.079C50.4498 236.186 49.8884 239.054 49.3012 243.459C48.6707 248.2 45.4668 254.644 45.4409 254.704C45.3027 254.989 45.3804 255.335 45.6395 255.525C47.6171 256.993 49.6725 258.28 51.7711 259.42C51.2529 262.331 50.3548 266.727 49.3444 269.154C47.6431 273.248 44.7845 285.893 44.4045 294.565C43.8086 295.005 42.7637 296.162 42.755 298.823C42.66 299.617 41.166 312.055 42.4355 322.506C42.4441 322.592 42.4701 322.679 42.5132 322.748L43.7482 324.916C43.9036 326.626 45.4495 343.434 46.6758 359.456C47.4531 369.604 47.0644 372.886 46.5635 377.032C46.2181 379.891 45.8295 383.13 45.6913 389.176C45.5618 395.231 45.6395 399.368 45.6999 402.391C45.7863 406.856 45.8209 408.705 45.0868 410.544C43.7741 413.835 43.3337 416.288 44.7586 419.864C45.4581 421.6 45.0004 423.293 44.56 424.925C44.2232 426.169 43.9123 427.344 44.0591 428.536C44.2059 429.71 44.6463 431.256 45.1213 432.906C45.7258 435.013 46.3476 437.199 46.3476 438.607C46.3476 439.496 46.1836 440.472 46.0108 441.509C45.6913 443.426 45.3631 445.404 46.0713 447.045C46.814 448.781 46.054 454.456 45.6999 456.494C45.6654 456.719 45.7431 456.935 45.9072 457.09C45.8036 457.211 45.7345 457.366 45.7345 457.522C45.674 466.574 43.7655 471.609 42.9537 473.337C41.1228 475.029 38.0743 478.009 36.2866 479.408C34.8962 480.497 33.9894 481.81 33.454 482.82L33.1604 482.984C32.1327 483.235 23.8766 485.411 18.4359 491.215C13.1852 496.812 12.0884 504.301 14.1783 508.447C14.6792 512.091 17.5377 515.624 17.5377 515.624C17.5377 515.624 22.5466 519.381 31.9168 518.975C41.2869 518.578 49.3789 514.976 52.1511 512.532C54.9233 510.079 55.7869 506.857 58.3691 504.888C60.9512 502.919 64.0948 505.078 64.0948 505.078C71.6081 502.919 74.3026 499.153 74.3026 499.153C75.0798 497.115 75.4944 492.571 75.6325 490.792C79.1215 482.699 76.2457 474.788 75.7794 473.613C76.0298 466.41 75.9175 459.31 75.9348 459.249C75.9866 459.025 75.9175 458.792 75.7535 458.636C75.6239 458.515 75.503 458.386 75.3735 458.256C75.4771 458.092 75.5117 457.893 75.4426 457.695C74.6049 455.181 73.7326 450.75 74.9589 449.524C76.4875 447.995 76.6084 445.473 76.7639 441.992C76.833 440.515 76.9107 438.84 77.1093 437.017C77.4979 433.502 78.4565 432.25 79.5706 430.79C80.2701 429.874 80.9956 428.924 81.6433 427.378C82.5069 425.297 82.5932 422.723 82.6709 420.218C82.7487 417.8 82.835 415.303 83.6123 413.282C84.9336 409.853 86.6349 404.369 86.2722 396.328C86.1081 392.622 86.7213 385.168 87.3172 377.956C87.8699 371.288 88.388 365.001 88.2326 362.28C87.9217 356.977 95.0205 319.405 95.4091 317.358C95.4955 317.194 95.651 317.03 95.72 317.03C95.7287 317.03 96.1346 317.064 96.8168 318.429C98.3713 321.547 104.874 349.255 105.263 351.63C105.418 352.563 106.61 357.573 107.992 363.377C109.538 369.863 111.291 377.214 111.809 379.796C113.821 389.858 114.08 397.839 114.253 403.116C114.305 404.611 114.339 405.898 114.417 406.882C114.745 411.123 116.032 417.143 117.785 419.942C119.366 422.464 120.635 428.259 120.635 431.377C120.635 433.226 121.464 434.184 122.259 435.108C123.027 435.998 123.761 436.845 123.908 438.632C124.038 440.153 123.735 441.146 123.45 442.105C123.027 443.512 122.595 444.963 123.623 447.65C124.323 449.481 125.1 450.517 125.661 451.269C126.421 452.288 126.706 452.668 126.231 454.076C125.29 456.891 124.737 458.982 126.059 460.312C126.654 460.908 127.06 462.989 127.181 464.172C127.207 464.432 127.389 464.648 127.63 464.734C127.933 467.092 128.408 471.765 128.269 476.826C127.734 477.966 124.366 485.688 127.345 493.979C127.371 495.759 127.509 500.319 128.157 502.401C128.157 502.401 130.61 506.33 137.976 508.948C137.976 508.948 141.249 506.987 143.702 509.112C146.155 511.236 146.811 514.51 149.428 517.127C152.044 519.744 159.903 523.838 169.23 524.823C178.557 525.807 183.791 522.37 183.791 522.37C183.791 522.37 186.856 519.018 187.591 515.408C189.931 511.4 189.3 503.852 184.404 497.944C179.334 491.811 171.225 489.134 170.215 488.814L169.93 488.633C169.463 487.596 168.634 486.223 167.322 485.049C165.62 483.537 162.762 480.376 161.043 478.571C160.344 476.8 158.746 471.652 159.247 462.609C159.256 462.393 159.161 462.186 158.997 462.056C158.953 462.022 158.91 461.987 158.858 461.953C159.187 461.124 159.67 459.768 159.895 458.671C160.111 457.591 159.584 456.909 159.161 456.365C158.755 455.838 158.47 455.466 158.591 454.723L158.66 454.3C159.014 452.245 159.541 449.144 158.53 447.123C157.727 445.508 157.874 443.184 158.254 441.681C158.435 440.956 158.202 440.299 157.952 439.6C157.623 438.693 157.261 437.665 157.606 436.102C157.796 435.229 158.185 434.202 158.599 433.113C159.549 430.6 160.62 427.758 159.886 425.297C159.61 424.39 159.316 423.612 159.031 422.861C158.271 420.857 157.623 419.13 157.623 415.666C157.623 415.468 157.597 395.3 155.318 385.41C153.349 376.877 153.374 366.763 153.694 357.106C153.867 351.915 153.098 320.295 153.038 317.894L153.668 315.7C153.685 315.631 153.694 315.562 153.694 315.492C153.694 315.449 153.504 311.044 153.409 308.272C153.435 308.272 153.469 308.272 153.495 308.28C153.832 308.298 154.186 308.298 154.514 308.289C155.05 308.272 155.551 308.22 155.939 308.099C156.518 307.918 157.33 307.564 158.133 307.175C158.53 306.985 158.936 306.778 159.299 306.596C160.162 306.156 160.853 305.784 161.009 305.724C161.112 305.681 161.268 305.629 161.449 305.551C161.458 305.551 161.466 305.542 161.475 305.542C161.527 305.525 161.57 305.499 161.631 305.473C161.639 305.465 161.648 305.465 161.665 305.456C162.054 305.275 162.529 305.007 162.978 304.566C163.755 303.824 164.316 302.735 164.316 302.735C164.316 302.735 164.325 302.735 164.334 302.735C164.411 302.727 164.981 302.64 165.733 302.278C165.733 302.278 165.733 302.278 165.741 302.278C165.828 302.234 165.914 302.191 166 302.139C166.009 302.139 166.018 302.131 166.026 302.131C166.113 302.088 166.199 302.036 166.285 301.984C166.303 301.975 166.311 301.967 166.329 301.958C166.406 301.906 166.493 301.854 166.579 301.794C166.596 301.785 166.614 301.768 166.631 301.759C166.709 301.699 166.786 301.638 166.873 301.578C166.899 301.561 166.916 301.543 166.942 301.526C167.019 301.466 167.097 301.397 167.175 301.327C167.201 301.302 167.227 301.284 167.253 301.258C167.33 301.189 167.408 301.112 167.486 301.034C167.512 301.008 167.538 300.991 167.555 300.965C167.658 300.861 167.753 300.749 167.857 300.637C168.263 300.161 168.626 299.652 168.954 299.134C169.688 297.976 170.241 296.793 170.621 295.998C170.75 295.731 170.862 295.515 170.949 295.351C171.009 295.238 171.07 295.117 171.122 294.988C171.173 294.858 171.225 294.72 171.277 294.573C171.519 293.856 171.717 293.01 172.02 292.457C172.08 292.345 172.149 292.25 172.218 292.163C172.218 292.163 172.218 292.163 172.218 292.155C172.296 292.06 172.374 291.973 172.452 291.887C172.538 291.792 172.616 291.706 172.693 291.619L172.702 291.611C172.771 291.533 172.831 291.464 172.892 291.386C172.901 291.377 172.909 291.369 172.918 291.352C173.03 291.205 173.125 291.058 173.203 290.894C173.203 290.885 173.211 290.877 173.211 290.868C173.246 290.799 173.272 290.721 173.289 290.635C173.289 290.626 173.298 290.617 173.298 290.609C173.324 290.514 173.341 290.419 173.35 290.315C173.35 290.315 173.557 289.296 173.35 288.277C173.324 288.147 173.298 288.009 173.263 287.862C173.151 287.275 173.03 286.567 172.952 285.884C172.892 285.375 172.849 284.882 172.849 284.476C172.849 284.433 172.849 284.381 172.849 284.321C172.849 284.304 172.849 284.286 172.849 284.26C172.849 284.226 172.849 284.183 172.849 284.148C172.831 283.025 172.771 280.218 172.685 277.489V277.498C172.676 277.282 172.667 277.057 172.667 276.841C172.641 275.891 172.607 274.976 172.572 274.164C172.512 272.592 172.434 271.305 172.4 270.32C172.391 270.035 172.382 269.785 172.382 269.551C172.382 269.439 172.382 269.327 172.382 269.223C172.382 268.912 172.4 268.662 172.434 268.463C172.469 268.273 172.512 268.135 172.572 268.057C172.702 267.902 172.935 267.591 173.177 267.202C173.298 267.012 173.427 266.796 173.54 266.58C173.661 266.364 173.773 266.131 173.859 265.915C173.954 265.691 174.023 265.475 174.075 265.276C174.092 265.207 174.101 265.146 174.11 265.077C174.118 265.017 174.118 264.948 174.127 264.861C174.127 264.784 174.127 264.697 174.127 264.594C174.127 264.594 174.127 264.594 174.127 264.602C174.127 264.594 174.127 264.585 174.127 264.576C174.127 264.499 174.118 264.412 174.118 264.326C174.118 264.3 174.118 264.274 174.118 264.248C174.118 264.179 174.11 264.101 174.101 264.032C174.101 263.989 174.092 263.937 174.092 263.894C174.066 263.609 174.041 263.289 174.015 262.935C174.015 262.892 174.006 262.858 174.006 262.814C173.997 262.659 173.98 262.503 173.971 262.339C173.971 262.331 173.971 262.331 173.971 262.322C173.971 262.313 173.971 262.305 173.971 262.296C173.971 262.27 173.971 262.236 173.963 262.201C173.954 262.115 173.954 262.028 173.946 261.933C174.446 262.046 174.766 262.115 174.844 262.123C174.852 262.227 174.896 262.236 174.939 262.236ZM58.8959 202.691C58.749 203.365 58.5936 204.056 58.4468 204.842C58.3345 205.464 58.1186 206.483 57.8336 207.778C56.4087 207.571 55.6487 207.64 55.6487 207.64C55.6487 207.64 55.3119 207.692 54.7592 207.865C54.6987 207.882 54.6296 207.908 54.5692 207.925C54.3015 208.012 53.9906 208.124 53.6451 208.271C53.5588 208.305 53.4724 208.348 53.386 208.383C52.7642 208.668 52.0475 209.048 51.2961 209.575C50.9766 209.799 50.6484 210.041 50.3202 210.318C49.5516 210.957 48.7657 211.751 48.023 212.727C48.023 212.727 47.6171 212.848 47.0731 213.168C46.7622 213.349 46.4081 213.591 46.054 213.911C45.6136 214.308 45.1818 214.826 44.845 215.491C44.845 215.491 44.2923 215.949 43.4459 216.597L41.6496 216.2C41.4165 215.215 40.7428 212.874 39.5338 211.967C38.8774 211.475 38.7652 211.052 38.4629 209.549C38.3161 208.832 38.1347 207.934 37.8152 206.759C36.9516 203.589 34.9135 200.722 34.2831 199.893C34.404 199.279 34.8012 197.707 35.7339 196.541C36.0362 196.161 36.4334 195.764 36.8566 195.341C38.1952 194.002 39.862 192.335 40.1297 189.649C40.3024 187.887 40.6997 187.662 41.641 187.118C42.2369 186.773 42.9882 186.35 43.8691 185.46C45.1731 184.156 45.3459 183.465 45.5272 182.731C45.6827 182.117 45.8381 181.487 46.8658 180.157C47.8935 178.844 48.5758 178.274 49.2321 177.721C50.0266 177.065 50.847 176.382 52.1165 174.56C53.576 172.47 55.6141 170.639 56.8318 169.637C56.875 172.677 57.0996 179.984 58.1704 182.921C58.8268 184.717 58.7836 186.678 58.7404 188.742C58.6972 190.694 58.654 192.715 59.129 194.944C59.8458 198.416 59.4313 200.299 58.8959 202.691ZM158.927 204.444C157.917 207.822 157.908 207.943 158.591 210.68C158.953 212.123 158.237 213.082 157.537 214.006C157.14 214.533 156.768 215.034 156.622 215.595C156.293 216.917 156.803 219.983 156.924 220.674C155.939 227.627 156.293 231.617 157.269 238.432C158.237 245.177 158.245 254.929 158.245 255.032C158.245 255.214 158.323 255.386 158.452 255.516C158.539 255.594 158.625 255.671 158.712 255.749C158.608 256.414 158.487 257.027 158.375 257.572C158.332 257.788 158.28 257.995 158.237 258.194C158.237 258.202 158.228 258.211 158.228 258.228C158.185 258.418 158.133 258.591 158.09 258.764C158.09 258.781 158.081 258.798 158.081 258.815C158.038 258.979 157.995 259.135 157.952 259.282C157.943 259.299 157.943 259.316 157.934 259.334C157.891 259.472 157.848 259.61 157.805 259.731C157.796 259.748 157.796 259.765 157.787 259.783C157.744 259.904 157.701 260.016 157.667 260.12C157.658 260.137 157.658 260.146 157.649 260.163C157.606 260.266 157.572 260.361 157.528 260.448C157.485 260.543 157.442 260.629 157.399 260.698C156.95 261.467 154.376 263.972 152.07 266.053C152.053 265.924 152.036 265.82 152.019 265.725C151.474 262.728 149.557 254.48 148.936 251.811C149.307 251.482 149.514 251.284 149.549 251.249C149.73 251.068 149.79 250.8 149.695 250.558C149.678 250.506 147.744 245.35 147.433 243.787C147.321 243.217 147.018 242.37 146.638 241.291C145.878 239.149 144.833 236.212 144.833 234.096C144.833 232.541 144.367 231.228 143.832 229.708C143.158 227.817 142.398 225.666 142.217 222.28C141.888 216.053 142.225 206.647 144.16 198.908C145.68 192.827 148.417 183.681 149.54 179.967C152.468 186.229 156.734 194.209 158.349 196.801C159.782 199.089 159.929 201.093 158.927 204.444Z" fill="white"/>
</svg>
