<svg width="239" height="498" viewBox="0 0 239 498" fill="none" xmlns="http://www.w3.org/2000/svg">
<path d="M230.235 83.3797C225.479 77.5152 221.186 71.3093 219.447 68.1253C219.259 67.4765 219.121 67.0753 218.933 66.8875C218.856 66.8107 218.753 66.7339 218.633 66.6656C217.399 64.9242 216.294 66.051 213.098 63.0974C212.832 62.8499 212.541 62.5938 212.232 62.3121C210.604 60.8268 208.668 59.111 206.74 57.6598C203.415 54.9196 200.065 52.2222 198.899 51.2149C196.894 49.482 194.744 49.3454 193.672 44.8127C193.672 44.8127 193.672 43.4468 191.822 43.72C191.136 43.5407 189.979 43.2334 188.711 42.8066C186.706 42.1408 184.024 39.2043 182.55 37.7361C181.077 36.2678 179.337 33.5959 178.532 32.1277C177.94 31.0436 175.97 31.846 174.976 32.3411C171.745 29.1997 166.621 27.0145 165.721 26.562C164.65 26.0242 161.617 23.8048 161.172 23.7194C160.726 23.6341 156.973 22.4731 155.636 22.1146C154.299 21.7561 150.366 19.9805 150.366 19.9805C149.827 20.0659 143.049 22.2085 142.063 22.3792C141.078 22.5585 138.585 23.0878 138.585 23.0878C138.585 23.0878 136.974 28.073 136.177 29.14C135.371 30.207 130.376 31.1887 130.376 31.1887L127.694 30.7448C126.528 31.3253 126.366 31.9911 126.434 32.4435C126.408 32.5801 126.408 32.7167 126.408 32.8447C126.057 32.5289 125.732 32.2472 125.466 31.9826C125.466 31.9826 125.594 28.8327 125.183 24.9913C125.106 23.0963 124.712 16.1477 122.878 11.8796C120.736 6.89438 114.481 3.69326 112.167 2.62622C109.845 1.55918 97.5234 -2.44434 86.1871 2.18233C74.8507 6.80901 73.5055 12.7674 70.6521 18.4611C67.7987 24.1548 63.5058 36.0715 62.3491 38.1202C61.1923 40.1689 54.1317 48.9698 53.3348 50.2161C52.5379 51.4624 52.3494 54.305 52.5294 54.5782C52.7093 54.8428 55.9226 58.0439 56.908 59.5634C57.8934 61.0743 58.2447 66.0595 57.4478 67.4765C56.6423 68.9021 54.1403 69.4314 54.1403 69.4314C54.1403 69.4314 53.3348 71.2069 53.6947 72.991C53.9775 74.3824 53.4376 76.6445 53.1892 77.5579C53.1377 77.575 53.1035 77.5921 53.0863 77.6006C53.0692 77.6091 53.0521 77.6177 53.0349 77.6262C38.4939 82.1761 25.4781 94.8696 25.4781 94.8696C21.3737 97.8914 15.924 103.235 14.673 105.275C13.422 107.324 13.5162 109.637 12.1709 112.565C10.8257 115.493 8.5978 121.196 8.41786 123.509C8.23792 125.822 9.309 129.646 9.22331 132.139C9.1719 133.599 8.872 134.598 8.64065 135.178L8.2979 135.408C8.24649 135.443 8.20364 135.494 8.18651 135.554C8.1608 135.622 8.13509 135.699 8.10939 135.776C8.10082 135.793 8.09225 135.818 8.09225 135.835C8.06654 135.904 8.04941 135.98 8.0237 136.057C8.0237 136.066 8.01513 136.083 8.01513 136.091C7.98943 136.177 7.96372 136.271 7.94658 136.365C7.93801 136.382 7.93801 136.399 7.92945 136.424C7.91231 136.51 7.8866 136.595 7.86946 136.689C7.86946 136.706 7.8609 136.715 7.8609 136.732C7.83519 136.834 7.81805 136.945 7.79235 137.056C7.79235 137.065 7.79235 137.065 7.79235 137.073C7.77521 137.184 7.7495 137.295 7.73237 137.406C7.73237 137.415 7.73237 137.423 7.7238 137.432C7.68095 137.671 7.64668 137.91 7.6124 138.157C7.6124 138.157 7.6124 138.157 7.6124 138.166C7.5867 138.319 7.56956 138.473 7.55242 138.627V138.635C7.53529 138.789 7.50958 138.942 7.49244 139.088C7.49244 139.088 7.49244 139.088 7.49244 139.096V139.105C7.49244 139.113 7.49244 139.122 7.49244 139.122C7.48388 139.199 7.47531 139.284 7.46674 139.361C7.46674 139.369 7.46674 139.386 7.46674 139.395C7.45817 139.472 7.4496 139.54 7.44103 139.617C7.44103 139.634 7.44103 139.642 7.43246 139.66C7.42389 139.728 7.41533 139.805 7.40676 139.873C7.40676 139.89 7.40676 139.899 7.40676 139.916C7.39819 139.984 7.38962 140.052 7.38962 140.121C7.38962 140.138 7.38962 140.146 7.38962 140.163C7.38105 140.231 7.38105 140.291 7.37248 140.36C7.37248 140.377 7.37248 140.385 7.37248 140.402C7.36391 140.462 7.36391 140.522 7.35535 140.581C7.35535 140.599 7.35535 140.607 7.35535 140.624C7.34678 140.684 7.34678 140.744 7.33821 140.795C7.33821 140.803 7.33821 140.821 7.33821 140.829C7.32964 140.88 7.32964 140.931 7.32107 140.983C7.32107 141 7.32107 141.008 7.32107 141.025C7.32107 141.077 7.3125 141.128 7.3125 141.17C7.3125 141.179 7.3125 141.188 7.3125 141.196C7.3125 141.239 7.30393 141.29 7.30393 141.324C7.30393 141.333 7.30393 141.35 7.30393 141.358C7.30393 141.392 7.29536 141.427 7.29536 141.461C7.29536 141.478 7.29536 141.486 7.29536 141.503C7.29536 141.538 7.2868 141.563 7.2868 141.597C7.2868 141.606 7.2868 141.623 7.2868 141.631C7.2868 141.649 7.2868 141.666 7.2868 141.683C7.2868 141.7 7.2868 141.717 7.2868 141.734C7.2868 141.742 7.2868 141.742 7.2868 141.751C7.2868 141.768 7.2868 141.794 7.2868 141.811C7.2868 141.853 7.27823 141.879 7.27823 141.896C7.27823 141.922 7.27823 141.956 7.2868 141.981C7.30393 142.058 7.35535 142.135 7.42389 142.178L7.92088 142.477C7.91231 142.528 7.90374 142.588 7.89517 142.639C7.10685 145.396 5.41026 159.541 4.99039 162.733C4.54482 166.114 4.18494 167.36 2.84823 169.852C2.69399 170.134 2.57403 170.399 2.48834 170.646C2.43693 170.723 2.39409 170.8 2.35981 170.877C2.22271 171.159 2.19701 171.457 2.24842 171.765C2.19701 172.934 2.92534 173.626 3.48231 174.488C4.28776 175.734 3.21668 177.066 2.67685 177.783C2.13703 178.491 1.52008 180.805 0.980256 183.033C0.886 183.417 0.817451 183.741 0.774608 184.04C0.766039 184.074 0.748902 184.1 0.740333 184.125C0.688921 184.245 0.680352 184.407 0.69749 184.578C0.611803 185.576 0.834588 185.995 1.15163 186.507C1.53722 187.113 1.13449 188.112 1.00596 188.385C1.00596 188.393 0.997393 188.393 0.997393 188.402C0.980256 188.445 0.971687 188.462 0.971687 188.462C0.611803 190.374 0.320468 193.6 0.157663 197.28C0.11482 197.766 0.0805455 198.227 0.0462708 198.628C-0.00514119 199.32 -0.0137099 200.575 0.0205648 202.162C-0.0137099 204.416 0.0119961 206.695 0.0805455 208.838C0.346174 216.307 1.69146 224.314 2.48834 226.004C3.2938 227.694 2.93391 231.16 2.48834 233.124C2.15416 234.592 2.41979 235.36 2.57403 235.65C2.59117 235.684 2.59973 235.719 2.61687 235.753C2.83966 236.197 3.43946 236.905 4.07354 237.597C4.62194 238.408 5.24745 239.492 5.42739 240.507C5.78728 242.462 6.41279 250.205 6.41279 250.205C6.4385 250.606 6.47277 250.99 6.49848 251.366C6.53275 251.81 6.56703 252.253 6.59273 252.68C6.5756 253.517 6.54989 254.362 6.49848 255.096C6.31854 257.768 6.05291 258.212 6.58416 259.987C6.96119 261.242 8.27219 261.917 9.0091 262.207C8.95769 263.556 8.90627 264.793 8.90627 265.049C8.90627 265.673 8.54639 268.609 8.99196 269.582C9.43753 270.564 10.063 272.519 10.1487 273.586C10.2344 274.653 10.5943 276.966 10.8599 277.854C11.1256 278.742 10.4144 280.082 11.5711 281.678C12.7279 283.283 13.8076 285.144 14.6044 286.126C15.4099 287.107 16.9265 288.883 17.2864 289.506C17.5863 290.027 19.1458 290.803 20.3797 290.505C21.1081 291.119 23.3616 292.989 24.2528 293.509C25.3238 294.133 26.7548 294.576 27.646 295.285C28.5371 295.993 29.3425 297.061 31.0391 296.975C31.6218 296.941 32.0245 296.753 32.2987 296.506C32.6758 296.813 33.5498 297.462 34.1581 297.59C34.9636 297.769 36.9258 296.787 37.4656 296.164C37.8684 295.695 38.4253 294.611 38.4082 293.766C38.9309 293.39 39.8135 292.664 40.0534 291.811C40.4133 290.564 38.9823 286.202 38.0912 285.315C37.2 284.427 33.7126 278.998 32.8214 276.864C32.513 276.121 32.4872 275.336 32.5815 274.644C33.2413 275.447 34.8179 277.376 35.2378 277.931C35.7776 278.639 36.9344 279.979 36.9344 279.979C36.9344 279.979 40.7731 280.688 42.4697 277.043C42.4697 277.043 40.4133 271.972 40.2333 271.435C40.0534 270.897 39.0766 265.92 39.0766 265.92C39.0766 265.92 38.3654 260.935 39.1622 258.451C39.1622 258.451 39.6421 253.568 35.2035 247.977C35.5377 247.55 35.9747 246.688 35.6834 245.288C35.2378 243.154 33.1813 242.531 31.6647 239.509C30.6278 237.443 30.0109 235.548 29.9766 233.738C30.0195 232.893 30.1309 232.065 30.3451 231.425C30.5165 230.904 30.6364 230.409 30.7221 229.957C31.1934 228.318 31.1848 227.464 29.8824 225.723C28.2715 223.589 30.5936 219.5 31.4933 217.716C32.3844 215.94 31.9389 215.223 31.4933 213.533C31.0563 211.877 32.6758 205.705 32.4016 201.104C32.4358 200.284 32.4701 199.456 32.4958 198.637C32.5558 197.083 32.6072 195.581 32.7015 194.36C33.0014 192.73 33.4298 191.543 33.8154 191.116C34.6208 190.229 35.0664 189.426 34.7065 188.445C34.3809 187.548 33.6012 185.892 34.8693 184.176C35.1093 183.997 35.3063 183.826 35.4606 183.656C35.7948 183.502 36.3774 183.024 36.0518 181.59C35.6062 179.635 35.0664 178.03 36.6773 176.699C36.6773 176.699 38.2882 175.367 38.1083 173.318C38.0997 173.258 38.0997 173.19 38.0912 173.13C38.4682 175.469 39.0508 178.867 39.625 181.59C40.6103 186.217 42.127 192.798 42.4783 194.574C42.7868 196.093 43.3438 198.381 42.9496 202.606C42.9325 202.7 42.9153 202.803 42.8982 202.897C42.6583 204.305 42.4269 205.637 42.4869 206.507C42.504 206.746 42.5383 207.002 42.5983 207.276C42.6668 208.206 42.8468 209.333 43.2838 210.485C44.3549 213.328 45.3403 213.951 44.5348 221.514C44.4748 222.12 44.4063 222.735 44.3292 223.35C44.1663 224.399 43.995 225.484 43.8322 226.585C43.5151 228.719 43.3266 230.691 43.1381 232.594C42.6326 236.111 42.1698 238.928 41.9471 239.927C41.5015 241.882 40.1648 247.132 39.8906 248.113C39.7963 248.446 39.6849 248.865 39.625 249.291C39.4707 249.889 39.4193 250.384 39.5564 250.862C39.8906 252.091 40.6618 252.424 41.0645 252.518C41.6215 252.766 42.8553 253.039 44.3806 251.775C44.4234 254.746 44.0892 256.513 43.318 257.546C43.121 257.802 42.9068 258.084 42.6754 258.365C41.57 259.765 40.4218 261.217 40.7732 262.104C41.1502 263.052 42.7439 265.032 44.7404 266.057C44.7747 266.304 44.8261 266.646 44.8861 267.064C45.1346 269.65 45.9058 277.683 46.0172 279.467C46.1543 281.601 47.2254 286.535 48.0222 287.875C48.8277 289.207 49.2304 293.748 49.2304 295.08C49.2304 296.412 48.6906 298.682 50.4386 301.081C52.178 303.48 54.5944 310.42 55.3913 312.955C56.1968 315.49 57.3964 318.956 57.1307 321.363C56.8651 323.762 56.0597 326.297 58.2018 328.167C60.344 330.036 63.6943 331.368 64.4998 333.775C65.3052 336.174 66.3763 338.18 64.4998 338.709C63.0346 339.127 62.5547 339.955 62.6661 340.988C62.649 341.023 62.6318 341.065 62.6233 341.108C62.2205 342.576 61.1494 341.509 59.8127 341.91C58.476 342.311 59.1444 344.847 57.5335 345.914C55.9226 346.981 55.2542 347.117 55.2542 349.516C55.2542 351.915 53.112 352.717 50.3015 357.924C47.491 363.132 47.0883 369.133 47.0883 371.932C47.0197 372.496 46.9169 372.991 46.8055 373.435C46.0857 375.373 44.2006 376.952 43.875 380.605C43.6608 383.013 43.9778 384.635 44.3206 385.616C43.8407 387.383 39.6164 402.842 39.2736 403.594C39.1194 403.935 38.7338 404.652 38.3311 405.369C36.4374 405.181 29.8738 404.9 25.658 409.159C20.6882 414.179 19.1458 420.487 20.7482 428.084C22.3505 435.682 26.4978 439.173 29.4711 447.624C32.4444 456.083 32.5986 462.955 37.757 470.945C42.1099 477.68 50.9442 478.252 55.7512 476.536C55.7512 476.536 60.1126 475.845 59.907 472.294C61.7407 466.967 61.7321 457.987 61.2608 456.988C60.9267 456.28 60.1298 451.38 59.53 447.359C59.8127 447.624 60.0784 447.871 60.3011 448.085C63.3259 450.987 65.3052 446.207 65.1167 443.125C65.5794 443.031 66.0679 442.75 66.5905 442.203C67.7473 441 69.521 438.507 69.0412 437.082C68.4328 435.272 65.5023 433.667 63.9942 432.685C62.2548 431.559 60.4125 430.859 58.4932 430.176C58.4417 425.839 58.4417 421.631 58.536 420.103C58.6902 417.508 57.4906 414.588 56.8908 413.308C57.105 412.139 57.5249 409.834 57.6534 409.117C57.8334 408.135 58.7245 405.822 59.1701 405.207C59.5814 404.635 62.8803 399.445 63.3859 398.643C64.6283 398.369 66.7105 397.473 68.27 394.537C69.2725 396.876 72.4001 404.183 72.5201 404.627C72.6572 405.164 74.9279 412.369 75.4677 413.965C75.7333 415.297 76.4017 421.708 77.747 423.842C79.0837 425.976 80.2919 426.112 80.2919 426.112L80.3004 426.044L81.3201 431.362C81.3201 431.362 82.3055 436.697 82.3055 438.123C82.3055 439.549 81.5 443.279 81.68 445.592C81.8599 447.906 82.3912 450.398 82.8367 451.551C83.1623 452.396 83.248 454.496 83.2737 455.546C82.6225 455.537 80.9002 455.631 79.9405 456.749C78.7838 458.098 78.184 472.874 78.1411 473.813C78.1068 473.813 78.0897 473.813 78.0897 473.813C78.0897 473.813 73.9939 479.089 72.9485 485.201C72.9485 485.201 74.7993 487.437 80.3347 489.973C85.8786 492.508 91.7225 493.353 91.7225 493.353C91.7225 493.353 93.4705 495.043 101.105 496.537C108.748 498.031 120.325 498.722 132.458 496.938C132.458 496.938 139.647 495.939 144.437 493.95C144.437 493.95 143.477 485.363 141.952 482.648C141.815 481.795 141.644 480.916 141.438 480.019C141.438 480.019 140.238 476.041 139.244 474.846C139.244 474.846 132.261 472.755 129.553 471.184C130.89 470.988 131.824 470.86 132.689 469.605C133.932 467.804 132.963 467.164 131.284 466.242C128.542 464.722 125.329 464.364 122.355 463.382C122.278 463.288 122.201 463.203 122.124 463.109C126.606 463.117 131.327 462.341 133.315 457.816C134.523 455.076 131.241 454.683 129.065 453.983C125.929 452.968 124.823 453.096 122.415 455.503C121.216 456.698 119.931 457.944 118.954 458.96C118.705 457.398 117.994 453.762 116.469 451.167C116.469 451.167 113.872 450.373 108.08 449.971C107.789 449.954 107.489 449.937 107.172 449.937C107.18 449.195 107.292 448.273 107.549 447.803C107.994 447.001 107.909 444.961 107.549 443.979C107.189 442.997 105.141 439.532 104.781 438.823C104.421 438.115 103.89 432.506 103.796 430.637C103.744 429.484 103.787 426.403 103.83 424.209C103.907 424.166 103.984 424.115 104.061 424.055C104.224 424.004 104.438 423.842 104.687 423.415C104.952 423.048 105.175 422.578 105.312 421.964C106.246 419.164 107.189 413.829 107.189 413.829C107.189 413.829 104.644 411.695 104.507 409.689C104.37 407.691 103.839 374.86 103.701 372.863C103.701 372.863 104.635 371.659 104.37 370.865C104.138 370.183 103.136 368.731 103.753 366.828C104.413 366.17 105.535 364.916 105.441 364.053C105.304 362.85 103.299 361.117 104.233 359.119C105.167 357.122 105.441 355.253 105.167 353.912C104.901 352.581 105.03 352.043 105.835 350.711C106.418 349.747 105.381 349.055 105.432 348.244C105.518 347.903 105.715 347.57 106.101 347.245C107.506 346.17 108.997 343.182 109.734 339.964C111.199 337.48 118.088 325.546 123.915 311.086C129.784 296.531 133.075 282.412 134 273.381C134.18 272.143 134.3 271.17 134.386 270.487C135.268 269.889 135.92 269.36 136.254 268.925C137.453 267.371 137.308 266.851 136.845 265.826C136.614 265.305 136.322 264.648 136.134 263.53C135.937 262.343 135.808 259.817 135.663 256.897C135.483 253.269 135.268 248.975 134.84 245.919L137.71 244.229C137.71 244.229 136.845 224.365 135.585 218.339L136.374 217.946C136.374 217.946 133.289 193.532 131.018 186.72C131.018 186.72 127.805 180.984 128.336 168.572C128.876 156.16 130.479 150.159 136.374 146.019C142.269 141.879 154.856 140.283 162.354 139.216C169.158 138.251 191.385 134.649 200.056 130.893C201.007 130.611 201.881 130.406 202.395 130.406C204.006 130.406 205.343 129.476 206.414 128.801C207.485 128.136 208.556 127.598 209.893 127.871C211.23 128.136 213.106 127.606 214.177 126.266C215.248 124.934 217.93 123.731 219.404 123.33C220.878 122.928 224.228 121.597 226.233 119.727C228.238 117.858 230.92 115.058 233.868 113.453C236.816 111.848 239.361 109.048 238.958 105.583C238.538 102.194 235.325 89.6539 230.235 83.3797ZM61.3722 448.64C60.7467 446.967 59.8127 445.328 58.9216 443.689C58.8188 442.946 58.7417 442.391 58.7159 442.144C58.656 441.631 58.5874 439.395 58.5274 436.51C59.2558 438.08 60.5582 439.412 61.715 440.914C62.212 441.563 62.7261 442.195 63.2745 442.63C63.5658 445.353 63.3345 449.007 61.3722 448.64ZM60.7124 437.44C61.3722 438.097 62.0749 438.849 62.529 439.617C61.8863 439.002 61.278 438.234 60.7124 437.44ZM63.4973 433.727C64.9796 434.401 67.3103 435.357 68.0901 436.936C68.8955 438.567 67.5674 440.513 65.8194 440.94C65.3481 441.051 64.8768 441.017 64.4312 440.872C63.1459 437.799 60.9095 435.545 58.4846 433.428C58.476 432.924 58.4675 432.412 58.4589 431.892C60.2155 432.216 61.8178 432.967 63.4973 433.727ZM129.382 466.156C130.83 466.95 131.721 467.966 129.922 469.093C129.236 469.52 128.362 469.579 127.471 469.511C126.246 468.213 124.755 466.378 123.212 464.534C124.995 464.919 127.308 465.021 129.382 466.156ZM127.779 455.29C129.099 455.426 132.844 455.503 132.741 457.381C132.638 459.285 128.928 460.095 127.617 460.497C125.303 461.205 123.024 461.427 120.685 461.564C120.11 460.923 119.553 460.317 119.022 459.788C119.022 459.788 119.014 459.728 119.005 459.626C121.636 457.611 124.746 454.982 127.779 455.29ZM134.472 38.1543C134.137 38.6324 134.086 38.9482 134.129 39.1445C133.272 38.4787 132.398 37.7958 131.55 37.1214C132.766 37.4117 135.251 37.0275 134.472 38.1543ZM194.075 94.1867C193.535 94.0757 193.133 94.0586 192.747 94.144C192.738 94.144 192.73 94.144 192.713 94.144C192.653 94.144 192.593 94.1525 192.541 94.161C192.404 94.1867 192.284 94.2549 192.164 94.3574C191.787 94.5452 191.385 94.8439 190.853 95.2622C189.517 96.3293 188.308 95.2622 186.029 94.7244C183.75 94.1867 183.484 96.4573 182.413 96.4573C181.642 96.4573 181.017 95.9793 180.074 96.15C179.688 96.1841 179.363 96.3293 179.097 96.5256C178.994 96.5854 178.9 96.6451 178.789 96.7219C177.049 97.9256 175.575 97.6524 173.031 96.8585C170.486 96.0561 169.277 97.3963 165.13 97.5243C160.974 97.6609 155.49 96.5939 152.808 95.7915C150.126 94.9891 148.524 95.7915 146.511 95.1256C144.505 94.4598 142.895 91.788 139.81 89.5173C137.042 87.4771 130.804 84.3614 129.579 83.7553C130.496 82.1163 131.267 80.3578 131.867 78.625C133.563 73.7337 133.203 68.0399 131.687 62.2609C130.17 56.4818 127.668 49.0979 126.957 47.1431C126.383 45.5638 126.563 42.1237 126.7 40.6725C126.854 40.7238 127.008 40.775 127.162 40.8262C127.342 40.886 127.514 40.9457 127.694 41.014C127.839 41.0652 127.976 41.1164 128.122 41.1591C128.585 41.3213 129.048 41.492 129.51 41.6628C134.274 43.4212 138.79 45.4358 139.724 45.7175C139.724 45.7175 139.724 45.7175 139.733 45.7175C139.733 45.7175 139.741 45.7175 139.75 45.7175C139.75 45.7175 139.758 45.7175 139.767 45.7175C139.99 45.7346 141.172 45.7773 141.335 44.6505C141.335 44.6505 139.87 43.5578 137.805 41.9786C137.933 41.9786 138.062 41.9786 138.19 41.9701C138.782 42.0554 139.878 42.1237 140.624 41.6286C141.695 40.9201 141.875 38.786 142.68 38.069C143.486 37.3605 145.988 36.7373 147.59 36.8227C149.201 36.908 152.68 38.3336 153.751 38.9567C154.822 39.5799 156.433 42.9603 155.987 44.1127C155.542 45.2651 153.305 46.2468 150.452 46.8699C147.599 47.4931 143.4 46.9553 141.438 46.8699C139.476 46.7845 136.888 47.2284 135.363 48.9186C133.837 50.6088 135.363 53.0075 135.363 53.0075C135.363 53.0075 138.842 53.0075 139.741 53.0075C140.632 53.0075 144.565 54.0745 144.565 54.0745C144.565 54.0745 147.333 53.4514 148.67 53.6307C150.007 53.8099 153.494 56.0294 153.494 56.0294C153.494 56.0294 157.333 56.294 158.498 56.5672C159.012 56.6867 160.212 56.9086 161.386 57.122C161.223 59.1963 164.205 59.6488 165.422 59.7683C166.758 59.9048 170.648 61.2365 171.848 61.6377C172.705 61.9194 175.55 63.2255 177.101 63.951C177.375 64.7535 177.126 65.9998 177.743 66.3071C178.549 66.7083 181.496 68.0399 182.43 68.4411C183.364 68.8424 187.657 74.8434 187.657 74.8434C187.657 74.8434 191.273 80.4517 192.481 81.9114C193.69 83.3711 191.942 85.2491 192.344 86.0515C192.747 86.854 194.752 88.3222 194.624 90.1917C194.521 91.6002 195.335 93.4525 195.738 94.2891C195.232 94.3488 194.701 94.3147 194.075 94.1867Z" fill="white"/>
</svg>
