<svg width="530" height="531" viewBox="0 0 530 531" fill="none" xmlns="http://www.w3.org/2000/svg">
<rect x="266.286" y="153.312" width="157.243" height="157.243" transform="rotate(45 266.286 153.312)" fill="#FF3300" fill-opacity="0.7"/>
<rect x="266.286" y="153.312" width="157.243" height="157.243" transform="rotate(45 266.286 153.312)" fill="#FF9900" fill-opacity="0.5"/>
<rect x="266.286" y="153.312" width="157.243" height="157.243" transform="rotate(45 266.286 153.312)" fill="#FFCC33" fill-opacity="0.5"/>
<rect x="266.286" y="153.312" width="157.243" height="157.243" transform="rotate(45 266.286 153.312)" fill="#92CBF8" fill-opacity="0.5"/>
<rect opacity="0.7" x="265.952" y="153.189" width="204.416" height="157.243" transform="rotate(-45 265.952 153.189)" fill="#92CBF8"/>
<rect opacity="0.7" x="11.2202" y="408.713" width="204.416" height="157.243" transform="rotate(-45 11.2202 408.713)" fill="#FF9900"/>
<rect opacity="0.7" x="154.584" y="264.771" width="204.416" height="157.243" transform="rotate(-135 154.584 264.771)" fill="#FF3300"/>
<rect opacity="0.7" x="410.892" y="520.292" width="204.416" height="157.243" transform="rotate(-135 410.892 520.292)" fill="#FFCC33"/>
<rect x="418.81" y="0.786377" width="157.243" height="157.243" transform="rotate(45 418.81 0.786377)" fill="#92CBF8"/>
<rect x="418.81" y="305.838" width="157.243" height="157.243" transform="rotate(45 418.81 305.838)" fill="#FFCC33"/>
<rect x="112.185" width="157.243" height="157.243" transform="rotate(45 112.185 0)" fill="#EC4826"/>
<rect x="112.185" y="308.197" width="157.243" height="157.243" transform="rotate(45 112.185 308.197)" fill="#FF9900"/>
<path d="M207.063 258.199C207.063 257.457 206.871 256.899 206.488 256.524C206.113 256.14 205.425 255.745 204.425 255.336C202.6 254.644 201.287 253.836 200.487 252.911C199.686 251.977 199.286 250.877 199.286 249.61C199.286 248.076 199.828 246.847 200.912 245.922C202.004 244.988 203.387 244.522 205.062 244.522C206.179 244.522 207.175 244.759 208.051 245.234C208.926 245.701 209.597 246.364 210.063 247.222C210.539 248.081 210.776 249.056 210.776 250.148H207.113C207.113 249.297 206.929 248.652 206.563 248.21C206.204 247.76 205.683 247.535 205 247.535C204.358 247.535 203.858 247.726 203.5 248.11C203.141 248.485 202.962 248.993 202.962 249.635C202.962 250.135 203.162 250.589 203.562 250.998C203.962 251.398 204.671 251.815 205.688 252.248C207.463 252.89 208.751 253.677 209.551 254.611C210.359 255.545 210.764 256.732 210.764 258.174C210.764 259.758 210.259 260.996 209.251 261.887C208.242 262.779 206.871 263.225 205.137 263.225C203.962 263.225 202.891 262.983 201.924 262.5C200.958 262.017 200.199 261.325 199.649 260.425C199.107 259.524 198.836 258.462 198.836 257.236H202.524C202.524 258.287 202.729 259.049 203.137 259.524C203.546 260 204.212 260.237 205.137 260.237C206.421 260.237 207.063 259.558 207.063 258.199ZM225.041 244.772V257.374C225.025 259.266 224.504 260.716 223.478 261.725C222.453 262.725 220.982 263.225 219.065 263.225C217.115 263.225 215.623 262.717 214.589 261.7C213.564 260.683 213.052 259.212 213.052 257.287V244.772H216.752V257.299C216.752 258.333 216.919 259.07 217.252 259.512C217.586 259.954 218.19 260.175 219.065 260.175C219.94 260.175 220.54 259.958 220.865 259.524C221.191 259.083 221.357 258.362 221.366 257.362V244.772H225.041ZM240.169 256.911C240.078 258.987 239.494 260.558 238.419 261.625C237.344 262.692 235.827 263.225 233.868 263.225C231.809 263.225 230.23 262.55 229.13 261.2C228.038 259.841 227.492 257.907 227.492 255.399V252.336C227.492 249.835 228.059 247.91 229.192 246.559C230.326 245.201 231.901 244.522 233.918 244.522C235.902 244.522 237.406 245.076 238.431 246.184C239.465 247.293 240.053 248.885 240.194 250.96H236.506C236.473 249.677 236.273 248.793 235.906 248.31C235.547 247.818 234.885 247.572 233.918 247.572C232.934 247.572 232.239 247.918 231.83 248.61C231.422 249.293 231.205 250.423 231.18 251.998V255.436C231.18 257.245 231.38 258.487 231.78 259.162C232.189 259.837 232.884 260.175 233.868 260.175C234.835 260.175 235.502 259.941 235.868 259.474C236.235 258.999 236.443 258.145 236.493 256.911H240.169ZM254.772 256.911C254.68 258.987 254.097 260.558 253.022 261.625C251.946 262.692 250.429 263.225 248.471 263.225C246.412 263.225 244.833 262.55 243.732 261.2C242.641 259.841 242.095 257.907 242.095 255.399V252.336C242.095 249.835 242.661 247.91 243.795 246.559C244.928 245.201 246.504 244.522 248.521 244.522C250.505 244.522 252.009 245.076 253.034 246.184C254.068 247.293 254.655 248.885 254.797 250.96H251.109C251.075 249.677 250.875 248.793 250.509 248.31C250.15 247.818 249.488 247.572 248.521 247.572C247.537 247.572 246.841 247.918 246.433 248.61C246.024 249.293 245.808 250.423 245.783 251.998V255.436C245.783 257.245 245.983 258.487 246.383 259.162C246.791 259.837 247.487 260.175 248.471 260.175C249.438 260.175 250.104 259.941 250.471 259.474C250.838 258.999 251.046 258.145 251.096 256.911H254.772ZM266.437 255.099H260.711V259.925H267.487V262.975H257.035V244.772H267.462V247.835H260.711V252.136H266.437V255.099ZM277.301 258.199C277.301 257.457 277.11 256.899 276.726 256.524C276.351 256.14 275.663 255.745 274.663 255.336C272.838 254.644 271.525 253.836 270.725 252.911C269.925 251.977 269.525 250.877 269.525 249.61C269.525 248.076 270.067 246.847 271.15 245.922C272.242 244.988 273.626 244.522 275.301 244.522C276.418 244.522 277.414 244.759 278.289 245.234C279.164 245.701 279.835 246.364 280.302 247.222C280.777 248.081 281.015 249.056 281.015 250.148H277.351C277.351 249.297 277.168 248.652 276.801 248.21C276.443 247.76 275.922 247.535 275.238 247.535C274.597 247.535 274.097 247.726 273.738 248.11C273.38 248.485 273.201 248.993 273.201 249.635C273.201 250.135 273.401 250.589 273.801 250.998C274.201 251.398 274.909 251.815 275.926 252.248C277.701 252.89 278.989 253.677 279.789 254.611C280.598 255.545 281.002 256.732 281.002 258.174C281.002 259.758 280.498 260.996 279.489 261.887C278.481 262.779 277.11 263.225 275.376 263.225C274.201 263.225 273.13 262.983 272.163 262.5C271.196 262.017 270.437 261.325 269.887 260.425C269.346 259.524 269.075 258.462 269.075 257.236H272.763C272.763 258.287 272.967 259.049 273.376 259.524C273.784 260 274.451 260.237 275.376 260.237C276.66 260.237 277.301 259.558 277.301 258.199ZM291.129 258.199C291.129 257.457 290.937 256.899 290.554 256.524C290.179 256.14 289.491 255.745 288.491 255.336C286.666 254.644 285.353 253.836 284.553 252.911C283.753 251.977 283.352 250.877 283.352 249.61C283.352 248.076 283.894 246.847 284.978 245.922C286.07 244.988 287.453 244.522 289.129 244.522C290.245 244.522 291.241 244.759 292.117 245.234C292.992 245.701 293.663 246.364 294.13 247.222C294.605 248.081 294.842 249.056 294.842 250.148H291.179C291.179 249.297 290.996 248.652 290.629 248.21C290.27 247.76 289.75 247.535 289.066 247.535C288.424 247.535 287.924 247.726 287.566 248.11C287.207 248.485 287.028 248.993 287.028 249.635C287.028 250.135 287.228 250.589 287.628 250.998C288.028 251.398 288.737 251.815 289.754 252.248C291.529 252.89 292.817 253.677 293.617 254.611C294.425 255.545 294.83 256.732 294.83 258.174C294.83 259.758 294.325 260.996 293.317 261.887C292.308 262.779 290.937 263.225 289.204 263.225C288.028 263.225 286.957 262.983 285.99 262.5C285.024 262.017 284.265 261.325 283.715 260.425C283.173 259.524 282.902 258.462 282.902 257.236H286.591C286.591 258.287 286.795 259.049 287.203 259.524C287.612 260 288.278 260.237 289.204 260.237C290.487 260.237 291.129 259.558 291.129 258.199ZM306.657 255.549H300.943V262.975H297.268V244.772H307.345V247.835H300.943V252.498H306.657V255.549ZM321.285 244.772V257.374C321.268 259.266 320.747 260.716 319.722 261.725C318.697 262.725 317.226 263.225 315.309 263.225C313.358 263.225 311.866 262.717 310.833 261.7C309.808 260.683 309.295 259.212 309.295 257.287V244.772H312.996V257.299C312.996 258.333 313.162 259.07 313.496 259.512C313.829 259.954 314.433 260.175 315.309 260.175C316.184 260.175 316.784 259.958 317.109 259.524C317.434 259.083 317.601 258.362 317.609 257.362V244.772H321.285ZM327.748 259.925H334.2V262.975H324.073V244.772H327.748V259.925ZM232.199 282.174V286.975H229.442V273.322H234.093C235.443 273.322 236.518 273.741 237.319 274.579C238.125 275.417 238.528 276.504 238.528 277.842C238.528 279.18 238.131 280.236 237.337 281.011C236.544 281.787 235.443 282.174 234.037 282.174H232.199ZM232.199 279.877H234.093C234.618 279.877 235.024 279.705 235.312 279.361C235.6 279.017 235.743 278.517 235.743 277.861C235.743 277.179 235.596 276.639 235.303 276.239C235.009 275.832 234.615 275.626 234.121 275.62H232.199V279.877ZM244.511 281.987H243.142V286.975H240.385V273.322H244.783C246.164 273.322 247.23 273.682 247.98 274.401C248.736 275.113 249.115 276.129 249.115 277.448C249.115 279.261 248.455 280.53 247.136 281.255L249.527 286.844V286.975H246.564L244.511 281.987ZM243.142 279.689H244.708C245.258 279.689 245.67 279.508 245.945 279.145C246.22 278.777 246.358 278.286 246.358 277.673C246.358 276.304 245.823 275.62 244.754 275.62H243.142V279.689ZM260.62 281.377C260.62 283.209 260.186 284.631 259.317 285.644C258.454 286.656 257.254 287.163 255.716 287.163C254.184 287.163 252.981 286.663 252.106 285.662C251.231 284.656 250.787 283.249 250.774 281.443V279.108C250.774 277.233 251.209 275.77 252.078 274.72C252.947 273.663 254.153 273.135 255.697 273.135C257.216 273.135 258.413 273.654 259.288 274.691C260.164 275.723 260.607 277.173 260.62 279.042V281.377ZM257.854 279.089C257.854 277.858 257.679 276.942 257.329 276.342C256.979 275.742 256.435 275.442 255.697 275.442C254.966 275.442 254.425 275.732 254.075 276.314C253.725 276.889 253.544 277.767 253.531 278.949V281.377C253.531 282.571 253.709 283.453 254.066 284.021C254.422 284.584 254.972 284.865 255.716 284.865C256.435 284.865 256.969 284.59 257.319 284.04C257.669 283.484 257.848 282.624 257.854 281.462V279.089ZM262.598 286.975V273.322H266.209C267.803 273.322 269.072 273.829 270.016 274.842C270.966 275.854 271.45 277.242 271.469 279.005V281.218C271.469 283.012 270.994 284.421 270.044 285.447C269.1 286.466 267.796 286.975 266.134 286.975H262.598ZM265.355 275.62V284.687H266.18C267.099 284.687 267.746 284.446 268.121 283.965C268.496 283.478 268.693 282.64 268.712 281.452V279.08C268.712 277.805 268.534 276.917 268.178 276.417C267.821 275.91 267.215 275.645 266.359 275.62H265.355ZM282.337 273.322V282.774C282.324 284.193 281.933 285.281 281.165 286.037C280.396 286.788 279.292 287.163 277.855 287.163C276.392 287.163 275.273 286.781 274.498 286.019C273.729 285.256 273.344 284.153 273.344 282.709V273.322H276.12V282.718C276.12 283.493 276.245 284.046 276.495 284.378C276.745 284.709 277.198 284.875 277.855 284.875C278.511 284.875 278.961 284.712 279.205 284.387C279.449 284.056 279.574 283.515 279.58 282.765V273.322H282.337ZM293.683 282.427C293.614 283.984 293.176 285.162 292.37 285.962C291.563 286.763 290.426 287.163 288.957 287.163C287.413 287.163 286.228 286.656 285.403 285.644C284.584 284.625 284.175 283.174 284.175 281.293V278.995C284.175 277.12 284.6 275.676 285.45 274.663C286.3 273.644 287.481 273.135 288.994 273.135C290.482 273.135 291.61 273.551 292.379 274.382C293.154 275.213 293.595 276.407 293.701 277.964H290.935C290.91 277.001 290.76 276.339 290.485 275.976C290.216 275.607 289.719 275.423 288.994 275.423C288.257 275.423 287.735 275.682 287.428 276.201C287.122 276.714 286.959 277.561 286.941 278.742V281.321C286.941 282.677 287.091 283.609 287.391 284.115C287.697 284.622 288.219 284.875 288.957 284.875C289.682 284.875 290.182 284.7 290.457 284.35C290.732 283.993 290.888 283.353 290.926 282.427H293.683ZM303.941 275.62H300.565V286.975H297.799V275.62H294.48V273.322H303.941V275.62Z" fill="black"/>
<path d="M384.455 127.074V131.574H381.871V118.777H386.23C387.496 118.777 388.504 119.17 389.254 119.955C390.01 120.74 390.388 121.76 390.388 123.013C390.388 124.267 390.016 125.258 389.271 125.984C388.527 126.711 387.496 127.074 386.178 127.074H384.455ZM384.455 124.921H386.23C386.723 124.921 387.104 124.76 387.373 124.437C387.643 124.115 387.777 123.646 387.777 123.031C387.777 122.392 387.64 121.885 387.364 121.51C387.089 121.13 386.72 120.936 386.257 120.93H384.455V124.921ZM395.995 126.898H394.712V131.574H392.128V118.777H396.25C397.545 118.777 398.544 119.114 399.247 119.788C399.956 120.456 400.311 121.408 400.311 122.644C400.311 124.344 399.692 125.533 398.456 126.213L400.697 131.451V131.574H397.92L395.995 126.898ZM394.712 124.745H396.18C396.695 124.745 397.082 124.575 397.34 124.235C397.598 123.889 397.727 123.429 397.727 122.855C397.727 121.572 397.226 120.93 396.224 120.93H394.712V124.745ZM411.095 126.327C411.095 128.044 410.688 129.377 409.873 130.326C409.064 131.275 407.939 131.75 406.498 131.75C405.062 131.75 403.935 131.281 403.114 130.344C402.294 129.4 401.878 128.082 401.866 126.388V124.2C401.866 122.442 402.273 121.071 403.088 120.087C403.902 119.096 405.033 118.601 406.48 118.601C407.904 118.601 409.026 119.088 409.847 120.06C410.667 121.027 411.083 122.386 411.095 124.138V126.327ZM408.502 124.182C408.502 123.028 408.338 122.17 408.01 121.607C407.682 121.045 407.172 120.763 406.48 120.763C405.795 120.763 405.288 121.036 404.96 121.581C404.632 122.12 404.462 122.943 404.45 124.051V126.327C404.45 127.446 404.617 128.272 404.951 128.805C405.285 129.333 405.801 129.596 406.498 129.596C407.172 129.596 407.673 129.339 408.001 128.823C408.329 128.302 408.496 127.496 408.502 126.406V124.182ZM412.949 131.574V118.777H416.333C417.827 118.777 419.017 119.252 419.901 120.201C420.792 121.15 421.246 122.451 421.264 124.103V126.177C421.264 127.859 420.818 129.18 419.928 130.141C419.043 131.096 417.821 131.574 416.263 131.574H412.949ZM415.533 120.93V129.429H416.307C417.168 129.429 417.774 129.204 418.126 128.753C418.478 128.296 418.662 127.51 418.68 126.397V124.174C418.68 122.978 418.513 122.146 418.179 121.677C417.845 121.203 417.276 120.954 416.474 120.93H415.533ZM431.45 118.777V127.636C431.438 128.967 431.072 129.986 430.352 130.695C429.631 131.398 428.597 131.75 427.249 131.75C425.878 131.75 424.829 131.392 424.103 130.677C423.382 129.963 423.021 128.928 423.021 127.575V118.777H425.623V127.584C425.623 128.31 425.74 128.829 425.975 129.139C426.209 129.45 426.634 129.605 427.249 129.605C427.864 129.605 428.286 129.453 428.515 129.148C428.743 128.838 428.86 128.331 428.866 127.628V118.777H431.45ZM442.085 127.311C442.021 128.77 441.61 129.875 440.854 130.625C440.099 131.375 439.032 131.75 437.655 131.75C436.208 131.75 435.098 131.275 434.324 130.326C433.557 129.371 433.173 128.011 433.173 126.248V124.094C433.173 122.337 433.571 120.983 434.368 120.034C435.165 119.079 436.272 118.601 437.69 118.601C439.085 118.601 440.143 118.991 440.863 119.77C441.59 120.55 442.003 121.669 442.103 123.128H439.51C439.486 122.225 439.346 121.604 439.088 121.264C438.836 120.919 438.37 120.746 437.69 120.746C436.999 120.746 436.51 120.989 436.223 121.475C435.936 121.956 435.783 122.75 435.766 123.857V126.274C435.766 127.546 435.906 128.419 436.188 128.893C436.475 129.368 436.964 129.605 437.655 129.605C438.335 129.605 438.804 129.441 439.062 129.113C439.319 128.779 439.466 128.178 439.501 127.311H442.085ZM451.7 120.93H448.536V131.574H445.943V120.93H442.832V118.777H451.7V120.93ZM366.543 138.777L368.96 148.032L371.368 138.777H374.743V151.574H372.15V148.111L372.388 142.776L369.83 151.574H368.072L365.515 142.776L365.752 148.111V151.574H363.168V138.777H366.543ZM383.093 148.955H379.568L378.883 151.574H376.149L380.148 138.777H382.513L386.538 151.574H383.778L383.093 148.955ZM380.131 146.802H382.521L381.326 142.24L380.131 146.802ZM396.689 151.574H394.105L390.326 143.18V151.574H387.742V138.777H390.326L394.114 147.179V138.777H396.689V151.574ZM405.03 148.955H401.506L400.82 151.574H398.087L402.086 138.777H404.45L408.476 151.574H405.716L405.03 148.955ZM402.068 146.802H404.459L403.264 142.24L402.068 146.802ZM418.188 150.124C417.689 150.663 417.077 151.07 416.351 151.345C415.63 151.615 414.839 151.75 413.978 151.75C412.507 151.75 411.364 151.296 410.55 150.387C409.735 149.473 409.316 148.146 409.293 146.406V144.103C409.293 142.34 409.677 140.983 410.444 140.034C411.218 139.079 412.343 138.601 413.819 138.601C415.208 138.601 416.254 138.944 416.957 139.63C417.666 140.315 418.076 141.39 418.188 142.855H415.674C415.604 142.041 415.434 141.487 415.164 141.194C414.895 140.895 414.473 140.746 413.898 140.746C413.201 140.746 412.694 141.001 412.378 141.51C412.062 142.02 411.897 142.832 411.886 143.945V146.265C411.886 147.431 412.059 148.281 412.404 148.814C412.756 149.342 413.33 149.605 414.127 149.605C414.637 149.605 415.05 149.503 415.366 149.298L415.595 149.139V146.793H413.784V144.842H418.188V150.124ZM426.625 146.037H422.6V149.429H427.363V151.574H420.016V138.777H427.346V140.93H422.6V143.954H426.625V146.037ZM432.232 138.777L434.649 148.032L437.058 138.777H440.433V151.574H437.84V148.111L438.077 142.776L435.52 151.574H433.762L431.204 142.776L431.441 148.111V151.574H428.857V138.777H432.232ZM449.125 146.037H445.1V149.429H449.863V151.574H442.516V138.777H449.846V140.93H445.1V143.954H449.125V146.037ZM460.305 151.574H457.721L453.941 143.18V151.574H451.357V138.777H453.941L457.729 147.179V138.777H460.305V151.574ZM470.403 140.93H467.239V151.574H464.646V140.93H461.535V138.777H470.403V140.93Z" fill="black"/>
<path d="M71.3613 135.113H67.3359V138.505H72.0996V140.65H64.752V127.853H72.082V130.006H67.3359V133.03H71.3613V135.113ZM82.541 140.65H79.957L76.1777 132.256V140.65H73.5938V127.853H76.1777L79.9658 136.255V127.853H82.541V140.65ZM93.3164 139.199C92.8184 139.739 92.2061 140.146 91.4795 140.421C90.7588 140.691 89.9678 140.825 89.1064 140.825C87.6357 140.825 86.4932 140.371 85.6787 139.463C84.8643 138.549 84.4453 137.222 84.4219 135.482V133.179C84.4219 131.415 84.8057 130.059 85.5732 129.11C86.3467 128.155 87.4717 127.677 88.9482 127.677C90.3369 127.677 91.3828 128.02 92.0859 128.705C92.7949 129.391 93.2051 130.466 93.3164 131.931H90.8027C90.7324 131.116 90.5625 130.563 90.293 130.27C90.0234 129.971 89.6016 129.822 89.0273 129.822C88.3301 129.822 87.8232 130.076 87.5068 130.586C87.1904 131.096 87.0264 131.907 87.0146 133.021V135.341C87.0146 136.507 87.1875 137.357 87.5332 137.89C87.8848 138.417 88.459 138.681 89.2559 138.681C89.7656 138.681 90.1787 138.578 90.4951 138.373L90.7236 138.215V135.868H88.9131V133.917H93.3164V139.199ZM97.8428 140.65H95.2588V127.853H97.8428V140.65ZM108.961 140.65H106.377L102.598 132.256V140.65H100.014V127.853H102.598L106.386 136.255V127.853H108.961V140.65ZM117.645 135.113H113.619V138.505H118.383V140.65H111.035V127.853H118.365V130.006H113.619V133.03H117.645V135.113ZM126.486 135.113H122.461V138.505H127.225V140.65H119.877V127.853H127.207V130.006H122.461V133.03H126.486V135.113ZM132.595 135.974H131.312V140.65H128.728V127.853H132.85C134.145 127.853 135.144 128.19 135.847 128.864C136.556 129.531 136.91 130.484 136.91 131.72C136.91 133.419 136.292 134.609 135.056 135.288L137.297 140.527V140.65H134.52L132.595 135.974ZM131.312 133.821H132.779C133.295 133.821 133.682 133.651 133.939 133.311C134.197 132.965 134.326 132.505 134.326 131.931C134.326 130.648 133.825 130.006 132.823 130.006H131.312V133.821ZM141.384 140.65H138.8V127.853H141.384V140.65ZM152.502 140.65H149.918L146.139 132.256V140.65H143.555V127.853H146.139L149.927 136.255V127.853H152.502V140.65ZM163.277 139.199C162.779 139.739 162.167 140.146 161.44 140.421C160.72 140.691 159.929 140.825 159.067 140.825C157.597 140.825 156.454 140.371 155.64 139.463C154.825 138.549 154.406 137.222 154.383 135.482V133.179C154.383 131.415 154.767 130.059 155.534 129.11C156.308 128.155 157.433 127.677 158.909 127.677C160.298 127.677 161.344 128.02 162.047 128.705C162.756 129.391 163.166 130.466 163.277 131.931H160.764C160.693 131.116 160.523 130.563 160.254 130.27C159.984 129.971 159.562 129.822 158.988 129.822C158.291 129.822 157.784 130.076 157.468 130.586C157.151 131.096 156.987 131.907 156.976 133.021V135.341C156.976 136.507 157.148 137.357 157.494 137.89C157.846 138.417 158.42 138.681 159.217 138.681C159.727 138.681 160.14 138.578 160.456 138.373L160.685 138.215V135.868H158.874V133.917H163.277V139.199Z" fill="black"/>
<path d="M89.0649 431.909V419.112H92.4487C93.9429 419.112 95.1323 419.586 96.0171 420.536C96.9077 421.485 97.3618 422.786 97.3794 424.438V426.512C97.3794 428.194 96.9341 429.515 96.0435 430.476C95.1587 431.431 93.937 431.909 92.3784 431.909H89.0649ZM91.6489 421.265V429.764H92.4224C93.2837 429.764 93.8901 429.539 94.2417 429.087C94.5933 428.63 94.7778 427.845 94.7954 426.732V424.508C94.7954 423.313 94.6284 422.481 94.2944 422.012C93.9604 421.538 93.3921 421.289 92.5894 421.265H91.6489ZM105.158 429.29H101.633L100.948 431.909H98.2144L102.213 419.112H104.578L108.603 431.909H105.843L105.158 429.29ZM102.196 427.136H104.586L103.391 422.575L102.196 427.136ZM117.041 421.265H113.876V431.909H111.284V421.265H108.172V419.112H117.041V421.265ZM123.58 429.29H120.055L119.37 431.909H116.636L120.635 419.112H123L127.025 431.909H124.265L123.58 429.29ZM120.618 427.136H123.008L121.813 422.575L120.618 427.136ZM82.1392 448.551C82.1392 448.03 82.0044 447.637 81.7349 447.374C81.4712 447.104 80.9878 446.826 80.2847 446.539C79.0015 446.052 78.0786 445.484 77.5161 444.833C76.9536 444.177 76.6724 443.404 76.6724 442.513C76.6724 441.435 77.0532 440.571 77.8149 439.92C78.5825 439.264 79.5552 438.936 80.7329 438.936C81.5181 438.936 82.2183 439.103 82.8335 439.437C83.4487 439.765 83.9204 440.231 84.2485 440.834C84.5825 441.438 84.7495 442.124 84.7495 442.891H82.1743C82.1743 442.293 82.0454 441.839 81.7876 441.529C81.5356 441.212 81.1694 441.054 80.689 441.054C80.2378 441.054 79.8862 441.189 79.6343 441.458C79.3823 441.722 79.2563 442.08 79.2563 442.531C79.2563 442.882 79.397 443.202 79.6782 443.489C79.9595 443.77 80.4575 444.063 81.1724 444.368C82.4204 444.819 83.3257 445.373 83.8882 446.029C84.4565 446.685 84.7407 447.52 84.7407 448.534C84.7407 449.647 84.3862 450.517 83.6772 451.144C82.9683 451.771 82.0044 452.084 80.7856 452.084C79.9595 452.084 79.2065 451.915 78.5269 451.575C77.8472 451.235 77.314 450.749 76.9272 450.116C76.5464 449.483 76.356 448.736 76.356 447.875H78.9487C78.9487 448.613 79.0923 449.149 79.3794 449.483C79.6665 449.817 80.1353 449.984 80.7856 449.984C81.688 449.984 82.1392 449.506 82.1392 448.551ZM95.1294 447.646C95.0649 449.105 94.6548 450.209 93.8989 450.959C93.1431 451.709 92.0767 452.084 90.6997 452.084C89.2524 452.084 88.1421 451.61 87.3687 450.661C86.6011 449.706 86.2173 448.346 86.2173 446.583V444.429C86.2173 442.671 86.6157 441.318 87.4126 440.369C88.2095 439.414 89.3169 438.936 90.7349 438.936C92.1294 438.936 93.187 439.326 93.9077 440.105C94.6343 440.884 95.0474 442.003 95.147 443.462H92.5542C92.5308 442.56 92.3901 441.939 92.1323 441.599C91.8804 441.253 91.4146 441.081 90.7349 441.081C90.0435 441.081 89.5542 441.324 89.2671 441.81C88.98 442.291 88.8276 443.084 88.8101 444.192V446.609C88.8101 447.88 88.9507 448.753 89.2319 449.228C89.519 449.703 90.0083 449.94 90.6997 449.94C91.3794 449.94 91.8481 449.776 92.106 449.448C92.3638 449.114 92.5103 448.513 92.5454 447.646H95.1294ZM99.4185 451.909H96.8345V439.112H99.4185V451.909ZM108.199 446.372H104.173V449.764H108.937V451.909H101.589V439.112H108.919V441.265H104.173V444.289H108.199V446.372ZM119.378 451.909H116.794L113.015 443.515V451.909H110.431V439.112H113.015L116.803 447.514V439.112H119.378V451.909ZM130.127 447.646C130.063 449.105 129.653 450.209 128.897 450.959C128.141 451.709 127.075 452.084 125.698 452.084C124.25 452.084 123.14 451.61 122.367 450.661C121.599 449.706 121.215 448.346 121.215 446.583V444.429C121.215 442.671 121.614 441.318 122.411 440.369C123.208 439.414 124.315 438.936 125.733 438.936C127.127 438.936 128.185 439.326 128.906 440.105C129.632 440.884 130.045 442.003 130.145 443.462H127.552C127.529 442.56 127.388 441.939 127.13 441.599C126.878 441.253 126.413 441.081 125.733 441.081C125.042 441.081 124.552 441.324 124.265 441.81C123.978 442.291 123.826 443.084 123.808 444.192V446.609C123.808 447.88 123.949 448.753 124.23 449.228C124.517 449.703 125.006 449.94 125.698 449.94C126.377 449.94 126.846 449.776 127.104 449.448C127.362 449.114 127.508 448.513 127.543 447.646H130.127ZM138.328 446.372H134.302V449.764H139.066V451.909H131.718V439.112H139.048V441.265H134.302V444.289H138.328V446.372Z" fill="black"/>
<path d="M410.616 393.07V406.474H424.02L421.224 403.679H413.411V395.865L410.616 393.07Z" fill="#B28F24"/>
<path d="M446.775 413.868L442.764 409.801V413.463H403.627V407.662H406.423V405.426H403.627V396.131H406.423V393.895H403.627V384.949H406.423V382.713H403.627V374.9L425.907 397.053V393.112L403.222 370.539C403.027 370.342 402.777 370.207 402.505 370.153C402.232 370.098 401.95 370.126 401.694 370.232C401.437 370.339 401.218 370.519 401.065 370.75C400.912 370.982 400.83 371.253 400.832 371.531V414.86C400.832 415.231 400.979 415.587 401.241 415.849C401.504 416.111 401.859 416.258 402.23 416.258H445.783C446.06 416.26 446.332 416.179 446.563 416.025C446.795 415.872 446.975 415.653 447.082 415.396C447.188 415.14 447.216 414.858 447.161 414.585C447.107 414.313 446.972 414.063 446.775 413.868Z" fill="#B28F24"/>
<path d="M431.582 410.667H437.173C437.914 410.667 438.625 410.373 439.15 409.848C439.674 409.324 439.968 408.613 439.968 407.872V380.896L436.754 374.983C436.505 374.553 436.146 374.196 435.714 373.95C435.281 373.705 434.791 373.579 434.294 373.586C433.785 373.59 433.287 373.732 432.854 373.998C432.42 374.264 432.068 374.644 431.834 375.095L428.787 380.924V407.872C428.787 408.613 429.081 409.324 429.605 409.848C430.13 410.373 430.841 410.667 431.582 410.667ZM431.582 381.595L434.294 376.325L437.173 381.609V402.281H431.582V381.595ZM431.582 404.559H437.173V407.97H431.582V404.559Z" fill="#B28F24"/>
<path d="M398.63 444.916V432.119H402.014C403.508 432.119 404.697 432.593 405.582 433.542C406.473 434.492 406.927 435.792 406.944 437.445V439.519C406.944 441.201 406.499 442.522 405.608 443.483C404.724 444.438 403.502 444.916 401.943 444.916H398.63ZM401.214 434.272V442.771H401.987C402.849 442.771 403.455 442.545 403.807 442.094C404.158 441.637 404.343 440.852 404.36 439.739V437.515C404.36 436.32 404.193 435.488 403.859 435.019C403.525 434.544 402.957 434.295 402.154 434.272H401.214ZM415.417 439.378H411.392V442.771H416.155V444.916H408.808V432.119H416.138V434.272H411.392V437.295H415.417V439.378ZM423.055 441.558C423.055 441.037 422.92 440.644 422.65 440.38C422.387 440.111 421.903 439.833 421.2 439.545C419.917 439.059 418.994 438.491 418.432 437.84C417.869 437.184 417.588 436.411 417.588 435.52C417.588 434.442 417.969 433.578 418.73 432.927C419.498 432.271 420.471 431.943 421.648 431.943C422.434 431.943 423.134 432.11 423.749 432.444C424.364 432.772 424.836 433.238 425.164 433.841C425.498 434.445 425.665 435.13 425.665 435.898H423.09C423.09 435.3 422.961 434.846 422.703 434.536C422.451 434.219 422.085 434.061 421.604 434.061C421.153 434.061 420.802 434.196 420.55 434.465C420.298 434.729 420.172 435.086 420.172 435.538C420.172 435.889 420.312 436.208 420.594 436.496C420.875 436.777 421.373 437.07 422.088 437.375C423.336 437.826 424.241 438.379 424.804 439.036C425.372 439.692 425.656 440.527 425.656 441.541C425.656 442.654 425.302 443.524 424.593 444.151C423.884 444.778 422.92 445.091 421.701 445.091C420.875 445.091 420.122 444.921 419.442 444.582C418.763 444.242 418.229 443.755 417.843 443.123C417.462 442.49 417.271 441.743 417.271 440.881H419.864C419.864 441.62 420.008 442.156 420.295 442.49C420.582 442.824 421.051 442.991 421.701 442.991C422.604 442.991 423.055 442.513 423.055 441.558ZM430.068 444.916H427.484V432.119H430.068V444.916ZM440.94 443.465C440.442 444.004 439.83 444.412 439.104 444.687C438.383 444.957 437.592 445.091 436.73 445.091C435.26 445.091 434.117 444.637 433.303 443.729C432.488 442.815 432.069 441.488 432.046 439.748V437.445C432.046 435.681 432.43 434.325 433.197 433.375C433.971 432.42 435.096 431.943 436.572 431.943C437.961 431.943 439.007 432.286 439.71 432.971C440.419 433.657 440.829 434.732 440.94 436.197H438.427C438.356 435.382 438.187 434.829 437.917 434.536C437.647 434.237 437.226 434.087 436.651 434.087C435.954 434.087 435.447 434.342 435.131 434.852C434.814 435.362 434.65 436.173 434.639 437.287V439.607C434.639 440.773 434.812 441.623 435.157 442.156C435.509 442.683 436.083 442.947 436.88 442.947C437.39 442.947 437.803 442.844 438.119 442.639L438.348 442.481V440.134H436.537V438.183H440.94V443.465ZM451.716 444.916H449.132L445.353 436.522V444.916H442.769V432.119H445.353L449.141 440.521V432.119H451.716V444.916Z" fill="black"/>
<g clip-path="url(#clip0)">
<path fill-rule="evenodd" clip-rule="evenodd" d="M97.308 359.448H94.0649C92.3446 359.448 90.6948 360.132 89.4784 361.348C88.262 362.565 87.5786 364.215 87.5786 365.935V399.988C87.5786 401.708 88.262 403.358 89.4784 404.574C90.6948 405.791 92.3446 406.474 94.0649 406.474H126.496C128.217 406.474 129.866 405.791 131.083 404.574C132.299 403.358 132.983 401.708 132.983 399.988V365.935C132.983 364.215 132.299 362.565 131.083 361.348C129.866 360.132 128.217 359.448 126.496 359.448H123.253V362.692H126.496C127.356 362.692 128.181 363.033 128.79 363.642C129.398 364.25 129.739 365.075 129.739 365.935V399.988C129.739 400.848 129.398 401.673 128.79 402.281C128.181 402.889 127.356 403.231 126.496 403.231H94.0649C93.2048 403.231 92.3799 402.889 91.7717 402.281C91.1634 401.673 90.8218 400.848 90.8218 399.988V365.935C90.8218 365.075 91.1634 364.25 91.7717 363.642C92.3799 363.033 93.2048 362.692 94.0649 362.692H97.308V359.448Z" fill="#B26B00"/>
<path fill-rule="evenodd" clip-rule="evenodd" d="M115.145 357.827H105.415C104.985 357.827 104.573 357.998 104.269 358.302C103.965 358.606 103.794 359.018 103.794 359.448V362.692C103.794 363.122 103.965 363.534 104.269 363.838C104.573 364.142 104.985 364.313 105.415 364.313H115.145C115.575 364.313 115.987 364.142 116.292 363.838C116.596 363.534 116.767 363.122 116.767 362.692V359.448C116.767 359.018 116.596 358.606 116.292 358.302C115.987 357.998 115.575 357.827 115.145 357.827ZM105.415 354.584C104.125 354.584 102.888 355.096 101.976 356.009C101.063 356.921 100.551 358.158 100.551 359.448V362.692C100.551 363.982 101.063 365.219 101.976 366.131C102.888 367.044 104.125 367.556 105.415 367.556H115.145C116.435 367.556 117.672 367.044 118.585 366.131C119.497 365.219 120.01 363.982 120.01 362.692V359.448C120.01 358.158 119.497 356.921 118.585 356.009C117.672 355.096 116.435 354.584 115.145 354.584H105.415Z" fill="#B26B00"/>
<path d="M97.3081 390.258C97.3081 389.398 97.6498 388.573 98.258 387.965C98.8662 387.357 99.6911 387.015 100.551 387.015C101.411 387.015 102.236 387.357 102.844 387.965C103.453 388.573 103.794 389.398 103.794 390.258V393.502C103.794 394.362 103.453 395.187 102.844 395.795C102.236 396.403 101.411 396.745 100.551 396.745C99.6911 396.745 98.8662 396.403 98.258 395.795C97.6498 395.187 97.3081 394.362 97.3081 393.502V390.258ZM116.767 377.286C116.767 376.426 117.109 375.601 117.717 374.993C118.325 374.384 119.15 374.043 120.01 374.043C120.87 374.043 121.695 374.384 122.303 374.993C122.912 375.601 123.253 376.426 123.253 377.286V393.502C123.253 394.362 122.912 395.187 122.303 395.795C121.695 396.403 120.87 396.745 120.01 396.745C119.15 396.745 118.325 396.403 117.717 395.795C117.109 395.187 116.767 394.362 116.767 393.502V377.286ZM107.038 383.772C107.038 382.912 107.379 382.087 107.987 381.479C108.596 380.871 109.421 380.529 110.281 380.529C111.141 380.529 111.966 380.871 112.574 381.479C113.182 382.087 113.524 382.912 113.524 383.772V393.502C113.524 394.362 113.182 395.187 112.574 395.795C111.966 396.403 111.141 396.745 110.281 396.745C109.421 396.745 108.596 396.403 107.987 395.795C107.379 395.187 107.038 394.362 107.038 393.502V383.772Z" fill="#B26B00"/>
</g>
<g clip-path="url(#clip1)">
<path fill-rule="evenodd" clip-rule="evenodd" d="M130.919 63.9783H89.6426C88.7303 63.9783 87.8554 64.3407 87.2103 64.9857C86.5653 65.6308 86.2029 66.5057 86.2029 67.418V108.694C86.2029 109.607 86.5653 110.482 87.2103 111.127C87.8554 111.772 88.7303 112.134 89.6426 112.134H130.919C131.831 112.134 132.706 111.772 133.351 111.127C133.996 110.482 134.359 109.607 134.359 108.694V67.418C134.359 66.5057 133.996 65.6308 133.351 64.9857C132.706 64.3407 131.831 63.9783 130.919 63.9783ZM89.6426 60.5386C87.8181 60.5386 86.0682 61.2634 84.7781 62.5535C83.488 63.8436 82.7632 65.5934 82.7632 67.418V108.694C82.7632 110.519 83.488 112.269 84.7781 113.559C86.0682 114.849 87.8181 115.574 89.6426 115.574H130.919C132.743 115.574 134.493 114.849 135.783 113.559C137.074 112.269 137.798 110.519 137.798 108.694V67.418C137.798 65.5934 137.074 63.8436 135.783 62.5535C134.493 61.2634 132.743 60.5386 130.919 60.5386H89.6426Z" fill="#B22400"/>
<path fill-rule="evenodd" clip-rule="evenodd" d="M106.338 76.5194C106.498 76.6792 106.626 76.869 106.712 77.0779C106.799 77.2869 106.844 77.5109 106.844 77.7371C106.844 77.9633 106.799 78.1873 106.712 78.3962C106.626 78.6052 106.498 78.795 106.338 78.9547L97.2334 88.0562L106.338 97.1576C106.661 97.4806 106.843 97.9186 106.843 98.3753C106.843 98.832 106.661 99.27 106.338 99.5929C106.015 99.9159 105.577 100.097 105.121 100.097C104.664 100.097 104.226 99.9159 103.903 99.5929L93.5839 89.2738C93.4237 89.1141 93.2966 88.9243 93.2099 88.7153C93.1232 88.5064 93.0786 88.2824 93.0786 88.0562C93.0786 87.83 93.1232 87.606 93.2099 87.397C93.2966 87.1881 93.4237 86.9983 93.5839 86.8385L103.903 76.5194C104.063 76.3593 104.253 76.2322 104.461 76.1455C104.67 76.0588 104.894 76.0142 105.121 76.0142C105.347 76.0142 105.571 76.0588 105.78 76.1455C105.989 76.2322 106.179 76.3593 106.338 76.5194ZM114.222 76.5194C114.062 76.6792 113.935 76.869 113.848 77.0779C113.761 77.2869 113.717 77.5109 113.717 77.7371C113.717 77.9633 113.761 78.1873 113.848 78.3962C113.935 78.6052 114.062 78.795 114.222 78.9547L123.327 88.0562L114.222 97.1576C113.899 97.4806 113.718 97.9186 113.718 98.3753C113.718 98.832 113.899 99.27 114.222 99.5929C114.545 99.9159 114.983 100.097 115.44 100.097C115.896 100.097 116.334 99.9159 116.657 99.5929L126.976 89.2738C127.137 89.1141 127.264 88.9243 127.35 88.7153C127.437 88.5064 127.482 88.2824 127.482 88.0562C127.482 87.83 127.437 87.606 127.35 87.397C127.264 87.1881 127.137 86.9983 126.976 86.8385L116.657 76.5194C116.498 76.3593 116.308 76.2322 116.099 76.1455C115.89 76.0588 115.666 76.0142 115.44 76.0142C115.214 76.0142 114.99 76.0588 114.781 76.1455C114.572 76.2322 114.382 76.3593 114.222 76.5194Z" fill="#B22400"/>
</g>
<path d="M423.293 95.1323H430.763V102.601H423.293V95.1323Z" fill="#668EAE"/>
<path d="M436.364 95.1323H443.833V102.601H436.364V95.1323Z" fill="#668EAE"/>
<path d="M423.293 82.0615H430.763V89.5306H423.293V82.0615Z" fill="#668EAE"/>
<path d="M436.364 82.0615H443.833V89.5306H436.364V82.0615Z" fill="#668EAE"/>
<path d="M419.559 95.1323H395.285V68.9906H440.099V78.3269H443.834V68.9906C443.833 68.0005 443.439 67.0511 442.739 66.351C442.039 65.6508 441.089 65.2571 440.099 65.2561H428.896V57.787C428.895 56.7969 428.501 55.8475 427.801 55.1474C427.101 54.4473 426.151 54.0535 425.161 54.0525H410.223C409.233 54.0535 408.283 54.4473 407.583 55.1474C406.883 55.8475 406.489 56.7969 406.488 57.787V65.2561H395.285C394.295 65.2571 393.345 65.6508 392.645 66.351C391.945 67.0511 391.551 68.0005 391.55 68.9906V95.1323C391.551 96.1225 391.945 97.0718 392.645 97.7719C393.345 98.4721 394.295 98.8659 395.285 98.8669H419.559V95.1323ZM410.223 57.787H425.161V65.2561H410.223V57.787Z" fill="#668EAE"/>
<defs>
<clipPath id="clip0">
<rect width="51.8903" height="51.8903" fill="white" transform="translate(84.3359 354.583)"/>
</clipPath>
<clipPath id="clip1">
<rect width="55.0352" height="55.0352" fill="white" transform="translate(82.7632 60.5386)"/>
</clipPath>
</defs>
</svg>
