<svg width="29" height="29" viewBox="0 0 29 29" fill="none" xmlns="http://www.w3.org/2000/svg">
<path d="M14.8026 28.5676C7.11718 28.5676 0.886963 22.3374 0.886963 14.652C0.886963 6.96655 7.11718 0.736328 14.8026 0.736328C22.488 0.736328 28.7182 6.96655 28.7182 14.652C28.7182 22.3374 22.488 28.5676 14.8026 28.5676Z" stroke="white" stroke-width="0.5" stroke-miterlimit="10"/>
<path d="M12.682 23.0609L16.0677 23.0609L16.0677 14.5784L18.4296 14.5784L18.6782 11.7412L16.0603 11.7412C16.0603 11.7412 16.0603 10.6809 16.0603 10.1251C16.0603 9.45236 16.192 9.18911 16.8428 9.18911C17.362 9.18911 18.6782 9.18911 18.6782 9.18911L18.6782 6.24219C18.6782 6.24219 16.7477 6.24219 16.3309 6.24219C13.8081 6.24219 12.6747 7.35368 12.6747 9.4743C12.6747 11.3244 12.6747 11.7412 12.6747 11.7412L10.9124 11.7412L10.9124 14.615L12.6747 14.615L12.6747 23.0609L12.682 23.0609Z" fill="#FF9900"/>
</svg>
