<svg width="29" height="29" viewBox="0 0 29 29" fill="none" xmlns="http://www.w3.org/2000/svg">
<path d="M14.5553 28.5676C6.86992 28.5676 0.639694 22.3374 0.639694 14.652C0.639694 6.96655 6.86992 0.736328 14.5553 0.736328C22.2407 0.736328 28.4709 6.96655 28.4709 14.652C28.4709 22.3374 22.2407 28.5676 14.5553 28.5676Z" stroke="white" stroke-width="0.5" stroke-miterlimit="10"/>
<path d="M14.5553 8.39965C16.5955 8.39965 16.8368 8.40696 17.6412 8.44352C18.3871 8.48008 18.7892 8.6044 19.0598 8.70677C19.4181 8.84571 19.6667 9.01389 19.9373 9.27714C20.2079 9.5477 20.3687 9.79633 20.5077 10.1546C20.61 10.4252 20.7344 10.8274 20.7709 11.5733C20.8075 12.3776 20.8148 12.6189 20.8148 14.6591C20.8148 16.6993 20.8075 16.9406 20.7709 17.745C20.7344 18.4909 20.61 18.893 20.5077 19.1636C20.3687 19.5219 20.2005 19.7705 19.9373 20.0411C19.674 20.3043 19.4181 20.4725 19.0598 20.6115C18.7892 20.7138 18.3871 20.8382 17.6412 20.8747C16.8368 20.9113 16.5955 20.9186 14.5553 20.9186C12.5151 20.9186 12.2738 20.9113 11.4695 20.8747C10.7236 20.8382 10.3214 20.7138 10.0508 20.6115C9.69252 20.4725 9.4439 20.3043 9.17334 20.0411C8.90278 19.7705 8.7419 19.5219 8.60297 19.1636C8.50059 18.893 8.37628 18.4909 8.33972 17.745C8.30316 16.9406 8.29583 16.6993 8.29583 14.6591C8.29583 12.6189 8.30316 12.3776 8.33972 11.5733C8.37628 10.8274 8.50059 10.4252 8.60297 10.1546C8.7419 9.79633 8.91009 9.5477 9.17334 9.27714C9.4439 9.00658 9.69252 8.84571 10.0508 8.70677C10.3214 8.6044 10.7236 8.48008 11.4695 8.44352C12.2811 8.40696 12.5225 8.39965 14.5553 8.39965ZM14.5553 7.0249C12.4859 7.0249 12.2226 7.03221 11.411 7.06878C10.5993 7.10534 10.0435 7.23696 9.5609 7.42709C9.05634 7.62452 8.63221 7.88046 8.20809 8.30458C7.78396 8.72871 7.52072 9.15283 7.33059 9.65739C7.14047 10.14 7.01615 10.6958 6.97228 11.5074C6.93572 12.3191 6.92841 12.5824 6.92841 14.6518C6.92841 16.7212 6.93572 16.9845 6.97228 17.7962C7.00884 18.6079 7.14047 19.1636 7.33059 19.6462C7.52803 20.1508 7.78396 20.5749 8.20809 20.999C8.63221 21.4232 9.05634 21.6864 9.5609 21.8765C10.0435 22.0667 10.5993 22.191 11.411 22.2348C12.2226 22.2714 12.4859 22.2787 14.5553 22.2787C16.6247 22.2787 16.888 22.2714 17.6997 22.2348C18.5114 22.1983 19.0671 22.0667 19.5497 21.8765C20.0543 21.6791 20.4784 21.4232 20.9025 20.999C21.3267 20.5749 21.5899 20.1508 21.78 19.6462C21.9702 19.1636 22.0945 18.6079 22.1383 17.7962C22.1749 16.9845 22.1822 16.7212 22.1822 14.6518C22.1822 12.5824 22.1749 12.3191 22.1383 11.5074C22.1018 10.6958 21.9702 10.14 21.78 9.65739C21.5826 9.15283 21.3267 8.72871 20.9025 8.30458C20.4784 7.88046 20.0543 7.61721 19.5497 7.42709C19.0671 7.23696 18.5114 7.11265 17.6997 7.06878C16.888 7.03221 16.6321 7.0249 14.5553 7.0249Z" fill="#FF9900"/>
<path d="M14.5553 10.7324C12.3908 10.7324 10.6358 12.4874 10.6358 14.6519C10.6358 16.8164 12.3908 18.5714 14.5553 18.5714C16.7198 18.5714 18.4748 16.8164 18.4748 14.6519C18.4748 12.4874 16.7198 10.7324 14.5553 10.7324ZM14.5553 17.1966C13.1513 17.1966 12.0106 16.0559 12.0106 14.6519C12.0106 13.2479 13.1513 12.1072 14.5553 12.1072C15.9593 12.1072 17.1001 13.2479 17.1001 14.6519C17.1001 16.0559 15.9593 17.1966 14.5553 17.1966Z" fill="#FF9900"/>
<path d="M19.5497 10.5786C19.5497 11.0832 19.1402 11.4927 18.6357 11.4927C18.1311 11.4927 17.7216 11.0832 17.7216 10.5786C17.7216 10.074 18.1311 9.66455 18.6357 9.66455C19.1402 9.66455 19.5497 10.074 19.5497 10.5786Z" fill="#FF9900"/>
</svg>
