<svg width="29" height="29" viewBox="0 0 29 29" fill="none" xmlns="http://www.w3.org/2000/svg">
<path d="M14.5112 28.5676C6.8258 28.5676 0.595581 22.3374 0.595581 14.652C0.595581 6.96655 6.8258 0.736328 14.5112 0.736328C22.1966 0.736328 28.4268 6.96655 28.4268 14.652C28.4268 22.3374 22.1966 28.5676 14.5112 28.5676Z" stroke="white" stroke-width="0.5" stroke-miterlimit="10"/>
<path d="M11.0817 11.5439L8.20056 11.5439L8.20056 20.8454L11.0817 20.8454L11.0817 11.5439Z" fill="#FF9900"/>
<path d="M9.6265 10.3304C10.5698 10.3304 11.3303 9.5626 11.3303 8.61198C11.3303 7.66136 10.5698 6.89355 9.6265 6.89355C8.68319 6.89355 7.9227 7.66136 7.9227 8.61198C7.9227 9.5626 8.68319 10.3304 9.6265 10.3304Z" fill="#FF9900"/>
<path d="M15.6812 15.968C15.6812 14.6591 16.2808 13.884 17.4362 13.884C18.4965 13.884 19.0011 14.6298 19.0011 15.968C19.0011 17.3062 19.0011 20.8527 19.0011 20.8527L21.8676 20.8527C21.8676 20.8527 21.8676 17.4524 21.8676 14.9589C21.8676 12.4653 20.4563 11.2588 18.4819 11.2588C16.5075 11.2588 15.6812 12.7944 15.6812 12.7944L15.6812 11.544L12.9171 11.544L12.9171 20.8454L15.6812 20.8454C15.6812 20.8527 15.6812 17.4013 15.6812 15.968Z" fill="#FF9900"/>
</svg>
