<svg width="29" height="29" viewBox="0 0 29 29" fill="none" xmlns="http://www.w3.org/2000/svg">
<path d="M14.7513 28.5676C7.06589 28.5676 0.83567 22.3374 0.83567 14.652C0.83567 6.96655 7.06589 0.736328 14.7513 0.736328C22.4367 0.736328 28.6669 6.96655 28.6669 14.652C28.6669 22.3374 22.4367 28.5676 14.7513 28.5676Z" stroke="white" stroke-width="0.5" stroke-miterlimit="10"/>
<path d="M7.33644 19.31C8.68194 20.1729 10.2834 20.6774 12.0018 20.6774C17.647 20.6774 20.8426 15.9097 20.6524 11.6246C21.2448 11.1931 21.7639 10.6593 22.1734 10.0524C21.625 10.2937 21.04 10.4546 20.4258 10.5277C21.0546 10.1548 21.5373 9.55515 21.7639 8.84584C21.1789 9.19684 20.5281 9.44546 19.8335 9.5844C19.2777 8.99209 18.488 8.62646 17.6105 8.62646C15.6434 8.62646 14.2028 10.4619 14.6489 12.3631C12.1188 12.2388 9.88118 11.025 8.37481 9.18221C7.57775 10.5496 7.958 12.3412 9.31812 13.2479C8.82087 13.2333 8.35287 13.0944 7.93606 12.8677C7.90681 14.279 8.91593 15.5952 10.3784 15.8877C9.94699 16.0047 9.47899 16.034 9.00368 15.9389C9.39124 17.1455 10.5174 18.0303 11.8482 18.0522C10.5612 19.054 8.9525 19.5001 7.33644 19.31Z" fill="#FF9900"/>
</svg>
